<?xml version="1.0" encoding="us-ascii" standalone="no"?><svg xmlns="http://www.w3.org/2000/svg" xmlns:xlink="http://www.w3.org/1999/xlink" contentStyleType="text/css" height="466px" preserveAspectRatio="none" style="width:1039px;height:466px;background:#FFFFFF;" version="1.1" viewBox="0 0 1039 466" width="1039px" zoomAndPan="magnify"><defs/><g><!--class Command--><g id="elem_Command"><rect codeLine="2" fill="#F1F1F1" height="48" id="Command" rx="2.5" ry="2.5" style="stroke:#181818;stroke-width:0.5;" width="103" x="431" y="209.29"/><ellipse cx="446" cy="225.29" fill="#A9DCDF" rx="11" ry="11" style="stroke:#181818;stroke-width:1.0;"/><path d="M446.1094,220.6337 L444.9531,225.7119 L447.2813,225.7119 L446.1094,220.6337 Z M444.625,218.3994 L447.6094,218.3994 L450.9688,230.79 L448.5156,230.79 L447.75,227.7275 L444.4688,227.7275 L443.7188,230.79 L441.2813,230.79 L444.625,218.3994 Z " fill="#000000"/><text fill="#000000" font-family="sans-serif" font-size="14" font-style="italic" lengthAdjust="spacing" textLength="71" x="460" y="230.1367">Command</text><line style="stroke:#181818;stroke-width:0.5;" x1="432" x2="533" y1="241.29" y2="241.29"/><line style="stroke:#181818;stroke-width:0.5;" x1="432" x2="533" y1="249.29" y2="249.29"/></g><!--class Normal--><g id="elem_Normal"><rect codeLine="3" fill="#F1F1F1" height="96.8906" id="Normal" rx="2.5" ry="2.5" style="stroke:#181818;stroke-width:0.5;" width="132" x="416.5" y="291.85"/><ellipse cx="454.9" cy="307.85" fill="#ADD1B2" rx="11" ry="11" style="stroke:#181818;stroke-width:1.0;"/><path d="M457.8688,313.4906 Q457.2906,313.7875 456.65,313.9281 Q456.0094,314.0844 455.3063,314.0844 Q452.8063,314.0844 451.4781,312.4437 Q450.1656,310.7875 450.1656,307.6625 Q450.1656,304.5375 451.4781,302.8812 Q452.8063,301.225 455.3063,301.225 Q456.0094,301.225 456.65,301.3812 Q457.3063,301.5375 457.8688,301.8344 L457.8688,304.5531 Q457.2438,303.975 456.65,303.7094 Q456.0563,303.4281 455.4313,303.4281 Q454.0875,303.4281 453.4,304.5062 Q452.7125,305.5687 452.7125,307.6625 Q452.7125,309.7562 453.4,310.8344 Q454.0875,311.8969 455.4313,311.8969 Q456.0563,311.8969 456.65,311.6312 Q457.2438,311.35 457.8688,310.7719 L457.8688,313.4906 Z " fill="#000000"/><text fill="#000000" font-family="sans-serif" font-size="14" lengthAdjust="spacing" textLength="48" x="474.1" y="312.6967">Normal</text><line style="stroke:#181818;stroke-width:0.5;" x1="417.5" x2="547.5" y1="323.85" y2="323.85"/><ellipse cx="427.5" cy="337.4984" fill="none" rx="3" ry="3" style="stroke:#038048;stroke-width:1.0;"/><text fill="#000000" font-family="sans-serif" font-size="14" lengthAdjust="spacing" textLength="98" x="436.5" y="340.8451">count: Integer</text><ellipse cx="427.5" cy="353.7953" fill="none" rx="3" ry="3" style="stroke:#038048;stroke-width:1.0;"/><text fill="#000000" font-family="sans-serif" font-size="14" lengthAdjust="spacing" textLength="106" x="436.5" y="357.142">type: Character</text><ellipse cx="427.5" cy="370.0922" fill="none" rx="3" ry="3" style="stroke:#038048;stroke-width:1.0;"/><text fill="#000000" font-family="sans-serif" font-size="14" lengthAdjust="spacing" textLength="106" x="436.5" y="373.4389">data: Character</text><line style="stroke:#181818;stroke-width:0.5;" x1="417.5" x2="547.5" y1="380.7406" y2="380.7406"/></g><!--class Movement--><g id="elem_Movement"><rect codeLine="8" fill="#F1F1F1" height="96.8906" id="Movement" rx="2.5" ry="2.5" style="stroke:#181818;stroke-width:0.5;" width="136" x="876.5" y="91.85"/><ellipse cx="905.45" cy="107.85" fill="#ADD1B2" rx="11" ry="11" style="stroke:#181818;stroke-width:1.0;"/><path d="M908.4188,113.4906 Q907.8406,113.7875 907.2,113.9281 Q906.5594,114.0844 905.8563,114.0844 Q903.3563,114.0844 902.0281,112.4437 Q900.7156,110.7875 900.7156,107.6625 Q900.7156,104.5375 902.0281,102.8812 Q903.3563,101.225 905.8563,101.225 Q906.5594,101.225 907.2,101.3812 Q907.8563,101.5375 908.4188,101.8344 L908.4188,104.5531 Q907.7938,103.975 907.2,103.7094 Q906.6063,103.4281 905.9813,103.4281 Q904.6375,103.4281 903.95,104.5062 Q903.2625,105.5687 903.2625,107.6625 Q903.2625,109.7562 903.95,110.8344 Q904.6375,111.8969 905.9813,111.8969 Q906.6063,111.8969 907.2,111.6312 Q907.7938,111.35 908.4188,110.7719 L908.4188,113.4906 Z " fill="#000000"/><text fill="#000000" font-family="sans-serif" font-size="14" lengthAdjust="spacing" textLength="73" x="922.55" y="112.6967">Movement</text><line style="stroke:#181818;stroke-width:0.5;" x1="877.5" x2="1011.5" y1="123.85" y2="123.85"/><ellipse cx="887.5" cy="137.4984" fill="none" rx="3" ry="3" style="stroke:#038048;stroke-width:1.0;"/><text fill="#000000" font-family="sans-serif" font-size="14" lengthAdjust="spacing" textLength="98" x="896.5" y="140.8451">count: Integer</text><ellipse cx="887.5" cy="153.7953" fill="none" rx="3" ry="3" style="stroke:#038048;stroke-width:1.0;"/><text fill="#000000" font-family="sans-serif" font-size="14" lengthAdjust="spacing" textLength="106" x="896.5" y="157.142">type: Character</text><ellipse cx="887.5" cy="170.0922" fill="none" rx="3" ry="3" style="stroke:#038048;stroke-width:1.0;"/><text fill="#000000" font-family="sans-serif" font-size="14" lengthAdjust="spacing" textLength="110" x="896.5" y="173.4389">seek: Character</text><line style="stroke:#181818;stroke-width:0.5;" x1="877.5" x2="1011.5" y1="180.7406" y2="180.7406"/></g><!--class ComboNM--><g id="elem_ComboNM"><rect codeLine="13" fill="#F1F1F1" height="80.5938" id="ComboNM" rx="2.5" ry="2.5" style="stroke:#181818;stroke-width:0.5;" width="182" x="615" y="193"/><ellipse cx="665.75" cy="209" fill="#ADD1B2" rx="11" ry="11" style="stroke:#181818;stroke-width:1.0;"/><path d="M668.7188,214.6406 Q668.1406,214.9375 667.5,215.0781 Q666.8594,215.2344 666.1563,215.2344 Q663.6563,215.2344 662.3281,213.5938 Q661.0156,211.9375 661.0156,208.8125 Q661.0156,205.6875 662.3281,204.0313 Q663.6563,202.375 666.1563,202.375 Q666.8594,202.375 667.5,202.5313 Q668.1563,202.6875 668.7188,202.9844 L668.7188,205.7031 Q668.0938,205.125 667.5,204.8594 Q666.9063,204.5781 666.2813,204.5781 Q664.9375,204.5781 664.25,205.6563 Q663.5625,206.7188 663.5625,208.8125 Q663.5625,210.9063 664.25,211.9844 Q664.9375,213.0469 666.2813,213.0469 Q666.9063,213.0469 667.5,212.7813 Q668.0938,212.5 668.7188,211.9219 L668.7188,214.6406 Z " fill="#000000"/><text fill="#000000" font-family="sans-serif" font-size="14" lengthAdjust="spacing" textLength="72" x="686.25" y="213.8467">ComboNM</text><line style="stroke:#181818;stroke-width:0.5;" x1="616" x2="796" y1="225" y2="225"/><ellipse cx="626" cy="238.6484" fill="none" rx="3" ry="3" style="stroke:#038048;stroke-width:1.0;"/><text fill="#000000" font-family="sans-serif" font-size="14" lengthAdjust="spacing" textLength="104" x="635" y="241.9951">normal: Normal</text><ellipse cx="626" cy="254.9453" fill="none" rx="3" ry="3" style="stroke:#038048;stroke-width:1.0;"/><text fill="#000000" font-family="sans-serif" font-size="14" lengthAdjust="spacing" textLength="156" x="635" y="258.292">movement: Movement</text><line style="stroke:#181818;stroke-width:0.5;" x1="616" x2="796" y1="265.5938" y2="265.5938"/></g><!--class Ex--><g id="elem_Ex"><rect codeLine="17" fill="#F1F1F1" height="64.2969" id="Ex" rx="2.5" ry="2.5" style="stroke:#181818;stroke-width:0.5;" width="175" x="857" y="294.14"/><ellipse cx="932.25" cy="310.14" fill="#ADD1B2" rx="11" ry="11" style="stroke:#181818;stroke-width:1.0;"/><path d="M935.2188,315.7806 Q934.6406,316.0775 934,316.2181 Q933.3594,316.3744 932.6563,316.3744 Q930.1563,316.3744 928.8281,314.7338 Q927.5156,313.0775 927.5156,309.9525 Q927.5156,306.8275 928.8281,305.1713 Q930.1563,303.515 932.6563,303.515 Q933.3594,303.515 934,303.6713 Q934.6563,303.8275 935.2188,304.1244 L935.2188,306.8431 Q934.5938,306.265 934,305.9994 Q933.4063,305.7181 932.7813,305.7181 Q931.4375,305.7181 930.75,306.7963 Q930.0625,307.8588 930.0625,309.9525 Q930.0625,312.0463 930.75,313.1244 Q931.4375,314.1869 932.7813,314.1869 Q933.4063,314.1869 934,313.9213 Q934.5938,313.64 935.2188,313.0619 L935.2188,315.7806 Z " fill="#000000"/><text fill="#000000" font-family="sans-serif" font-size="14" lengthAdjust="spacing" textLength="16" x="952.75" y="314.9867">Ex</text><line style="stroke:#181818;stroke-width:0.5;" x1="858" x2="1031" y1="326.14" y2="326.14"/><ellipse cx="868" cy="339.7884" fill="none" rx="3" ry="3" style="stroke:#038048;stroke-width:1.0;"/><text fill="#000000" font-family="sans-serif" font-size="14" lengthAdjust="spacing" textLength="149" x="877" y="343.1351">sentence: String[0..*]</text><line style="stroke:#181818;stroke-width:0.5;" x1="858" x2="1031" y1="350.4369" y2="350.4369"/></g><!--class Insert--><g id="elem_Insert"><rect codeLine="20" fill="#F1F1F1" height="96.8906" id="Insert" rx="2.5" ry="2.5" style="stroke:#181818;stroke-width:0.5;" width="142" x="7" y="44.85"/><ellipse cx="54.25" cy="60.85" fill="#ADD1B2" rx="11" ry="11" style="stroke:#181818;stroke-width:1.0;"/><path d="M57.2188,66.4906 Q56.6406,66.7875 56,66.9281 Q55.3594,67.0844 54.6563,67.0844 Q52.1563,67.0844 50.8281,65.4437 Q49.5156,63.7875 49.5156,60.6625 Q49.5156,57.5375 50.8281,55.8812 Q52.1563,54.225 54.6563,54.225 Q55.3594,54.225 56,54.3812 Q56.6563,54.5375 57.2188,54.8344 L57.2188,57.5531 Q56.5938,56.975 56,56.7094 Q55.4063,56.4281 54.7813,56.4281 Q53.4375,56.4281 52.75,57.5062 Q52.0625,58.5687 52.0625,60.6625 Q52.0625,62.7562 52.75,63.8344 Q53.4375,64.8969 54.7813,64.8969 Q55.4063,64.8969 56,64.6312 Q56.5938,64.35 57.2188,63.7719 L57.2188,66.4906 Z " fill="#000000"/><text fill="#000000" font-family="sans-serif" font-size="14" lengthAdjust="spacing" textLength="39" x="74.75" y="65.6967">Insert</text><line style="stroke:#181818;stroke-width:0.5;" x1="8" x2="148" y1="76.85" y2="76.85"/><ellipse cx="18" cy="90.4984" fill="none" rx="3" ry="3" style="stroke:#038048;stroke-width:1.0;"/><text fill="#000000" font-family="sans-serif" font-size="14" lengthAdjust="spacing" textLength="98" x="27" y="93.8451">count: Integer</text><ellipse cx="18" cy="106.7953" fill="none" rx="3" ry="3" style="stroke:#038048;stroke-width:1.0;"/><text fill="#000000" font-family="sans-serif" font-size="14" lengthAdjust="spacing" textLength="116" x="27" y="110.142">mode: Character</text><ellipse cx="18" cy="123.0922" fill="none" rx="3" ry="3" style="stroke:#038048;stroke-width:1.0;"/><text fill="#000000" font-family="sans-serif" font-size="14" lengthAdjust="spacing" textLength="115" x="27" y="126.4389">sentence: String</text><line style="stroke:#181818;stroke-width:0.5;" x1="8" x2="148" y1="133.7406" y2="133.7406"/></g><!--class Replace--><g id="elem_Replace"><rect codeLine="25" fill="#F1F1F1" height="80.5938" id="Replace" rx="2.5" ry="2.5" style="stroke:#181818;stroke-width:0.5;" width="141" x="209" y="146"/><ellipse cx="247.85" cy="162" fill="#ADD1B2" rx="11" ry="11" style="stroke:#181818;stroke-width:1.0;"/><path d="M250.8188,167.6406 Q250.2406,167.9375 249.6,168.0781 Q248.9594,168.2344 248.2563,168.2344 Q245.7563,168.2344 244.4281,166.5938 Q243.1156,164.9375 243.1156,161.8125 Q243.1156,158.6875 244.4281,157.0313 Q245.7563,155.375 248.2563,155.375 Q248.9594,155.375 249.6,155.5313 Q250.2563,155.6875 250.8188,155.9844 L250.8188,158.7031 Q250.1938,158.125 249.6,157.8594 Q249.0063,157.5781 248.3813,157.5781 Q247.0375,157.5781 246.35,158.6563 Q245.6625,159.7188 245.6625,161.8125 Q245.6625,163.9063 246.35,164.9844 Q247.0375,166.0469 248.3813,166.0469 Q249.0063,166.0469 249.6,165.7813 Q250.1938,165.5 250.8188,164.9219 L250.8188,167.6406 Z " fill="#000000"/><text fill="#000000" font-family="sans-serif" font-size="14" lengthAdjust="spacing" textLength="56" x="267.15" y="166.8467">Replace</text><line style="stroke:#181818;stroke-width:0.5;" x1="210" x2="349" y1="178" y2="178"/><ellipse cx="220" cy="191.6484" fill="none" rx="3" ry="3" style="stroke:#038048;stroke-width:1.0;"/><text fill="#000000" font-family="sans-serif" font-size="14" lengthAdjust="spacing" textLength="98" x="229" y="194.9951">count: Integer</text><ellipse cx="220" cy="207.9453" fill="none" rx="3" ry="3" style="stroke:#038048;stroke-width:1.0;"/><text fill="#000000" font-family="sans-serif" font-size="14" lengthAdjust="spacing" textLength="115" x="229" y="211.292">sentence: String</text><line style="stroke:#181818;stroke-width:0.5;" x1="210" x2="349" y1="218.5938" y2="218.5938"/></g><!--class SetMode--><g id="elem_SetMode"><rect codeLine="29" fill="#F1F1F1" height="96.8906" id="SetMode" rx="2.5" ry="2.5" style="stroke:#181818;stroke-width:0.5;" width="145" x="410" y="38.85"/><ellipse cx="447.95" cy="54.85" fill="#ADD1B2" rx="11" ry="11" style="stroke:#181818;stroke-width:1.0;"/><path d="M450.9188,60.4906 Q450.3406,60.7875 449.7,60.9281 Q449.0594,61.0844 448.3563,61.0844 Q445.8563,61.0844 444.5281,59.4437 Q443.2156,57.7875 443.2156,54.6625 Q443.2156,51.5375 444.5281,49.8812 Q445.8563,48.225 448.3563,48.225 Q449.0594,48.225 449.7,48.3812 Q450.3563,48.5375 450.9188,48.8344 L450.9188,51.5531 Q450.2938,50.975 449.7,50.7094 Q449.1063,50.4281 448.4813,50.4281 Q447.1375,50.4281 446.45,51.5062 Q445.7625,52.5687 445.7625,54.6625 Q445.7625,56.7562 446.45,57.8344 Q447.1375,58.8969 448.4813,58.8969 Q449.1063,58.8969 449.7,58.6312 Q450.2938,58.35 450.9188,57.7719 L450.9188,60.4906 Z " fill="#000000"/><text fill="#000000" font-family="sans-serif" font-size="14" lengthAdjust="spacing" textLength="62" x="467.05" y="59.6967">SetMode</text><line style="stroke:#181818;stroke-width:0.5;" x1="411" x2="554" y1="70.85" y2="70.85"/><ellipse cx="421" cy="84.4984" fill="none" rx="3" ry="3" style="stroke:#038048;stroke-width:1.0;"/><text fill="#000000" font-family="sans-serif" font-size="14" lengthAdjust="spacing" textLength="98" x="430" y="87.8451">count: Integer</text><ellipse cx="421" cy="100.7953" fill="none" rx="3" ry="3" style="stroke:#038048;stroke-width:1.0;"/><text fill="#000000" font-family="sans-serif" font-size="14" lengthAdjust="spacing" textLength="106" x="430" y="104.142">type: Character</text><line style="stroke:#181818;stroke-width:0.5;" x1="411" x2="554" y1="111.4437" y2="111.4437"/><ellipse cx="421" cy="125.0922" fill="#84BE84" rx="3" ry="3" style="stroke:#038048;stroke-width:1.0;"/><text fill="#000000" font-family="sans-serif" font-size="14" lengthAdjust="spacing" textLength="119" x="430" y="128.4389">clone(): SetMode</text></g><!--class CM--><g id="elem_CM"><rect codeLine="34" fill="#F1F1F1" height="80.5938" id="CM" rx="2.5" ry="2.5" style="stroke:#181818;stroke-width:0.5;" width="182" x="615" y="7"/><ellipse cx="690.75" cy="23" fill="#ADD1B2" rx="11" ry="11" style="stroke:#181818;stroke-width:1.0;"/><path d="M693.7188,28.6406 Q693.1406,28.9375 692.5,29.0781 Q691.8594,29.2344 691.1563,29.2344 Q688.6563,29.2344 687.3281,27.5938 Q686.0156,25.9375 686.0156,22.8125 Q686.0156,19.6875 687.3281,18.0313 Q688.6563,16.375 691.1563,16.375 Q691.8594,16.375 692.5,16.5313 Q693.1563,16.6875 693.7188,16.9844 L693.7188,19.7031 Q693.0938,19.125 692.5,18.8594 Q691.9063,18.5781 691.2813,18.5781 Q689.9375,18.5781 689.25,19.6563 Q688.5625,20.7188 688.5625,22.8125 Q688.5625,24.9063 689.25,25.9844 Q689.9375,27.0469 691.2813,27.0469 Q691.9063,27.0469 692.5,26.7813 Q693.0938,26.5 693.7188,25.9219 L693.7188,28.6406 Z " fill="#000000"/><text fill="#000000" font-family="sans-serif" font-size="14" lengthAdjust="spacing" textLength="22" x="711.25" y="27.8467">CM</text><line style="stroke:#181818;stroke-width:0.5;" x1="616" x2="796" y1="39" y2="39"/><ellipse cx="626" cy="52.6484" fill="none" rx="3" ry="3" style="stroke:#038048;stroke-width:1.0;"/><text fill="#000000" font-family="sans-serif" font-size="14" lengthAdjust="spacing" textLength="156" x="635" y="55.9951">movement: Movement</text><line style="stroke:#181818;stroke-width:0.5;" x1="616" x2="796" y1="63.2969" y2="63.2969"/><ellipse cx="626" cy="76.9453" fill="#84BE84" rx="3" ry="3" style="stroke:#038048;stroke-width:1.0;"/><text fill="#000000" font-family="sans-serif" font-size="14" lengthAdjust="spacing" textLength="119" x="635" y="80.292">clone(): SetMode</text></g><!--class Ctrl--><g id="elem_Ctrl"><rect codeLine="38" fill="#F1F1F1" height="80.5938" id="Ctrl" rx="2.5" ry="2.5" style="stroke:#181818;stroke-width:0.5;" width="132" x="12" y="239"/><ellipse cx="62.25" cy="255" fill="#ADD1B2" rx="11" ry="11" style="stroke:#181818;stroke-width:1.0;"/><path d="M65.2188,260.6406 Q64.6406,260.9375 64,261.0781 Q63.3594,261.2344 62.6563,261.2344 Q60.1563,261.2344 58.8281,259.5938 Q57.5156,257.9375 57.5156,254.8125 Q57.5156,251.6875 58.8281,250.0313 Q60.1563,248.375 62.6563,248.375 Q63.3594,248.375 64,248.5313 Q64.6563,248.6875 65.2188,248.9844 L65.2188,251.7031 Q64.5938,251.125 64,250.8594 Q63.4063,250.5781 62.7813,250.5781 Q61.4375,250.5781 60.75,251.6563 Q60.0625,252.7188 60.0625,254.8125 Q60.0625,256.9063 60.75,257.9844 Q61.4375,259.0469 62.7813,259.0469 Q63.4063,259.0469 64,258.7813 Q64.5938,258.5 65.2188,257.9219 L65.2188,260.6406 Z " fill="#000000"/><text fill="#000000" font-family="sans-serif" font-size="14" lengthAdjust="spacing" textLength="23" x="82.75" y="259.8467">Ctrl</text><line style="stroke:#181818;stroke-width:0.5;" x1="13" x2="143" y1="271" y2="271"/><ellipse cx="23" cy="284.6484" fill="none" rx="3" ry="3" style="stroke:#038048;stroke-width:1.0;"/><text fill="#000000" font-family="sans-serif" font-size="14" lengthAdjust="spacing" textLength="98" x="32" y="287.9951">count: Integer</text><ellipse cx="23" cy="300.9453" fill="none" rx="3" ry="3" style="stroke:#038048;stroke-width:1.0;"/><text fill="#000000" font-family="sans-serif" font-size="14" lengthAdjust="spacing" textLength="106" x="32" y="304.292">type: Character</text><line style="stroke:#181818;stroke-width:0.5;" x1="13" x2="143" y1="311.5938" y2="311.5938"/></g><!--class Search--><g id="elem_Search"><rect codeLine="42" fill="#F1F1F1" height="80.5938" id="Search" rx="2.5" ry="2.5" style="stroke:#181818;stroke-width:0.5;" width="132" x="640" y="379"/><ellipse cx="678.4" cy="395" fill="#ADD1B2" rx="11" ry="11" style="stroke:#181818;stroke-width:1.0;"/><path d="M681.3688,400.6406 Q680.7906,400.9375 680.15,401.0781 Q679.5094,401.2344 678.8063,401.2344 Q676.3063,401.2344 674.9781,399.5937 Q673.6656,397.9375 673.6656,394.8125 Q673.6656,391.6875 674.9781,390.0312 Q676.3063,388.375 678.8063,388.375 Q679.5094,388.375 680.15,388.5312 Q680.8063,388.6875 681.3688,388.9844 L681.3688,391.7031 Q680.7438,391.125 680.15,390.8594 Q679.5563,390.5781 678.9313,390.5781 Q677.5875,390.5781 676.9,391.6562 Q676.2125,392.7187 676.2125,394.8125 Q676.2125,396.9062 676.9,397.9844 Q677.5875,399.0469 678.9313,399.0469 Q679.5563,399.0469 680.15,398.7812 Q680.7438,398.5 681.3688,397.9219 L681.3688,400.6406 Z " fill="#000000"/><text fill="#000000" font-family="sans-serif" font-size="14" lengthAdjust="spacing" textLength="48" x="697.6" y="399.8467">Search</text><line style="stroke:#181818;stroke-width:0.5;" x1="641" x2="771" y1="411" y2="411"/><ellipse cx="651" cy="424.6484" fill="none" rx="3" ry="3" style="stroke:#038048;stroke-width:1.0;"/><text fill="#000000" font-family="sans-serif" font-size="14" lengthAdjust="spacing" textLength="97" x="660" y="427.9951">needle: String</text><ellipse cx="651" cy="440.9453" fill="none" rx="3" ry="3" style="stroke:#038048;stroke-width:1.0;"/><text fill="#000000" font-family="sans-serif" font-size="14" lengthAdjust="spacing" textLength="106" x="660" y="444.292">type: Character</text><line style="stroke:#181818;stroke-width:0.5;" x1="641" x2="771" y1="451.5937" y2="451.5937"/></g><!--class Macro--><g id="elem_Macro"><rect codeLine="46" fill="#F1F1F1" height="96.8906" id="Macro" rx="2.5" ry="2.5" style="stroke:#181818;stroke-width:0.5;" width="132" x="213.5" y="331.85"/><ellipse cx="254.6" cy="347.85" fill="#ADD1B2" rx="11" ry="11" style="stroke:#181818;stroke-width:1.0;"/><path d="M257.5688,353.4906 Q256.9906,353.7875 256.35,353.9281 Q255.7094,354.0844 255.0063,354.0844 Q252.5063,354.0844 251.1781,352.4437 Q249.8656,350.7875 249.8656,347.6625 Q249.8656,344.5375 251.1781,342.8812 Q252.5063,341.225 255.0063,341.225 Q255.7094,341.225 256.35,341.3812 Q257.0063,341.5375 257.5688,341.8344 L257.5688,344.5531 Q256.9438,343.975 256.35,343.7094 Q255.7563,343.4281 255.1313,343.4281 Q253.7875,343.4281 253.1,344.5062 Q252.4125,345.5687 252.4125,347.6625 Q252.4125,349.7562 253.1,350.8344 Q253.7875,351.8969 255.1313,351.8969 Q255.7563,351.8969 256.35,351.6312 Q256.9438,351.35 257.5688,350.7719 L257.5688,353.4906 Z " fill="#000000"/><text fill="#000000" font-family="sans-serif" font-size="14" lengthAdjust="spacing" textLength="42" x="274.4" y="352.6967">Macro</text><line style="stroke:#181818;stroke-width:0.5;" x1="214.5" x2="344.5" y1="363.85" y2="363.85"/><ellipse cx="224.5" cy="377.4984" fill="none" rx="3" ry="3" style="stroke:#038048;stroke-width:1.0;"/><text fill="#000000" font-family="sans-serif" font-size="14" lengthAdjust="spacing" textLength="98" x="233.5" y="380.8451">count: Integer</text><ellipse cx="224.5" cy="393.7953" fill="none" rx="3" ry="3" style="stroke:#038048;stroke-width:1.0;"/><text fill="#000000" font-family="sans-serif" font-size="14" lengthAdjust="spacing" textLength="99" x="233.5" y="397.142">reg: Character</text><ellipse cx="224.5" cy="410.0922" fill="none" rx="3" ry="3" style="stroke:#038048;stroke-width:1.0;"/><text fill="#000000" font-family="sans-serif" font-size="14" lengthAdjust="spacing" textLength="106" x="233.5" y="413.4389">type: Character</text><line style="stroke:#181818;stroke-width:0.5;" x1="214.5" x2="344.5" y1="420.7406" y2="420.7406"/></g><!--link SetMode to Command--><g id="link_SetMode_Command"><path codeLine="51" d="M482.5,135.81 C482.5,160.22 482.5,166.64 482.5,191.05 " fill="none" id="SetMode-to-Command" style="stroke:#181818;stroke-width:1.0;"/><polygon fill="none" points="482.5,209.05,488.5,191.05,476.5,191.05,482.5,209.05" style="stroke:#181818;stroke-width:1.0;"/></g><!--reverse link SetMode to CM--><g id="link_SetMode_CM"><path codeLine="52" d="M573.1222,71.104 C592.0722,67.674 595.05,67.15 614.83,63.58 " fill="none" id="SetMode-backto-CM" style="stroke:#181818;stroke-width:1.0;"/><polygon fill="none" points="555.41,74.31,574.1908,77.0081,572.0535,65.2,555.41,74.31" style="stroke:#181818;stroke-width:1.0;"/></g><!--reverse link Command to Normal--><g id="link_Command_Normal"><path codeLine="53" d="M482.5,275.35 C482.5,286.7 482.5,280.04 482.5,291.39 " fill="none" id="Command-backto-Normal" style="stroke:#181818;stroke-width:1.0;"/><polygon fill="none" points="482.5,257.35,476.5,275.35,488.5,275.35,482.5,257.35" style="stroke:#181818;stroke-width:1.0;"/></g><!--reverse link Command to Movement--><g id="link_Command_Movement"><path codeLine="54" d="M545.5649,200.9524 C570.2649,188.8924 585.47,183.17 615,175.29 C703.25,151.74 808.82,143.95 876.02,141.42 " fill="none" id="Command-backto-Movement" style="stroke:#181818;stroke-width:1.0;"/><polygon fill="none" points="529.39,208.85,548.1975,206.3441,542.9324,195.5608,529.39,208.85" style="stroke:#181818;stroke-width:1.0;"/></g><!--reverse link Command to ComboNM--><g id="link_Command_ComboNM"><path codeLine="55" d="M552.32,233.29 C576.2,233.29 587.41,233.29 614.86,233.29 " fill="none" id="Command-backto-ComboNM" style="stroke:#181818;stroke-width:1.0;"/><polygon fill="none" points="534.32,233.29,552.32,239.29,552.32,227.29,534.32,233.29" style="stroke:#181818;stroke-width:1.0;"/></g><!--link Ctrl to Command--><g id="link_Ctrl_Command"><path codeLine="56" d="M144.12,271.85 C223.99,262.72 339.8464,249.4841 412.6364,241.1641 " fill="none" id="Ctrl-to-Command" style="stroke:#181818;stroke-width:1.0;"/><polygon fill="none" points="430.52,239.12,411.9551,235.2029,413.3178,247.1253,430.52,239.12" style="stroke:#181818;stroke-width:1.0;"/></g><!--link Replace to Command--><g id="link_Replace_Command"><path codeLine="57" d="M350.24,202.6 C376.65,208.78 388.683,211.5905 413.053,217.2905 " fill="none" id="Replace-to-Command" style="stroke:#181818;stroke-width:1.0;"/><polygon fill="none" points="430.58,221.39,414.4195,211.4482,411.6866,223.1329,430.58,221.39" style="stroke:#181818;stroke-width:1.0;"/></g><!--link Insert to Command--><g id="link_Insert_Command"><path codeLine="58" d="M149.35,92.11 C205.7,93.54 285.69,101.02 350,128.29 C393.84,146.89 422.5731,171.5026 446.8131,196.2826 " fill="none" id="Insert-to-Command" style="stroke:#181818;stroke-width:1.0;"/><polygon fill="none" points="459.4,209.15,451.1022,192.087,442.5239,200.4783,459.4,209.15" style="stroke:#181818;stroke-width:1.0;"/></g><!--reverse link Command to Search--><g id="link_Command_Search"><path codeLine="59" d="M547.4744,267.2273 C555.4644,272.1973 548.1,268.27 555,274.29 C587.94,303.06 583.83,321.61 615,352.29 C624.3,361.45 634.9,370.4 645.48,378.63 " fill="none" id="Command-backto-Search" style="stroke:#181818;stroke-width:1.0;"/><polygon fill="none" points="532.19,257.72,544.3053,272.3221,550.6434,262.1325,532.19,257.72" style="stroke:#181818;stroke-width:1.0;"/></g><!--link Macro to Command--><g id="link_Macro_Command"><path codeLine="60" d="M335.98,331.49 C358.33,312.74 384.76,291.68 410,274.29 C418.25,268.61 411.8107,272.0887 420.6607,266.8887 " fill="none" id="Macro-to-Command" style="stroke:#181818;stroke-width:1.0;"/><polygon fill="none" points="436.18,257.77,417.6211,261.7156,423.7002,272.0618,436.18,257.77" style="stroke:#181818;stroke-width:1.0;"/></g><!--reverse link Command to Ex--><g id="link_Command_Ex"><path codeLine="61" d="M545.5649,265.6276 C570.2649,277.6876 585.47,283.41 615,291.29 C695.21,312.7 789.74,321.09 856.75,324.34 " fill="none" id="Command-backto-Ex" style="stroke:#181818;stroke-width:1.0;"/><polygon fill="none" points="529.39,257.73,542.9324,271.0192,548.1975,260.2359,529.39,257.73" style="stroke:#181818;stroke-width:1.0;"/></g><!--SRC=[ZL8xJyCm4DxzAsxaeLRC4MAfEdH81peY1jSvaWW_AkT0HId_7IUE7KSaLKT_kkzndq_Y1m4Pi7LP4HIrHK6rqOmV6x9S46oCKbmNxIyJaZSDx8rLNBOCu56OBqqPx3HXYRP3wEU46Mmgtb4zL73YAHHqSlED2ZNThjGWViufkOH7iyzx8TsdouQK7Q86domwHkBst7fTPwk5ipkGhNNvzhHUFxp7gPrkq2x5LARu7tCg5uLUyIIvm0MbHTe1ANSkCCE3XQQ4D1hlxhF07QlAlSnCALTfP2NS-55ZR6v5vLaQiP3ZPbTOEHVMBAvgiKn8C2yK-bfTNiBnHkpvibgv4jY0T-zmAWdaPc8jAHmkZVLzkB74OVXSI45W_dQcep3Lz3qnl_X4SffeU_u3]--></g></svg>