<?xml version="1.0" encoding="us-ascii" standalone="no"?><svg xmlns="http://www.w3.org/2000/svg" xmlns:xlink="http://www.w3.org/1999/xlink" contentStyleType="text/css" height="557px" preserveAspectRatio="none" style="width:1425px;height:557px;background:#FFFFFF;" version="1.1" viewBox="0 0 1425 557" width="1425px" zoomAndPan="magnify"><defs/><g><!--class Keyboard--><g id="elem_Keyboard"><rect codeLine="1" fill="#F1F1F1" height="80.5938" id="Keyboard" rx="2.5" ry="2.5" style="stroke:#181818;stroke-width:0.5;" width="206" x="77.5" y="51.86"/><ellipse cx="143.75" cy="67.86" fill="#ADD1B2" rx="11" ry="11" style="stroke:#181818;stroke-width:1.0;"/><path d="M146.7188,73.5006 Q146.1406,73.7975 145.5,73.9381 Q144.8594,74.0944 144.1563,74.0944 Q141.6563,74.0944 140.3281,72.4538 Q139.0156,70.7975 139.0156,67.6725 Q139.0156,64.5475 140.3281,62.8913 Q141.6563,61.235 144.1563,61.235 Q144.8594,61.235 145.5,61.3913 Q146.1563,61.5475 146.7188,61.8444 L146.7188,64.5631 Q146.0938,63.985 145.5,63.7194 Q144.9063,63.4381 144.2813,63.4381 Q142.9375,63.4381 142.25,64.5163 Q141.5625,65.5788 141.5625,67.6725 Q141.5625,69.7663 142.25,70.8444 Q142.9375,71.9069 144.2813,71.9069 Q144.9063,71.9069 145.5,71.6413 Q146.0938,71.36 146.7188,70.7819 L146.7188,73.5006 Z " fill="#000000"/><text fill="#000000" font-family="sans-serif" font-size="14" lengthAdjust="spacing" textLength="65" x="164.25" y="72.7067">Keyboard</text><line style="stroke:#181818;stroke-width:0.5;" x1="78.5" x2="282.5" y1="83.86" y2="83.86"/><line style="stroke:#181818;stroke-width:0.5;" x1="78.5" x2="282.5" y1="91.86" y2="91.86"/><ellipse cx="88.5" cy="105.5084" fill="#84BE84" rx="3" ry="3" style="stroke:#038048;stroke-width:1.0;"/><text fill="#000000" font-family="sans-serif" font-size="14" lengthAdjust="spacing" textLength="77" x="97.5" y="108.8551">next(): void</text><ellipse cx="88.5" cy="121.8053" fill="#84BE84" rx="3" ry="3" style="stroke:#038048;stroke-width:1.0;"/><text fill="#000000" font-family="sans-serif" font-size="14" lengthAdjust="spacing" textLength="180" x="97.5" y="125.152">getKeystroke(): Keystroke</text></g><!--class Resetable--><g id="elem_Resetable"><rect codeLine="5" fill="#F1F1F1" height="80.5938" id="Resetable" rx="2.5" ry="2.5" style="stroke:#181818;stroke-width:0.5;" width="132" x="498" y="254.86"/><ellipse cx="526.5" cy="270.86" fill="#ADD1B2" rx="11" ry="11" style="stroke:#181818;stroke-width:1.0;"/><path d="M529.4688,276.5006 Q528.8906,276.7975 528.25,276.9381 Q527.6094,277.0944 526.9063,277.0944 Q524.4063,277.0944 523.0781,275.4538 Q521.7656,273.7975 521.7656,270.6725 Q521.7656,267.5475 523.0781,265.8913 Q524.4063,264.235 526.9063,264.235 Q527.6094,264.235 528.25,264.3913 Q528.9063,264.5475 529.4688,264.8444 L529.4688,267.5631 Q528.8438,266.985 528.25,266.7194 Q527.6563,266.4381 527.0313,266.4381 Q525.6875,266.4381 525,267.5163 Q524.3125,268.5788 524.3125,270.6725 Q524.3125,272.7663 525,273.8444 Q525.6875,274.9069 527.0313,274.9069 Q527.6563,274.9069 528.25,274.6413 Q528.8438,274.36 529.4688,273.7819 L529.4688,276.5006 Z " fill="#000000"/><text fill="#000000" font-family="sans-serif" font-size="14" lengthAdjust="spacing" textLength="70" x="543.5" y="275.7067">Resetable</text><line style="stroke:#181818;stroke-width:0.5;" x1="499" x2="629" y1="286.86" y2="286.86"/><line style="stroke:#181818;stroke-width:0.5;" x1="499" x2="629" y1="294.86" y2="294.86"/><rect fill="#F24D5C" height="6" style="stroke:#C82930;stroke-width:1.0;" width="6" x="506" y="305.5084"/><text fill="#000000" font-family="sans-serif" font-size="14" lengthAdjust="spacing" textLength="106" x="518" y="311.8551">doReset(): void</text><ellipse cx="509" cy="324.8053" fill="#84BE84" rx="3" ry="3" style="stroke:#038048;stroke-width:1.0;"/><text fill="#000000" font-family="sans-serif" font-size="14" lengthAdjust="spacing" textLength="83" x="518" y="328.152">reset(): void</text></g><!--class KeyType--><g id="elem_KeyType"><rect codeLine="10" fill="#F1F1F1" height="64.2969" id="KeyType" rx="2.5" ry="2.5" style="stroke:#181818;stroke-width:0.5;" width="223" x="808.5" y="60"/><ellipse cx="886.25" cy="76" fill="#EB937F" rx="11" ry="11" style="stroke:#181818;stroke-width:1.0;"/><path d="M890.3594,82 L882.6406,82 L882.6406,69.6094 L890.3594,69.6094 L890.3594,71.7656 L885.0938,71.7656 L885.0938,74.4375 L889.8594,74.4375 L889.8594,76.5938 L885.0938,76.5938 L885.0938,79.8438 L890.3594,79.8438 L890.3594,82 Z " fill="#000000"/><text fill="#000000" font-family="sans-serif" font-size="14" lengthAdjust="spacing" textLength="59" x="906.75" y="80.8467">KeyType</text><line style="stroke:#181818;stroke-width:0.5;" x1="809.5" x2="1030.5" y1="92" y2="92"/><text fill="#000000" font-family="sans-serif" font-size="14" lengthAdjust="spacing" textLength="211" x="814.5" y="108.9951">Esc, Plain, Ctrl, Del, Backspace</text><line style="stroke:#181818;stroke-width:0.5;" x1="809.5" x2="1030.5" y1="116.2969" y2="116.2969"/></g><!--class Keystroke--><g id="elem_Keystroke"><rect codeLine="13" fill="#F1F1F1" height="80.5938" id="Keystroke" rx="2.5" ry="2.5" style="stroke:#181818;stroke-width:0.5;" width="132" x="498" y="51.86"/><ellipse cx="526.95" cy="67.86" fill="#ADD1B2" rx="11" ry="11" style="stroke:#181818;stroke-width:1.0;"/><path d="M529.9188,73.5006 Q529.3406,73.7975 528.7,73.9381 Q528.0594,74.0944 527.3563,74.0944 Q524.8563,74.0944 523.5281,72.4538 Q522.2156,70.7975 522.2156,67.6725 Q522.2156,64.5475 523.5281,62.8913 Q524.8563,61.235 527.3563,61.235 Q528.0594,61.235 528.7,61.3913 Q529.3563,61.5475 529.9188,61.8444 L529.9188,64.5631 Q529.2938,63.985 528.7,63.7194 Q528.1063,63.4381 527.4813,63.4381 Q526.1375,63.4381 525.45,64.5163 Q524.7625,65.5788 524.7625,67.6725 Q524.7625,69.7663 525.45,70.8444 Q526.1375,71.9069 527.4813,71.9069 Q528.1063,71.9069 528.7,71.6413 Q529.2938,71.36 529.9188,70.7819 L529.9188,73.5006 Z " fill="#000000"/><text fill="#000000" font-family="sans-serif" font-size="14" lengthAdjust="spacing" textLength="69" x="544.05" y="72.7067">Keystroke</text><line style="stroke:#181818;stroke-width:0.5;" x1="499" x2="629" y1="83.86" y2="83.86"/><ellipse cx="509" cy="97.5084" fill="none" rx="3" ry="3" style="stroke:#038048;stroke-width:1.0;"/><text fill="#000000" font-family="sans-serif" font-size="14" lengthAdjust="spacing" textLength="98" x="518" y="100.8551">count: Integer</text><ellipse cx="509" cy="113.8053" fill="none" rx="3" ry="3" style="stroke:#038048;stroke-width:1.0;"/><text fill="#000000" font-family="sans-serif" font-size="14" lengthAdjust="spacing" textLength="106" x="518" y="117.152">data: Character</text><line style="stroke:#181818;stroke-width:0.5;" x1="499" x2="629" y1="124.4538" y2="124.4538"/></g><!--class Subject<KeyStroke, KeystrokeSource>--><g id="elem_Subject&lt;KeyStroke, KeystrokeSource&gt;"><rect codeLine="17" fill="#F1F1F1" height="80.5938" id="Subject&lt;KeyStroke, KeystrokeSource&gt;" rx="2.5" ry="2.5" style="stroke:#181818;stroke-width:0.5;" width="343" x="9" y="265.86"/><ellipse cx="41.55" cy="281.86" fill="#A9DCDF" rx="11" ry="11" style="stroke:#181818;stroke-width:1.0;"/><path d="M41.6594,277.2038 L40.5031,282.2819 L42.8313,282.2819 L41.6594,277.2038 Z M40.175,274.9694 L43.1594,274.9694 L46.5188,287.36 L44.0656,287.36 L43.3,284.2975 L40.0188,284.2975 L39.2688,287.36 L36.8313,287.36 L40.175,274.9694 Z " fill="#000000"/><text fill="#000000" font-family="sans-serif" font-size="14" font-style="italic" lengthAdjust="spacing" textLength="272" x="59.45" y="286.7067">Subject&lt;KeyStroke, KeystrokeSource&gt;</text><line style="stroke:#181818;stroke-width:0.5;" x1="10" x2="351" y1="297.86" y2="297.86"/><line style="stroke:#181818;stroke-width:0.5;" x1="10" x2="351" y1="305.86" y2="305.86"/><ellipse cx="20" cy="319.5084" fill="#84BE84" rx="3" ry="3" style="stroke:#038048;stroke-width:1.0;"/><text fill="#000000" font-family="sans-serif" font-size="14" lengthAdjust="spacing" textLength="317" x="29" y="322.8551">attach(consumer: KeystrokeConsumer*): void</text><ellipse cx="20" cy="335.8053" fill="#84BE84" rx="3" ry="3" style="stroke:#038048;stroke-width:1.0;"/><text fill="#000000" font-family="sans-serif" font-size="14" lengthAdjust="spacing" textLength="99" x="29" y="339.152">notifyAll(): void</text></g><!--class KeystrokeSource--><g id="elem_KeystrokeSource"><rect codeLine="21" fill="#F1F1F1" height="64.2969" id="KeystrokeSource" rx="2.5" ry="2.5" style="stroke:#181818;stroke-width:0.5;" width="206" x="77.5" y="167"/><ellipse cx="117.7" cy="183" fill="#A9DCDF" rx="11" ry="11" style="stroke:#181818;stroke-width:1.0;"/><path d="M117.8094,178.3438 L116.6531,183.4219 L118.9813,183.4219 L117.8094,178.3438 Z M116.325,176.1094 L119.3094,176.1094 L122.6688,188.5 L120.2156,188.5 L119.45,185.4375 L116.1688,185.4375 L115.4188,188.5 L112.9813,188.5 L116.325,176.1094 Z " fill="#000000"/><text fill="#000000" font-family="sans-serif" font-size="14" font-style="italic" lengthAdjust="spacing" textLength="118" x="137.3" y="187.8467">KeystrokeSource</text><line style="stroke:#181818;stroke-width:0.5;" x1="78.5" x2="282.5" y1="199" y2="199"/><line style="stroke:#181818;stroke-width:0.5;" x1="78.5" x2="282.5" y1="207" y2="207"/><ellipse cx="88.5" cy="220.6484" fill="#84BE84" rx="3" ry="3" style="stroke:#038048;stroke-width:1.0;"/><text fill="#000000" font-family="sans-serif" font-size="14" font-style="italic" lengthAdjust="spacing" textLength="180" x="97.5" y="223.9951">getKeystroke(): Keystroke</text></g><!--class KeystrokeConsumer--><g id="elem_KeystrokeConsumer"><rect codeLine="27" fill="#F1F1F1" height="80.5938" id="KeystrokeConsumer" rx="2.5" ry="2.5" style="stroke:#181818;stroke-width:0.5;" width="292" x="774" y="158.86"/><ellipse cx="845.25" cy="174.86" fill="#A9DCDF" rx="11" ry="11" style="stroke:#181818;stroke-width:1.0;"/><path d="M845.3594,170.2038 L844.2031,175.2819 L846.5313,175.2819 L845.3594,170.2038 Z M843.875,167.9694 L846.8594,167.9694 L850.2188,180.36 L847.7656,180.36 L847,177.2975 L843.7188,177.2975 L842.9688,180.36 L840.5313,180.36 L843.875,167.9694 Z " fill="#000000"/><text fill="#000000" font-family="sans-serif" font-size="14" font-style="italic" lengthAdjust="spacing" textLength="141" x="865.75" y="179.7067">KeystrokeConsumer</text><line style="stroke:#181818;stroke-width:0.5;" x1="775" x2="1065" y1="190.86" y2="190.86"/><line style="stroke:#181818;stroke-width:0.5;" x1="775" x2="1065" y1="198.86" y2="198.86"/><ellipse cx="785" cy="212.5084" fill="#84BE84" rx="3" ry="3" style="stroke:#038048;stroke-width:1.0;"/><text fill="#000000" font-family="sans-serif" font-size="14" font-style="italic" lengthAdjust="spacing" textLength="214" x="794" y="215.8551">consume(key: Keystroke): void</text><ellipse cx="785" cy="228.8053" fill="#84BE84" rx="3" ry="3" style="stroke:#038048;stroke-width:1.0;"/><text fill="#000000" font-family="sans-serif" font-size="14" font-style="italic" lengthAdjust="spacing" textLength="266" x="794" y="232.152">notify(source: KeystrokeSource*): void</text></g><!--class Mode--><g id="elem_Mode"><rect codeLine="44" fill="#F1F1F1" height="64.2969" id="Mode" rx="2.5" ry="2.5" style="stroke:#181818;stroke-width:0.5;" width="240" x="1152" y="221"/><ellipse cx="1248.25" cy="237" fill="#ADD1B2" rx="11" ry="11" style="stroke:#181818;stroke-width:1.0;"/><path d="M1251.2188,242.6406 Q1250.6406,242.9375 1250,243.0781 Q1249.3594,243.2344 1248.6563,243.2344 Q1246.1563,243.2344 1244.8281,241.5938 Q1243.5156,239.9375 1243.5156,236.8125 Q1243.5156,233.6875 1244.8281,232.0313 Q1246.1563,230.375 1248.6563,230.375 Q1249.3594,230.375 1250,230.5313 Q1250.6563,230.6875 1251.2188,230.9844 L1251.2188,233.7031 Q1250.5938,233.125 1250,232.8594 Q1249.4063,232.5781 1248.7813,232.5781 Q1247.4375,232.5781 1246.75,233.6563 Q1246.0625,234.7188 1246.0625,236.8125 Q1246.0625,238.9063 1246.75,239.9844 Q1247.4375,241.0469 1248.7813,241.0469 Q1249.4063,241.0469 1250,240.7813 Q1250.5938,240.5 1251.2188,239.9219 L1251.2188,242.6406 Z " fill="#000000"/><text fill="#000000" font-family="sans-serif" font-size="14" lengthAdjust="spacing" textLength="39" x="1268.75" y="241.8467">Mode</text><line style="stroke:#181818;stroke-width:0.5;" x1="1153" x2="1391" y1="253" y2="253"/><line style="stroke:#181818;stroke-width:0.5;" x1="1153" x2="1391" y1="261" y2="261"/><ellipse cx="1163" cy="274.6484" fill="#84BE84" rx="3" ry="3" style="stroke:#038048;stroke-width:1.0;"/><text fill="#000000" font-family="sans-serif" font-size="14" lengthAdjust="spacing" textLength="214" x="1172" y="277.9951">consume(key: Keystroke): void</text></g><!--class CommandParser<CT>--><g id="elem_CommandParser&lt;CT&gt;"><rect codeLine="33" fill="#F1F1F1" height="48" id="CommandParser&lt;CT&gt;" rx="2.5" ry="2.5" style="stroke:#181818;stroke-width:0.5;" width="190" x="825" y="357.15"/><ellipse cx="840" cy="373.15" fill="#A9DCDF" rx="11" ry="11" style="stroke:#181818;stroke-width:1.0;"/><path d="M840.1094,368.4938 L838.9531,373.5719 L841.2813,373.5719 L840.1094,368.4938 Z M838.625,366.2594 L841.6094,366.2594 L844.9688,378.65 L842.5156,378.65 L841.75,375.5875 L838.4688,375.5875 L837.7188,378.65 L835.2813,378.65 L838.625,366.2594 Z " fill="#000000"/><text fill="#000000" font-family="sans-serif" font-size="14" font-style="italic" lengthAdjust="spacing" textLength="158" x="854" y="377.9967">CommandParser&lt;CT&gt;</text><line style="stroke:#181818;stroke-width:0.5;" x1="826" x2="1014" y1="389.15" y2="389.15"/><line style="stroke:#181818;stroke-width:0.5;" x1="826" x2="1014" y1="397.15" y2="397.15"/></g><!--class ModeManager--><g id="elem_ModeManager"><rect codeLine="34" fill="#F1F1F1" height="80.5938" id="ModeManager" rx="2.5" ry="2.5" style="stroke:#181818;stroke-width:0.5;" width="292" x="1126" y="105.86"/><ellipse cx="1218.25" cy="121.86" fill="#ADD1B2" rx="11" ry="11" style="stroke:#181818;stroke-width:1.0;"/><path d="M1221.2188,127.5006 Q1220.6406,127.7975 1220,127.9381 Q1219.3594,128.0944 1218.6563,128.0944 Q1216.1563,128.0944 1214.8281,126.4538 Q1213.5156,124.7975 1213.5156,121.6725 Q1213.5156,118.5475 1214.8281,116.8913 Q1216.1563,115.235 1218.6563,115.235 Q1219.3594,115.235 1220,115.3913 Q1220.6563,115.5475 1221.2188,115.8444 L1221.2188,118.5631 Q1220.5938,117.985 1220,117.7194 Q1219.4063,117.4381 1218.7813,117.4381 Q1217.4375,117.4381 1216.75,118.5163 Q1216.0625,119.5788 1216.0625,121.6725 Q1216.0625,123.7663 1216.75,124.8444 Q1217.4375,125.9069 1218.7813,125.9069 Q1219.4063,125.9069 1220,125.6413 Q1220.5938,125.36 1221.2188,124.7819 L1221.2188,127.5006 Z " fill="#000000"/><text fill="#000000" font-family="sans-serif" font-size="14" lengthAdjust="spacing" textLength="99" x="1238.75" y="126.7067">ModeManager</text><line style="stroke:#181818;stroke-width:0.5;" x1="1127" x2="1417" y1="137.86" y2="137.86"/><line style="stroke:#181818;stroke-width:0.5;" x1="1127" x2="1417" y1="145.86" y2="145.86"/><ellipse cx="1137" cy="159.5084" fill="#84BE84" rx="3" ry="3" style="stroke:#038048;stroke-width:1.0;"/><text fill="#000000" font-family="sans-serif" font-size="14" lengthAdjust="spacing" textLength="214" x="1146" y="162.8551">consume(key: Keystroke): void</text><ellipse cx="1137" cy="175.8053" fill="#84BE84" rx="3" ry="3" style="stroke:#038048;stroke-width:1.0;"/><text fill="#000000" font-family="sans-serif" font-size="14" lengthAdjust="spacing" textLength="266" x="1146" y="179.152">notify(source: KeystrokeSource*): void</text></g><!--class InsertReflector--><g id="elem_InsertReflector"><rect codeLine="38" fill="#F1F1F1" height="48" id="InsertReflector" rx="2.5" ry="2.5" style="stroke:#181818;stroke-width:0.5;" width="133" x="853.5" y="440.15"/><ellipse cx="868.5" cy="456.15" fill="#ADD1B2" rx="11" ry="11" style="stroke:#181818;stroke-width:1.0;"/><path d="M871.4688,461.7906 Q870.8906,462.0875 870.25,462.2281 Q869.6094,462.3844 868.9063,462.3844 Q866.4063,462.3844 865.0781,460.7438 Q863.7656,459.0875 863.7656,455.9625 Q863.7656,452.8375 865.0781,451.1813 Q866.4063,449.525 868.9063,449.525 Q869.6094,449.525 870.25,449.6813 Q870.9063,449.8375 871.4688,450.1344 L871.4688,452.8531 Q870.8438,452.275 870.25,452.0094 Q869.6563,451.7281 869.0313,451.7281 Q867.6875,451.7281 867,452.8063 Q866.3125,453.8688 866.3125,455.9625 Q866.3125,458.0563 867,459.1344 Q867.6875,460.1969 869.0313,460.1969 Q869.6563,460.1969 870.25,459.9313 Q870.8438,459.65 871.4688,459.0719 L871.4688,461.7906 Z " fill="#000000"/><text fill="#000000" font-family="sans-serif" font-size="14" lengthAdjust="spacing" textLength="101" x="882.5" y="460.9967">InsertReflector</text><line style="stroke:#181818;stroke-width:0.5;" x1="854.5" x2="985.5" y1="472.15" y2="472.15"/><line style="stroke:#181818;stroke-width:0.5;" x1="854.5" x2="985.5" y1="480.15" y2="480.15"/></g><!--class ModeType--><g id="elem_ModeType"><rect codeLine="40" fill="#F1F1F1" height="64.2969" id="ModeType" rx="2.5" ry="2.5" style="stroke:#181818;stroke-width:0.5;" width="195" x="1174.5" y="7"/><ellipse cx="1231.25" cy="23" fill="#EB937F" rx="11" ry="11" style="stroke:#181818;stroke-width:1.0;"/><path d="M1235.3594,29 L1227.6406,29 L1227.6406,16.6094 L1235.3594,16.6094 L1235.3594,18.7656 L1230.0938,18.7656 L1230.0938,21.4375 L1234.8594,21.4375 L1234.8594,23.5938 L1230.0938,23.5938 L1230.0938,26.8438 L1235.3594,26.8438 L1235.3594,29 Z " fill="#000000"/><text fill="#000000" font-family="sans-serif" font-size="14" lengthAdjust="spacing" textLength="73" x="1251.75" y="27.8467">ModeType</text><line style="stroke:#181818;stroke-width:0.5;" x1="1175.5" x2="1368.5" y1="39" y2="39"/><text fill="#000000" font-family="sans-serif" font-size="14" lengthAdjust="spacing" textLength="183" x="1180.5" y="55.9951">Normal, Insert, Replace, Ex</text><line style="stroke:#181818;stroke-width:0.5;" x1="1175.5" x2="1368.5" y1="63.2969" y2="63.2969"/></g><!--class BaseCommandParser--><g id="elem_BaseCommandParser"><rect codeLine="49" fill="#F1F1F1" height="48" id="BaseCommandParser" rx="2.5" ry="2.5" style="stroke:#181818;stroke-width:0.5;" width="182" x="829" y="274.15"/><ellipse cx="844" cy="290.15" fill="#A9DCDF" rx="11" ry="11" style="stroke:#181818;stroke-width:1.0;"/><path d="M844.1094,285.4938 L842.9531,290.5719 L845.2813,290.5719 L844.1094,285.4938 Z M842.625,283.2594 L845.6094,283.2594 L848.9688,295.65 L846.5156,295.65 L845.75,292.5875 L842.4688,292.5875 L841.7188,295.65 L839.2813,295.65 L842.625,283.2594 Z " fill="#000000"/><text fill="#000000" font-family="sans-serif" font-size="14" font-style="italic" lengthAdjust="spacing" textLength="150" x="858" y="294.9967">BaseCommandParser</text><line style="stroke:#181818;stroke-width:0.5;" x1="830" x2="1010" y1="306.15" y2="306.15"/><line style="stroke:#181818;stroke-width:0.5;" x1="830" x2="1010" y1="314.15" y2="314.15"/></g><!--class CommandSource<CT>--><g id="elem_CommandSource&lt;CT&gt;"><rect codeLine="50" fill="#F1F1F1" height="48" id="CommandSource&lt;CT&gt;" rx="2.5" ry="2.5" style="stroke:#181818;stroke-width:0.5;" width="195" x="466.5" y="486.15"/><ellipse cx="481.5" cy="502.15" fill="#A9DCDF" rx="11" ry="11" style="stroke:#181818;stroke-width:1.0;"/><path d="M481.6094,497.4938 L480.4531,502.5719 L482.7813,502.5719 L481.6094,497.4938 Z M480.125,495.2594 L483.1094,495.2594 L486.4688,507.65 L484.0156,507.65 L483.25,504.5875 L479.9688,504.5875 L479.2188,507.65 L476.7813,507.65 L480.125,495.2594 Z " fill="#000000"/><text fill="#000000" font-family="sans-serif" font-size="14" font-style="italic" lengthAdjust="spacing" textLength="163" x="495.5" y="506.9967">CommandSource&lt;CT&gt;</text><line style="stroke:#181818;stroke-width:0.5;" x1="467.5" x2="660.5" y1="518.15" y2="518.15"/><line style="stroke:#181818;stroke-width:0.5;" x1="467.5" x2="660.5" y1="526.15" y2="526.15"/></g><!--class CommandRunner<CT>--><g id="elem_CommandRunner&lt;CT&gt;"><rect codeLine="53" fill="#F1F1F1" height="80.5938" id="CommandRunner&lt;CT&gt;" rx="2.5" ry="2.5" style="stroke:#181818;stroke-width:0.5;" width="347" x="7" y="469.86"/><ellipse cx="93.75" cy="485.86" fill="#A9DCDF" rx="11" ry="11" style="stroke:#181818;stroke-width:1.0;"/><path d="M93.8594,481.2038 L92.7031,486.2819 L95.0313,486.2819 L93.8594,481.2038 Z M92.375,478.9694 L95.3594,478.9694 L98.7188,491.36 L96.2656,491.36 L95.5,488.2975 L92.2188,488.2975 L91.4688,491.36 L89.0313,491.36 L92.375,478.9694 Z " fill="#000000"/><text fill="#000000" font-family="sans-serif" font-size="14" font-style="italic" lengthAdjust="spacing" textLength="165" x="114.25" y="490.7067">CommandRunner&lt;CT&gt;</text><line style="stroke:#181818;stroke-width:0.5;" x1="8" x2="353" y1="501.86" y2="501.86"/><line style="stroke:#181818;stroke-width:0.5;" x1="8" x2="353" y1="509.86" y2="509.86"/><ellipse cx="18" cy="523.5084" fill="#84BE84" rx="3" ry="3" style="stroke:#038048;stroke-width:1.0;"/><text fill="#000000" font-family="sans-serif" font-size="14" font-style="italic" lengthAdjust="spacing" textLength="226" x="27" y="526.8551">run(command: Command*): void</text><ellipse cx="18" cy="539.8053" fill="#84BE84" rx="3" ry="3" style="stroke:#038048;stroke-width:1.0;"/><text fill="#000000" font-family="sans-serif" font-size="14" lengthAdjust="spacing" textLength="321" x="27" y="543.152">notify(source: "CommandSource&lt;CT&gt;"*): void</text></g><!--class Subject<CT,CommandSource<CT>>--><g id="elem_Subject&lt;CT,CommandSource&lt;CT&gt;&gt;"><rect codeLine="63" fill="#F1F1F1" height="80.5938" id="Subject&lt;CT,CommandSource&lt;CT&gt;&gt;" rx="2.5" ry="2.5" style="stroke:#181818;stroke-width:0.5;" width="300" x="414" y="370.86"/><ellipse cx="431.7" cy="386.86" fill="#A9DCDF" rx="11" ry="11" style="stroke:#181818;stroke-width:1.0;"/><path d="M431.8094,382.2038 L430.6531,387.2819 L432.9813,387.2819 L431.8094,382.2038 Z M430.325,379.9694 L433.3094,379.9694 L436.6688,392.36 L434.2156,392.36 L433.45,389.2975 L430.1688,389.2975 L429.4188,392.36 L426.9813,392.36 L430.325,379.9694 Z " fill="#000000"/><text fill="#000000" font-family="sans-serif" font-size="14" font-style="italic" lengthAdjust="spacing" textLength="262" x="446.3" y="391.7067">Subject&lt;CT,CommandSource&lt;CT&gt;&gt;</text><line style="stroke:#181818;stroke-width:0.5;" x1="415" x2="713" y1="402.86" y2="402.86"/><line style="stroke:#181818;stroke-width:0.5;" x1="415" x2="713" y1="410.86" y2="410.86"/><ellipse cx="425" cy="424.5084" fill="#84BE84" rx="3" ry="3" style="stroke:#038048;stroke-width:1.0;"/><text fill="#000000" font-family="sans-serif" font-size="14" lengthAdjust="spacing" textLength="99" x="434" y="427.8551">notifyAll(): void</text><ellipse cx="425" cy="440.8053" fill="#84BE84" rx="3" ry="3" style="stroke:#038048;stroke-width:1.0;"/><text fill="#000000" font-family="sans-serif" font-size="14" lengthAdjust="spacing" textLength="274" x="434" y="444.152">attach(runner: CommandRunner*): void</text></g><!--reverse link Keystroke to KeyType--><g id="link_Keystroke_KeyType"><path codeLine="24" d="M642.34,92.15 C692.09,92.15 749.72,92.15 808.13,92.15 " fill="none" id="Keystroke-backto-KeyType" style="stroke:#181818;stroke-width:1.0;"/><polygon fill="#181818" points="630.34,92.15,636.34,96.15,642.34,92.15,636.34,88.15,630.34,92.15" style="stroke:#181818;stroke-width:1.0;"/><text fill="#000000" font-family="sans-serif" font-size="13" lengthAdjust="spacing" textLength="8" x="638.0334" y="105.0437">1</text></g><!--reverse link Keyboard to Keystroke--><g id="link_Keyboard_Keystroke"><path codeLine="25" d="M295.99,92.15 C363.85,92.15 438.84,92.15 497.5,92.15 " fill="none" id="Keyboard-backto-Keystroke" style="stroke:#181818;stroke-width:1.0;"/><polygon fill="#181818" points="283.99,92.15,289.99,96.15,295.99,92.15,289.99,88.15,283.99,92.15" style="stroke:#181818;stroke-width:1.0;"/><text fill="#000000" font-family="sans-serif" font-size="13" lengthAdjust="spacing" textLength="8" x="291.5479" y="104.7484">1</text></g><!--link Keyboard to KeystrokeSource--><g id="link_Keyboard_KeystrokeSource"><path codeLine="26" d="M180.5,132.84 C180.5,144.08 180.5,137.31 180.5,148.55 " fill="none" id="Keyboard-to-KeystrokeSource" style="stroke:#181818;stroke-width:1.0;"/><polygon fill="none" points="180.5,166.55,186.5,148.55,174.5,148.55,180.5,166.55" style="stroke:#181818;stroke-width:1.0;"/></g><!--link KeystrokeSource to KeystrokeConsumer--><g id="link_KeystrokeSource_KeystrokeConsumer"><path codeLine="31" d="M295.66,199.15 C422.9,199.15 611.12,199.15 755.73,199.15 " fill="none" id="KeystrokeSource-KeystrokeConsumer" style="stroke:#181818;stroke-width:1.0;"/><polygon fill="none" points="283.66,199.15,289.66,203.15,295.66,199.15,289.66,195.15,283.66,199.15" style="stroke:#181818;stroke-width:1.0;"/><polygon fill="none" points="773.73,199.15,755.73,193.15,755.73,205.15,773.73,199.15" style="stroke:#181818;stroke-width:1.0;"/><text fill="#000000" font-family="sans-serif" font-size="13" lengthAdjust="spacing" textLength="23" x="291.3637" y="211.7254">0..*</text></g><!--reverse link KeystrokeConsumer to InsertReflector--><g id="link_KeystrokeConsumer_InsertReflector"><path codeLine="39" d="M760.9293,250.2093 C748.2293,259.3293 751.85,259.99 744,273.65 C714.78,324.53 714.78,354.78 744,405.65 C765.57,443.21 813.06,457.45 853.27,462.51 " fill="none" id="KeystrokeConsumer-backto-InsertReflector" style="stroke:#181818;stroke-width:1.0;"/><polygon fill="none" points="775.55,239.71,757.4295,245.3357,764.4291,255.0828,775.55,239.71" style="stroke:#181818;stroke-width:1.0;"/></g><!--link ModeType to ModeManager--><g id="link_ModeType_ModeManager"><path codeLine="43" d="M1272,71.6 C1272,82.94 1272,82.27 1272,93.61 " fill="none" id="ModeType-to-ModeManager" style="stroke:#181818;stroke-width:1.0;"/><polygon fill="#181818" points="1272,105.61,1276,99.61,1272,93.61,1268,99.61,1272,105.61" style="stroke:#181818;stroke-width:1.0;"/><text fill="#000000" font-family="sans-serif" font-size="13" lengthAdjust="spacing" textLength="8" x="1263.2375" y="91.2953">1</text></g><!--reverse link ModeManager to Mode--><g id="link_ModeManager_Mode"><path codeLine="47" d="M1272,198.84 C1272,210.08 1272,209.31 1272,220.55 " fill="none" id="ModeManager-backto-Mode" style="stroke:#181818;stroke-width:1.0;"/><polygon fill="none" points="1272,186.84,1268,192.84,1272,198.84,1276,192.84,1272,186.84" style="stroke:#181818;stroke-width:1.0;"/><text fill="#000000" font-family="sans-serif" font-size="13" lengthAdjust="spacing" textLength="23" x="1247.1672" y="206.5967">0..*</text></g><!--reverse link KeystrokeConsumer to ModeManager--><g id="link_KeystrokeConsumer_ModeManager"><path codeLine="48" d="M1084.1861,174.4384 C1103.8161,171.4584 1106.16,171.12 1125.78,168.14 " fill="none" id="KeystrokeConsumer-backto-ModeManager" style="stroke:#181818;stroke-width:1.0;"/><polygon fill="none" points="1066.39,177.14,1085.0866,180.3704,1083.2856,168.5064,1066.39,177.14" style="stroke:#181818;stroke-width:1.0;"/></g><!--link KeystrokeConsumer to Mode--><g id="link_KeystrokeConsumer_Mode"><path codeLine="52" d="M1066.39,221.58 C1094.75,225.96 1112.3205,228.6691 1139.7205,232.8991 " fill="none" id="KeystrokeConsumer-to-Mode" style="stroke:#181818;stroke-width:1.0;"/><polygon fill="none" points="1151.58,234.73,1146.2605,229.8614,1139.7205,232.8991,1145.04,237.7677,1151.58,234.73" style="stroke:#181818;stroke-width:1.0;"/><text fill="#000000" font-family="sans-serif" font-size="13" lengthAdjust="spacing" textLength="23" x="1120.9534" y="246.1695">0..*</text></g><!--link KeystrokeSource to Subject<KeyStroke, KeystrokeSource>--><g id="link_KeystrokeSource_Subject&lt;KeyStroke, KeystrokeSource&gt;"><path codeLine="57" d="M180.5,231.6 C180.5,242.94 180.5,236.27 180.5,247.61 " fill="none" id="KeystrokeSource-to-Subject&lt;KeyStroke, KeystrokeSource&gt;" style="stroke:#181818;stroke-width:1.0;"/><polygon fill="none" points="180.5,265.61,186.5,247.61,174.5,247.61,180.5,265.61" style="stroke:#181818;stroke-width:1.0;"/></g><!--reverse link CommandSource<CT> to CommandParser<CT>--><g id="link_CommandSource&lt;CT&gt;_CommandParser&lt;CT&gt;"><path codeLine="58" d="M678.8917,484.3015 C696.7617,478.8315 697.71,477.36 714,469.15 C744.25,453.92 743.8,437.5 774,422.15 C789.74,414.16 807.27,407.52 824.53,402.1 " fill="none" id="CommandSource&lt;CT&gt;-backto-CommandParser&lt;CT&gt;" style="stroke:#181818;stroke-width:1.0;"/><polygon fill="none" points="661.68,489.57,680.6479,490.0387,677.1355,478.5643,661.68,489.57" style="stroke:#181818;stroke-width:1.0;"/></g><!--reverse link Resetable to BaseCommandParser--><g id="link_Resetable_BaseCommandParser"><path codeLine="59" d="M648.3394,295.8618 C704.0794,296.3318 766.79,296.86 828.7,297.39 " fill="none" id="Resetable-backto-BaseCommandParser" style="stroke:#181818;stroke-width:1.0;"/><polygon fill="none" points="630.34,295.71,648.2888,301.8616,648.39,289.862,630.34,295.71" style="stroke:#181818;stroke-width:1.0;"/></g><!--reverse link BaseCommandParser to CommandParser<CT>--><g id="link_BaseCommandParser_CommandParser&lt;CT&gt;"><path codeLine="60" d="M920,340.45 C920,351.91 920,345.38 920,356.84 " fill="none" id="BaseCommandParser-backto-CommandParser&lt;CT&gt;" style="stroke:#181818;stroke-width:1.0;"/><polygon fill="none" points="920,322.45,914,340.45,926,340.45,920,322.45" style="stroke:#181818;stroke-width:1.0;"/></g><!--reverse link KeystrokeConsumer to BaseCommandParser--><g id="link_KeystrokeConsumer_BaseCommandParser"><path codeLine="61" d="M920,257.68 C920,269.05 920,262.42 920,273.79 " fill="none" id="KeystrokeConsumer-backto-BaseCommandParser" style="stroke:#181818;stroke-width:1.0;"/><polygon fill="none" points="920,239.68,914,257.68,926,257.68,920,239.68" style="stroke:#181818;stroke-width:1.0;"/></g><!--link CommandRunner<CT> to CommandSource<CT>--><g id="link_CommandRunner&lt;CT&gt;_CommandSource&lt;CT&gt;"><path codeLine="62" d="M354.39,510.15 C392.74,510.15 420.05,510.15 454.07,510.15 " fill="none" id="CommandRunner&lt;CT&gt;-to-CommandSource&lt;CT&gt;" style="stroke:#181818;stroke-width:1.0;"/><polygon fill="none" points="466.07,510.15,460.07,506.15,454.07,510.15,460.07,514.15,466.07,510.15" style="stroke:#181818;stroke-width:1.0;"/><text fill="#000000" font-family="sans-serif" font-size="13" lengthAdjust="spacing" textLength="23" x="435.3757" y="522.7489">0..*</text></g><!--reverse link Subject<CT,CommandSource<CT>> to CommandSource<CT>--><g id="link_Subject&lt;CT,CommandSource&lt;CT&gt;&gt;_CommandSource&lt;CT&gt;"><path codeLine="67" d="M564,469.68 C564,481.05 564,474.42 564,485.79 " fill="none" id="Subject&lt;CT,CommandSource&lt;CT&gt;&gt;-backto-CommandSource&lt;CT&gt;" style="stroke:#181818;stroke-width:1.0;"/><polygon fill="none" points="564,451.68,558,469.68,570,469.68,564,451.68" style="stroke:#181818;stroke-width:1.0;"/></g><!--SRC=[ZLHDR-8m4BtdLunoOjEushqYL6cRxQ5QTLK1Vy0u0sG9DdASLH7blwy_S68Ij-M2o7ZcpNjlncOrRHhuZSULeB8y9G1t7D_KvDiK_ecgDDyRLFgyKLBiqCIxZ-ISC5i-nmOLNTK81e2KmWOy1XWG6KPqOOrh1Kg0h3PR1MKbaQbAy0HvkpSTbiU3GtjgM0wlDQru3eMITGw_KFyyKhPh3fJr93fQjkoEYPQhAJnpXHkK9b9IHQTGRAcaJEdGEQ4hNQ4_85sqgx-QmKo3B2n8tkCjH2iPFgGMbYf5sNR216_QFSh0ZU8IoWBhk53L-lYphWFbNTD10mD_yeVdJrtlfQO_KiW8yOubVf3XmQMiEoBl3yFU467bzGnuNPHFTdWCIFMQWrIdVjBO5jDXpwotPCWc_Nv_dwKW2BdYwXdrP5z4YQTmZeNOxoalNwbiKCwAfPuQ-0KnoI-KqutJzAMIs_ax_6UkUwevhckzIK8c8zumUoUZBBlmXfgPd-7rHyWzrHlk4dDzkGwrtlCSdjvqAvzf1qooK5GW4suGwB0kjRtbhZvEdborwrn_f0rU6JyUYBFC3IGSU8TEYF0S784HnBpbtC_qUizao_M5j4dwVhi_sSTpZ73wP1VD1jxqF2GHN6jQP2a1alxDjCQEFHn5J684wuCz6mD6Z0niZx6FF935CXybwinJ_BNh7qnfctRZSHm2sxzgO2H5AFu7]--></g></svg>