<?xml version="1.0" encoding="us-ascii" standalone="no"?><svg xmlns="http://www.w3.org/2000/svg" xmlns:xlink="http://www.w3.org/1999/xlink" contentStyleType="text/css" height="319px" preserveAspectRatio="none" style="width:1322px;height:319px;background:#FFFFFF;" version="1.1" viewBox="0 0 1322 319" width="1322px" zoomAndPan="magnify"><defs/><g><!--class MovementParser--><g id="elem_MovementParser"><rect codeLine="2" fill="#F1F1F1" height="96.8906" id="MovementParser" rx="2.5" ry="2.5" style="stroke:#181818;stroke-width:0.5;" width="243" x="29" y="139"/><ellipse cx="87.75" cy="155" fill="#ADD1B2" rx="11" ry="11" style="stroke:#181818;stroke-width:1.0;"/><path d="M90.7188,160.6406 Q90.1406,160.9375 89.5,161.0781 Q88.8594,161.2344 88.1563,161.2344 Q85.6563,161.2344 84.3281,159.5937 Q83.0156,157.9375 83.0156,154.8125 Q83.0156,151.6875 84.3281,150.0312 Q85.6563,148.375 88.1563,148.375 Q88.8594,148.375 89.5,148.5312 Q90.1563,148.6875 90.7188,148.9844 L90.7188,151.7031 Q90.0938,151.125 89.5,150.8594 Q88.9063,150.5781 88.2813,150.5781 Q86.9375,150.5781 86.25,151.6562 Q85.5625,152.7187 85.5625,154.8125 Q85.5625,156.9062 86.25,157.9844 Q86.9375,159.0469 88.2813,159.0469 Q88.9063,159.0469 89.5,158.7812 Q90.0938,158.5 90.7188,157.9219 L90.7188,160.6406 Z " fill="#000000"/><text fill="#000000" font-family="sans-serif" font-size="14" lengthAdjust="spacing" textLength="117" x="108.25" y="159.8467">MovementParser</text><line style="stroke:#181818;stroke-width:0.5;" x1="30" x2="271" y1="171" y2="171"/><line style="stroke:#181818;stroke-width:0.5;" x1="30" x2="271" y1="179" y2="179"/><rect fill="#F24D5C" height="6" style="stroke:#C82930;stroke-width:1.0;" width="6" x="37" y="189.6484"/><text fill="#000000" font-family="sans-serif" font-size="14" lengthAdjust="spacing" textLength="106" x="49" y="195.9951">doReset(): void</text><rect fill="#F24D5C" height="6" style="stroke:#C82930;stroke-width:1.0;" width="6" x="37" y="205.9453"/><text fill="#000000" font-family="sans-serif" font-size="14" lengthAdjust="spacing" textLength="217" x="49" y="212.292">parse(key: Keystroke): Boolean</text><ellipse cx="40" cy="225.2422" fill="#84BE84" rx="3" ry="3" style="stroke:#038048;stroke-width:1.0;"/><text fill="#000000" font-family="sans-serif" font-size="14" lengthAdjust="spacing" textLength="188" x="49" y="228.5889">getMovement(): Movement</text></g><!--class CommandParser<Movement>--><g id="elem_CommandParser&lt;Movement&gt;"><rect codeLine="7" fill="#F1F1F1" height="48" id="CommandParser&lt;Movement&gt;" rx="2.5" ry="2.5" style="stroke:#181818;stroke-width:0.5;" width="244" x="354" y="151.44"/><ellipse cx="369" cy="167.44" fill="#A9DCDF" rx="11" ry="11" style="stroke:#181818;stroke-width:1.0;"/><path d="M369.1094,162.7837 L367.9531,167.8619 L370.2813,167.8619 L369.1094,162.7837 Z M367.625,160.5494 L370.6094,160.5494 L373.9688,172.94 L371.5156,172.94 L370.75,169.8775 L367.4688,169.8775 L366.7188,172.94 L364.2813,172.94 L367.625,160.5494 Z " fill="#000000"/><text fill="#000000" font-family="sans-serif" font-size="14" font-style="italic" lengthAdjust="spacing" textLength="212" x="383" y="172.2867">CommandParser&lt;Movement&gt;</text><line style="stroke:#181818;stroke-width:0.5;" x1="355" x2="597" y1="183.44" y2="183.44"/><line style="stroke:#181818;stroke-width:0.5;" x1="355" x2="597" y1="191.44" y2="191.44"/></g><!--class CommandRunner<Movement>--><g id="elem_CommandRunner&lt;Movement&gt;"><rect codeLine="8" fill="#F1F1F1" height="48" id="CommandRunner&lt;Movement&gt;" rx="2.5" ry="2.5" style="stroke:#181818;stroke-width:0.5;" width="251" x="685.5" y="149.44"/><ellipse cx="700.5" cy="165.44" fill="#A9DCDF" rx="11" ry="11" style="stroke:#181818;stroke-width:1.0;"/><path d="M700.6094,160.7837 L699.4531,165.8619 L701.7813,165.8619 L700.6094,160.7837 Z M699.125,158.5494 L702.1094,158.5494 L705.4688,170.94 L703.0156,170.94 L702.25,167.8775 L698.9688,167.8775 L698.2188,170.94 L695.7813,170.94 L699.125,158.5494 Z " fill="#000000"/><text fill="#000000" font-family="sans-serif" font-size="14" font-style="italic" lengthAdjust="spacing" textLength="219" x="714.5" y="170.2867">CommandRunner&lt;Movement&gt;</text><line style="stroke:#181818;stroke-width:0.5;" x1="686.5" x2="935.5" y1="181.44" y2="181.44"/><line style="stroke:#181818;stroke-width:0.5;" x1="686.5" x2="935.5" y1="189.44" y2="189.44"/></g><!--class MovementRunner--><g id="elem_MovementRunner"><rect codeLine="9" fill="#F1F1F1" height="80.5938" id="MovementRunner" rx="2.5" ry="2.5" style="stroke:#181818;stroke-width:0.5;" width="254" x="1042.5" y="133.14"/><ellipse cx="1103.25" cy="149.14" fill="#ADD1B2" rx="11" ry="11" style="stroke:#181818;stroke-width:1.0;"/><path d="M1106.2188,154.7806 Q1105.6406,155.0775 1105,155.2181 Q1104.3594,155.3744 1103.6563,155.3744 Q1101.1563,155.3744 1099.8281,153.7338 Q1098.5156,152.0775 1098.5156,148.9525 Q1098.5156,145.8275 1099.8281,144.1713 Q1101.1563,142.515 1103.6563,142.515 Q1104.3594,142.515 1105,142.6713 Q1105.6563,142.8275 1106.2188,143.1244 L1106.2188,145.8431 Q1105.5938,145.265 1105,144.9994 Q1104.4063,144.7181 1103.7813,144.7181 Q1102.4375,144.7181 1101.75,145.7963 Q1101.0625,146.8588 1101.0625,148.9525 Q1101.0625,151.0463 1101.75,152.1244 Q1102.4375,153.1869 1103.7813,153.1869 Q1104.4063,153.1869 1105,152.9213 Q1105.5938,152.64 1106.2188,152.0619 L1106.2188,154.7806 Z " fill="#000000"/><text fill="#000000" font-family="sans-serif" font-size="14" lengthAdjust="spacing" textLength="124" x="1123.75" y="153.9867">MovementRunner</text><line style="stroke:#181818;stroke-width:0.5;" x1="1043.5" x2="1295.5" y1="165.14" y2="165.14"/><rect fill="none" height="6" style="stroke:#C82930;stroke-width:1.0;" width="6" x="1050.5" y="175.7884"/><text fill="#000000" font-family="sans-serif" font-size="14" lengthAdjust="spacing" textLength="129" x="1062.5" y="182.1351">window: Window**</text><line style="stroke:#181818;stroke-width:0.5;" x1="1043.5" x2="1295.5" y1="189.4369" y2="189.4369"/><ellipse cx="1053.5" cy="203.0853" fill="#84BE84" rx="3" ry="3" style="stroke:#038048;stroke-width:1.0;"/><text fill="#000000" font-family="sans-serif" font-size="14" lengthAdjust="spacing" textLength="228" x="1062.5" y="206.432">run(command: Movement*): void</text></g><!--class CommandRunner<Search>--><g id="elem_CommandRunner&lt;Search&gt;"><rect codeLine="13" fill="#F1F1F1" height="48" id="CommandRunner&lt;Search&gt;" rx="2.5" ry="2.5" style="stroke:#181818;stroke-width:0.5;" width="226" x="698" y="256.44"/><ellipse cx="713" cy="272.44" fill="#A9DCDF" rx="11" ry="11" style="stroke:#181818;stroke-width:1.0;"/><path d="M713.1094,267.7838 L711.9531,272.8619 L714.2813,272.8619 L713.1094,267.7838 Z M711.625,265.5494 L714.6094,265.5494 L717.9688,277.94 L715.5156,277.94 L714.75,274.8775 L711.4688,274.8775 L710.7188,277.94 L708.2813,277.94 L711.625,265.5494 Z " fill="#000000"/><text fill="#000000" font-family="sans-serif" font-size="14" font-style="italic" lengthAdjust="spacing" textLength="194" x="727" y="277.2867">CommandRunner&lt;Search&gt;</text><line style="stroke:#181818;stroke-width:0.5;" x1="699" x2="923" y1="288.44" y2="288.44"/><line style="stroke:#181818;stroke-width:0.5;" x1="699" x2="923" y1="296.44" y2="296.44"/></g><!--class SemiColonRepeater--><g id="elem_SemiColonRepeater"><rect codeLine="14" fill="#F1F1F1" height="48" id="SemiColonRepeater" rx="2.5" ry="2.5" style="stroke:#181818;stroke-width:0.5;" width="170" x="1084.5" y="50.44"/><ellipse cx="1099.5" cy="66.44" fill="#ADD1B2" rx="11" ry="11" style="stroke:#181818;stroke-width:1.0;"/><path d="M1102.4688,72.0806 Q1101.8906,72.3775 1101.25,72.5181 Q1100.6094,72.6744 1099.9063,72.6744 Q1097.4063,72.6744 1096.0781,71.0338 Q1094.7656,69.3775 1094.7656,66.2525 Q1094.7656,63.1275 1096.0781,61.4713 Q1097.4063,59.815 1099.9063,59.815 Q1100.6094,59.815 1101.25,59.9713 Q1101.9063,60.1275 1102.4688,60.4244 L1102.4688,63.1431 Q1101.8438,62.565 1101.25,62.2994 Q1100.6563,62.0181 1100.0313,62.0181 Q1098.6875,62.0181 1098,63.0963 Q1097.3125,64.1588 1097.3125,66.2525 Q1097.3125,68.3463 1098,69.4244 Q1098.6875,70.4869 1100.0313,70.4869 Q1100.6563,70.4869 1101.25,70.2213 Q1101.8438,69.94 1102.4688,69.3619 L1102.4688,72.0806 Z " fill="#000000"/><text fill="#000000" font-family="sans-serif" font-size="14" lengthAdjust="spacing" textLength="138" x="1113.5" y="71.2867">SemiColonRepeater</text><line style="stroke:#181818;stroke-width:0.5;" x1="1085.5" x2="1253.5" y1="82.44" y2="82.44"/><line style="stroke:#181818;stroke-width:0.5;" x1="1085.5" x2="1253.5" y1="90.44" y2="90.44"/></g><!--class SearchRunner--><g id="elem_SearchRunner"><rect codeLine="15" fill="#F1F1F1" height="64.2969" id="SearchRunner" rx="2.5" ry="2.5" style="stroke:#181818;stroke-width:0.5;" width="291" x="1024" y="248.29"/><ellipse cx="1115.75" cy="264.29" fill="#ADD1B2" rx="11" ry="11" style="stroke:#181818;stroke-width:1.0;"/><path d="M1118.7188,269.9306 Q1118.1406,270.2275 1117.5,270.3681 Q1116.8594,270.5244 1116.1563,270.5244 Q1113.6563,270.5244 1112.3281,268.8837 Q1111.0156,267.2275 1111.0156,264.1025 Q1111.0156,260.9775 1112.3281,259.3212 Q1113.6563,257.665 1116.1563,257.665 Q1116.8594,257.665 1117.5,257.8212 Q1118.1563,257.9775 1118.7188,258.2744 L1118.7188,260.9931 Q1118.0938,260.415 1117.5,260.1494 Q1116.9063,259.8681 1116.2813,259.8681 Q1114.9375,259.8681 1114.25,260.9462 Q1113.5625,262.0087 1113.5625,264.1025 Q1113.5625,266.1962 1114.25,267.2744 Q1114.9375,268.3369 1116.2813,268.3369 Q1116.9063,268.3369 1117.5,268.0712 Q1118.0938,267.79 1118.7188,267.2119 L1118.7188,269.9306 Z " fill="#000000"/><text fill="#000000" font-family="sans-serif" font-size="14" lengthAdjust="spacing" textLength="99" x="1136.25" y="269.1367">SearchRunner</text><line style="stroke:#181818;stroke-width:0.5;" x1="1025" x2="1314" y1="280.29" y2="280.29"/><rect fill="none" height="6" style="stroke:#C82930;stroke-width:1.0;" width="6" x="1032" y="290.9384"/><text fill="#000000" font-family="sans-serif" font-size="14" lengthAdjust="spacing" textLength="265" x="1044" y="297.2851">movementRunner: MovementRunner*</text><line style="stroke:#181818;stroke-width:0.5;" x1="1025" x2="1314" y1="304.5869" y2="304.5869"/></g><!--class MatcherRunner--><g id="elem_MatcherRunner"><rect codeLine="18" fill="#F1F1F1" height="96.8906" id="MatcherRunner" rx="2.5" ry="2.5" style="stroke:#181818;stroke-width:0.5;" width="306" x="658" y="15"/><ellipse cx="753.25" cy="31" fill="#ADD1B2" rx="11" ry="11" style="stroke:#181818;stroke-width:1.0;"/><path d="M756.2188,36.6406 Q755.6406,36.9375 755,37.0781 Q754.3594,37.2344 753.6563,37.2344 Q751.1563,37.2344 749.8281,35.5938 Q748.5156,33.9375 748.5156,30.8125 Q748.5156,27.6875 749.8281,26.0313 Q751.1563,24.375 753.6563,24.375 Q754.3594,24.375 755,24.5313 Q755.6563,24.6875 756.2188,24.9844 L756.2188,27.7031 Q755.5938,27.125 755,26.8594 Q754.4063,26.5781 753.7813,26.5781 Q752.4375,26.5781 751.75,27.6563 Q751.0625,28.7188 751.0625,30.8125 Q751.0625,32.9063 751.75,33.9844 Q752.4375,35.0469 753.7813,35.0469 Q754.4063,35.0469 755,34.7813 Q755.5938,34.5 756.2188,33.9219 L756.2188,36.6406 Z " fill="#000000"/><text fill="#000000" font-family="sans-serif" font-size="14" lengthAdjust="spacing" textLength="107" x="773.75" y="35.8467">MatcherRunner</text><line style="stroke:#181818;stroke-width:0.5;" x1="659" x2="963" y1="47" y2="47"/><rect fill="none" height="6" style="stroke:#C82930;stroke-width:1.0;" width="6" x="666" y="57.6484"/><text fill="#000000" font-family="sans-serif" font-size="14" lengthAdjust="spacing" textLength="129" x="678" y="63.9951">window: Window**</text><rect fill="none" height="6" style="stroke:#C82930;stroke-width:1.0;" width="6" x="666" y="73.9453"/><text fill="#000000" font-family="sans-serif" font-size="14" lengthAdjust="spacing" textLength="229" x="678" y="80.292">historyManager: HistoryManager*</text><rect fill="none" height="6" style="stroke:#C82930;stroke-width:1.0;" width="6" x="666" y="90.2422"/><text fill="#000000" font-family="sans-serif" font-size="14" lengthAdjust="spacing" textLength="280" x="678" y="96.5889">matcherManager: map&lt;String,Matcher&gt;</text><line style="stroke:#181818;stroke-width:0.5;" x1="659" x2="963" y1="103.8906" y2="103.8906"/></g><!--class Matcher--><g id="elem_Matcher"><rect codeLine="23" fill="#F1F1F1" height="96.8906" id="Matcher" rx="2.5" ry="2.5" style="stroke:#181818;stroke-width:0.5;" width="185" x="383.5" y="14"/><ellipse cx="443.75" cy="30" fill="#ADD1B2" rx="11" ry="11" style="stroke:#181818;stroke-width:1.0;"/><path d="M446.7188,35.6406 Q446.1406,35.9375 445.5,36.0781 Q444.8594,36.2344 444.1563,36.2344 Q441.6563,36.2344 440.3281,34.5938 Q439.0156,32.9375 439.0156,29.8125 Q439.0156,26.6875 440.3281,25.0313 Q441.6563,23.375 444.1563,23.375 Q444.8594,23.375 445.5,23.5313 Q446.1563,23.6875 446.7188,23.9844 L446.7188,26.7031 Q446.0938,26.125 445.5,25.8594 Q444.9063,25.5781 444.2813,25.5781 Q442.9375,25.5781 442.25,26.6563 Q441.5625,27.7188 441.5625,29.8125 Q441.5625,31.9063 442.25,32.9844 Q442.9375,34.0469 444.2813,34.0469 Q444.9063,34.0469 445.5,33.7813 Q446.0938,33.5 446.7188,32.9219 L446.7188,35.6406 Z " fill="#000000"/><text fill="#000000" font-family="sans-serif" font-size="14" lengthAdjust="spacing" textLength="56" x="464.25" y="34.8467">Matcher</text><line style="stroke:#181818;stroke-width:0.5;" x1="384.5" x2="567.5" y1="46" y2="46"/><rect fill="none" height="6" style="stroke:#C82930;stroke-width:1.0;" width="6" x="391.5" y="56.6484"/><text fill="#000000" font-family="sans-serif" font-size="14" lengthAdjust="spacing" textLength="159" x="403.5" y="62.9951">charbuf: LinedCharbuf*</text><rect fill="none" height="6" style="stroke:#C82930;stroke-width:1.0;" width="6" x="391.5" y="72.9453"/><text fill="#000000" font-family="sans-serif" font-size="14" lengthAdjust="spacing" textLength="104" x="403.5" y="79.292">lineLoc: [Loc n]</text><rect fill="none" height="6" style="stroke:#C82930;stroke-width:1.0;" width="6" x="391.5" y="89.2422"/><text fill="#000000" font-family="sans-serif" font-size="14" lengthAdjust="spacing" textLength="105" x="403.5" y="95.5889">pairLoc: [Loc n]</text><line style="stroke:#181818;stroke-width:0.5;" x1="384.5" x2="567.5" y1="102.8906" y2="102.8906"/></g><!--class Trie--><g id="elem_Trie"><rect codeLine="28" fill="#F1F1F1" height="96.8906" id="Trie" rx="2.5" ry="2.5" style="stroke:#181818;stroke-width:0.5;" width="287" x="7" y="7"/><ellipse cx="133.25" cy="23" fill="#ADD1B2" rx="11" ry="11" style="stroke:#181818;stroke-width:1.0;"/><path d="M136.2188,28.6406 Q135.6406,28.9375 135,29.0781 Q134.3594,29.2344 133.6563,29.2344 Q131.1563,29.2344 129.8281,27.5938 Q128.5156,25.9375 128.5156,22.8125 Q128.5156,19.6875 129.8281,18.0313 Q131.1563,16.375 133.6563,16.375 Q134.3594,16.375 135,16.5313 Q135.6563,16.6875 136.2188,16.9844 L136.2188,19.7031 Q135.5938,19.125 135,18.8594 Q134.4063,18.5781 133.7813,18.5781 Q132.4375,18.5781 131.75,19.6563 Q131.0625,20.7188 131.0625,22.8125 Q131.0625,24.9063 131.75,25.9844 Q132.4375,27.0469 133.7813,27.0469 Q134.4063,27.0469 135,26.7813 Q135.5938,26.5 136.2188,25.9219 L136.2188,28.6406 Z " fill="#000000"/><text fill="#000000" font-family="sans-serif" font-size="14" lengthAdjust="spacing" textLength="26" x="153.75" y="27.8467">Trie</text><line style="stroke:#181818;stroke-width:0.5;" x1="8" x2="293" y1="39" y2="39"/><line style="stroke:#181818;stroke-width:0.5;" x1="8" x2="293" y1="47" y2="47"/><ellipse cx="18" cy="60.6484" fill="#84BE84" rx="3" ry="3" style="stroke:#038048;stroke-width:1.0;"/><text fill="#000000" font-family="sans-serif" font-size="14" lengthAdjust="spacing" textLength="261" x="27" y="63.9951">add(dfa: String, type: NodeType): void</text><ellipse cx="18" cy="76.9453" fill="#84BE84" rx="3" ry="3" style="stroke:#038048;stroke-width:1.0;"/><text fill="#000000" font-family="sans-serif" font-size="14" lengthAdjust="spacing" textLength="147" x="27" y="80.292">getType(): NodeType</text><ellipse cx="18" cy="93.2422" fill="#84BE84" rx="3" ry="3" style="stroke:#038048;stroke-width:1.0;"/><text fill="#000000" font-family="sans-serif" font-size="14" lengthAdjust="spacing" textLength="171" x="27" y="96.5889">step(ch: Character): void</text></g><!--reverse link CommandRunner<Movement> to MovementRunner--><g id="link_CommandRunner&lt;Movement&gt;_MovementRunner"><path codeLine="33" d="M954.94,173.44 C989.06,173.44 1008.05,173.44 1042.24,173.44 " fill="none" id="CommandRunner&lt;Movement&gt;-backto-MovementRunner" style="stroke:#181818;stroke-width:1.0;"/><polygon fill="none" points="936.94,173.44,954.94,179.44,954.94,167.44,936.94,173.44" style="stroke:#181818;stroke-width:1.0;"/></g><!--link MovementParser to CommandParser<Movement>--><g id="link_MovementParser_CommandParser&lt;Movement&gt;"><path codeLine="34" d="M272.42,182.96 C298.98,181.97 309.1225,181.6 335.7025,180.61 " fill="none" id="MovementParser-to-CommandParser&lt;Movement&gt;" style="stroke:#181818;stroke-width:1.0;"/><polygon fill="none" points="353.69,179.94,335.4792,174.6141,335.9258,186.6058,353.69,179.94" style="stroke:#181818;stroke-width:1.0;"/></g><!--reverse link CommandParser<Movement> to CommandRunner<Movement>--><g id="link_CommandParser&lt;Movement&gt;_CommandRunner&lt;Movement&gt;"><path codeLine="35" d="M610.1598,174.6378 C638.4298,174.4678 656.58,174.36 685.01,174.19 " fill="none" id="CommandParser&lt;Movement&gt;-backto-CommandRunner&lt;Movement&gt;" style="stroke:#181818;stroke-width:1.0;"/><polygon fill="none" points="598.16,174.71,604.1839,178.6738,610.1598,174.6378,604.1358,170.674,598.16,174.71" style="stroke:#181818;stroke-width:1.0;"/><text fill="#000000" font-family="sans-serif" font-size="13" lengthAdjust="spacing" textLength="23" x="605.8872" y="187.1721">0..*</text></g><!--reverse link CommandRunner<Search> to SearchRunner--><g id="link_CommandRunner&lt;Search&gt;_SearchRunner"><path codeLine="36" d="M942.31,280.44 C973.84,280.44 990.58,280.44 1023.72,280.44 " fill="none" id="CommandRunner&lt;Search&gt;-backto-SearchRunner" style="stroke:#181818;stroke-width:1.0;"/><polygon fill="none" points="924.31,280.44,942.31,286.44,942.31,274.44,924.31,280.44" style="stroke:#181818;stroke-width:1.0;"/></g><!--reverse link CommandRunner<Movement> to SearchRunner--><g id="link_CommandRunner&lt;Movement&gt;_SearchRunner"><path codeLine="37" d="M910.5805,203.0335 C959.9005,217.8335 1006.2,231.73 1059.8,247.82 " fill="none" id="CommandRunner&lt;Movement&gt;-backto-SearchRunner" style="stroke:#181818;stroke-width:1.0;"/><polygon fill="none" points="893.34,197.86,908.856,208.7804,912.305,197.2867,893.34,197.86" style="stroke:#181818;stroke-width:1.0;"/></g><!--reverse link CommandRunner<Movement> to SemiColonRepeater--><g id="link_CommandRunner&lt;Movement&gt;_SemiColonRepeater"><path codeLine="38" d="M917.464,144.1548 C973.654,128.5548 1028.71,113.26 1084.15,97.87 " fill="none" id="CommandRunner&lt;Movement&gt;-backto-SemiColonRepeater" style="stroke:#181818;stroke-width:1.0;"/><polygon fill="none" points="900.12,148.97,919.0691,149.9361,915.8589,138.3735,900.12,148.97" style="stroke:#181818;stroke-width:1.0;"/></g><!--link MatcherRunner to CommandRunner<Movement>--><g id="link_MatcherRunner_CommandRunner&lt;Movement&gt;"><path codeLine="39" d="M811,112.21 C811,124.45 811,118.7 811,130.95 " fill="none" id="MatcherRunner-to-CommandRunner&lt;Movement&gt;" style="stroke:#181818;stroke-width:1.0;"/><polygon fill="none" points="811,148.95,817,130.95,805,130.95,811,148.95" style="stroke:#181818;stroke-width:1.0;"/></g><!--link Matcher to MatcherRunner--><g id="link_Matcher_MatcherRunner"><path codeLine="40" d="M568.88,62.72 C596.4,62.8 627.37,62.89 657.69,62.98 " fill="none" id="Matcher-MatcherRunner" style="stroke:#181818;stroke-width:1.0;"/><text fill="#000000" font-family="sans-serif" font-size="13" lengthAdjust="spacing" textLength="60" x="589.9566" y="75.3465">manages</text></g><!--link Trie to Matcher--><g id="link_Trie_Matcher"><path codeLine="41" d="M294.33,58.53 C324.46,59.18 343.4827,59.6039 371.1227,60.1939 " fill="none" id="Trie-to-Matcher" style="stroke:#181818;stroke-width:1.0;"/><polygon fill="none" points="383.12,60.45,377.2067,56.3229,371.1227,60.1939,377.036,64.321,383.12,60.45" style="stroke:#181818;stroke-width:1.0;"/><text fill="#000000" font-family="sans-serif" font-size="13" lengthAdjust="spacing" textLength="8" x="367.3999" y="72.9608">1</text></g><!--SRC=[bP8nJyCm48Lt_ufJfX181QjLTQ0B4XIX5ea1CHZxsbWaliXnGHNmtx5ZqZQ12B4ayTtBktVoL-BQWIEmUbCuKDgYT9eCawLe6bZGArPet9sm3LfuPm2veYKswD8J3g-aLIZLePs-u8x3DUuQP-a5VVkIg4HXlE9qWwxp2Zzst-oJYMUl5z91CgUg4aR5MTDECalUuHVLScjCJmL1rayTDJ7rcpQAtZWyjEyi2w7irgGosXqYPTrUuqDNAAmiVB1ku0ehFQUIp19h50xjKIT8ZuDKlN1y43PZ-oM4amNQM1vR8IzquyZk5iA8JN2xwfrRIHMDzf9ArDELizfiphvdp8P3Or9P2FkyNNEuqGRLF9vQoz8NRaXoUFHFC4-H0MrxjSxptcfi3K-5KgbQ2mxVuy7jQkHmImhl_TS1g81Bg0HKkcueDmxhL1OSGXX_CMWFbpKEnlGZpuTCi07PUVun6oSGs7WhEPzCiWJ8pnYDm4O0Yj6E6VbhZVzf1rIo7bDmlFBFo1qAOQ-gPQT9-b2ozcRpd22vsBU-0000]--></g></svg>