<?xml version="1.0" encoding="us-ascii" standalone="no"?><svg xmlns="http://www.w3.org/2000/svg" xmlns:xlink="http://www.w3.org/1999/xlink" contentStyleType="text/css" height="391px" preserveAspectRatio="none" style="width:1435px;height:391px;background:#FFFFFF;" version="1.1" viewBox="0 0 1435 391" width="1435px" zoomAndPan="magnify"><defs/><g><!--class Window--><g id="elem_Window"><rect codeLine="2" fill="#F1F1F1" height="48" id="Window" rx="2.5" ry="2.5" style="stroke:#181818;stroke-width:0.5;" width="86" x="1308" y="122.44"/><ellipse cx="1323" cy="138.44" fill="#A9DCDF" rx="11" ry="11" style="stroke:#181818;stroke-width:1.0;"/><path d="M1323.1094,133.7838 L1321.9531,138.8619 L1324.2813,138.8619 L1323.1094,133.7838 Z M1321.625,131.5494 L1324.6094,131.5494 L1327.9688,143.94 L1325.5156,143.94 L1324.75,140.8775 L1321.4688,140.8775 L1320.7188,143.94 L1318.2813,143.94 L1321.625,131.5494 Z " fill="#000000"/><text fill="#000000" font-family="sans-serif" font-size="14" font-style="italic" lengthAdjust="spacing" textLength="54" x="1337" y="143.2867">Window</text><line style="stroke:#181818;stroke-width:0.5;" x1="1309" x2="1393" y1="154.44" y2="154.44"/><line style="stroke:#181818;stroke-width:0.5;" x1="1309" x2="1393" y1="162.44" y2="162.44"/></g><!--class Data--><g id="elem_Data"><rect codeLine="3" fill="#F1F1F1" height="80.5938" id="Data" rx="2.5" ry="2.5" style="stroke:#181818;stroke-width:0.5;" width="172" x="674" y="304.15"/><ellipse cx="739.75" cy="320.15" fill="#F1F1F1" rx="11" ry="11" style="stroke:#181818;stroke-width:1.0;"/><path d="M739.2344,320.7125 Q737.375,320.0094 736.7188,319.2438 Q736.0781,318.4625 736.0781,317.15 Q736.0781,315.4625 737.1563,314.4938 Q738.2344,313.525 740.1094,313.525 Q740.9688,313.525 741.8125,313.7281 Q742.6719,313.9156 743.5156,314.3063 L743.5156,316.6969 Q742.7344,316.1344 741.9063,315.8531 Q741.0938,315.5563 740.2969,315.5563 Q739.4219,315.5563 738.9375,315.9156 Q738.4688,316.275 738.4688,316.9313 Q738.4688,317.4469 738.8125,317.7906 Q739.1563,318.1188 740.25,318.525 L741.3125,318.9313 Q742.7969,319.4781 743.5,320.3844 Q744.2188,321.2906 744.2188,322.6656 Q744.2188,324.5406 743.1094,325.4625 Q742,326.3844 739.75,326.3844 Q738.8281,326.3844 737.9063,326.1656 Q736.9844,325.9469 736.125,325.525 L736.125,322.9938 Q737.0938,323.6813 738.0156,324.025 Q738.9375,324.3688 739.8281,324.3688 Q740.7344,324.3688 741.2344,323.9625 Q741.7344,323.5406 741.7344,322.8063 Q741.7344,322.2438 741.3906,321.8375 Q741.0625,321.4156 740.4375,321.1656 L739.2344,320.7125 Z " fill="#000000"/><text fill="#000000" font-family="sans-serif" font-size="14" lengthAdjust="spacing" textLength="32" x="760.25" y="324.9967">Data</text><line style="stroke:#181818;stroke-width:0.5;" x1="675" x2="845" y1="336.15" y2="336.15"/><ellipse cx="685" cy="349.7984" fill="none" rx="3" ry="3" style="stroke:#038048;stroke-width:1.0;"/><text fill="#000000" font-family="sans-serif" font-size="14" lengthAdjust="spacing" textLength="111" x="694" y="353.1451">contents: String</text><ellipse cx="685" cy="366.0953" fill="none" rx="3" ry="3" style="stroke:#038048;stroke-width:1.0;"/><text fill="#000000" font-family="sans-serif" font-size="14" lengthAdjust="spacing" textLength="146" x="694" y="369.442">addNewline: Boolean</text><line style="stroke:#181818;stroke-width:0.5;" x1="675" x2="845" y1="376.7438" y2="376.7438"/></g><!--class Clipboard--><g id="elem_Clipboard"><rect codeLine="7" fill="#F1F1F1" height="48" id="Clipboard" rx="2.5" ry="2.5" style="stroke:#181818;stroke-width:0.5;" width="97" x="1042" y="320.44"/><ellipse cx="1057" cy="336.44" fill="#ADD1B2" rx="11" ry="11" style="stroke:#181818;stroke-width:1.0;"/><path d="M1059.9688,342.0806 Q1059.3906,342.3775 1058.75,342.5181 Q1058.1094,342.6744 1057.4063,342.6744 Q1054.9063,342.6744 1053.5781,341.0338 Q1052.2656,339.3775 1052.2656,336.2525 Q1052.2656,333.1275 1053.5781,331.4713 Q1054.9063,329.815 1057.4063,329.815 Q1058.1094,329.815 1058.75,329.9713 Q1059.4063,330.1275 1059.9688,330.4244 L1059.9688,333.1431 Q1059.3438,332.565 1058.75,332.2994 Q1058.1563,332.0181 1057.5313,332.0181 Q1056.1875,332.0181 1055.5,333.0963 Q1054.8125,334.1588 1054.8125,336.2525 Q1054.8125,338.3463 1055.5,339.4244 Q1056.1875,340.4869 1057.5313,340.4869 Q1058.1563,340.4869 1058.75,340.2213 Q1059.3438,339.94 1059.9688,339.3619 L1059.9688,342.0806 Z " fill="#000000"/><text fill="#000000" font-family="sans-serif" font-size="14" lengthAdjust="spacing" textLength="65" x="1071" y="341.2867">Clipboard</text><line style="stroke:#181818;stroke-width:0.5;" x1="1043" x2="1138" y1="352.44" y2="352.44"/><line style="stroke:#181818;stroke-width:0.5;" x1="1043" x2="1138" y1="360.44" y2="360.44"/></g><!--class RootStatus--><g id="elem_RootStatus"><rect codeLine="43" fill="#F1F1F1" height="113.1875" id="RootStatus" rx="2.5" ry="2.5" style="stroke:#181818;stroke-width:0.5;" width="154" x="1274" y="205.85"/><ellipse cx="1309.25" cy="221.85" fill="#ADD1B2" rx="11" ry="11" style="stroke:#181818;stroke-width:1.0;"/><path d="M1312.2188,227.4906 Q1311.6406,227.7875 1311,227.9281 Q1310.3594,228.0844 1309.6563,228.0844 Q1307.1563,228.0844 1305.8281,226.4438 Q1304.5156,224.7875 1304.5156,221.6625 Q1304.5156,218.5375 1305.8281,216.8813 Q1307.1563,215.225 1309.6563,215.225 Q1310.3594,215.225 1311,215.3813 Q1311.6563,215.5375 1312.2188,215.8344 L1312.2188,218.5531 Q1311.5938,217.975 1311,217.7094 Q1310.4063,217.4281 1309.7813,217.4281 Q1308.4375,217.4281 1307.75,218.5063 Q1307.0625,219.5688 1307.0625,221.6625 Q1307.0625,223.7563 1307.75,224.8344 Q1308.4375,225.8969 1309.7813,225.8969 Q1310.4063,225.8969 1311,225.6313 Q1311.5938,225.35 1312.2188,224.7719 L1312.2188,227.4906 Z " fill="#000000"/><text fill="#000000" font-family="sans-serif" font-size="14" lengthAdjust="spacing" textLength="77" x="1327.75" y="226.6967">RootStatus</text><line style="stroke:#181818;stroke-width:0.5;" x1="1275" x2="1427" y1="237.85" y2="237.85"/><rect fill="none" height="6" style="stroke:#C82930;stroke-width:1.0;" width="6" x="1282" y="248.4984"/><text fill="#000000" font-family="sans-serif" font-size="14" lengthAdjust="spacing" textLength="113" x="1294" y="254.8451">message: String</text><rect fill="none" height="6" style="stroke:#C82930;stroke-width:1.0;" width="6" x="1282" y="264.7953"/><text fill="#000000" font-family="sans-serif" font-size="14" lengthAdjust="spacing" textLength="128" x="1294" y="271.142">errorCode: Integer</text><rect fill="none" height="6" style="stroke:#C82930;stroke-width:1.0;" width="6" x="1282" y="281.0922"/><text fill="#000000" font-family="sans-serif" font-size="14" lengthAdjust="spacing" textLength="113" x="1294" y="287.4389">message: String</text><rect fill="none" height="6" style="stroke:#C82930;stroke-width:1.0;" width="6" x="1282" y="297.3891"/><text fill="#000000" font-family="sans-serif" font-size="14" lengthAdjust="spacing" textLength="128" x="1294" y="303.7357">errorCode: Integer</text><line style="stroke:#181818;stroke-width:0.5;" x1="1275" x2="1427" y1="311.0375" y2="311.0375"/></g><!--class CommandParser<Normal>--><g id="elem_CommandParser&lt;Normal&gt;"><rect codeLine="13" fill="#F1F1F1" height="113.1875" id="CommandParser&lt;Normal&gt;" rx="2.5" ry="2.5" style="stroke:#181818;stroke-width:0.5;" width="243" x="310" y="146.85"/><ellipse cx="335.8" cy="162.85" fill="#A9DCDF" rx="11" ry="11" style="stroke:#181818;stroke-width:1.0;"/><path d="M335.9094,158.1938 L334.7531,163.2719 L337.0813,163.2719 L335.9094,158.1938 Z M334.425,155.9594 L337.4094,155.9594 L340.7688,168.35 L338.3156,168.35 L337.55,165.2875 L334.2688,165.2875 L333.5188,168.35 L331.0813,168.35 L334.425,155.9594 Z " fill="#000000"/><text fill="#000000" font-family="sans-serif" font-size="14" font-style="italic" lengthAdjust="spacing" textLength="187" x="352.2" y="167.6967">CommandParser&lt;Normal&gt;</text><line style="stroke:#181818;stroke-width:0.5;" x1="311" x2="552" y1="178.85" y2="178.85"/><line style="stroke:#181818;stroke-width:0.5;" x1="311" x2="552" y1="186.85" y2="186.85"/><rect fill="#F24D5C" height="6" style="stroke:#C82930;stroke-width:1.0;" width="6" x="318" y="197.4984"/><text fill="#000000" font-family="sans-serif" font-size="14" font-style="italic" lengthAdjust="spacing" textLength="106" x="330" y="203.8451">doReset(): void</text><rect fill="#F24D5C" height="6" style="stroke:#C82930;stroke-width:1.0;" width="6" x="318" y="213.7953"/><text fill="#000000" font-family="sans-serif" font-size="14" font-style="italic" lengthAdjust="spacing" textLength="217" x="330" y="220.142">parse(key: Keystroke): Boolean</text><ellipse cx="321" cy="233.0922" fill="#84BE84" rx="3" ry="3" style="stroke:#038048;stroke-width:1.0;"/><text fill="#000000" font-family="sans-serif" font-size="14" lengthAdjust="spacing" textLength="83" x="330" y="236.4389">reset(): void</text><ellipse cx="321" cy="249.3891" fill="#84BE84" rx="3" ry="3" style="stroke:#038048;stroke-width:1.0;"/><text fill="#000000" font-family="sans-serif" font-size="14" lengthAdjust="spacing" textLength="214" x="330" y="252.7357">consume(key: Keystroke): void</text></g><!--class CommandRunner<Normal>--><g id="elem_CommandRunner&lt;Normal&gt;"><rect codeLine="19" fill="#F1F1F1" height="80.5938" id="CommandRunner&lt;Normal&gt;" rx="2.5" ry="2.5" style="stroke:#181818;stroke-width:0.5;" width="294" x="613" y="163.15"/><ellipse cx="658.75" cy="179.15" fill="#A9DCDF" rx="11" ry="11" style="stroke:#181818;stroke-width:1.0;"/><path d="M658.8594,174.4938 L657.7031,179.5719 L660.0313,179.5719 L658.8594,174.4938 Z M657.375,172.2594 L660.3594,172.2594 L663.7188,184.65 L661.2656,184.65 L660.5,181.5875 L657.2188,181.5875 L656.4688,184.65 L654.0313,184.65 L657.375,172.2594 Z " fill="#000000"/><text fill="#000000" font-family="sans-serif" font-size="14" font-style="italic" lengthAdjust="spacing" textLength="194" x="679.25" y="183.9967">CommandRunner&lt;Normal&gt;</text><line style="stroke:#181818;stroke-width:0.5;" x1="614" x2="906" y1="195.15" y2="195.15"/><line style="stroke:#181818;stroke-width:0.5;" x1="614" x2="906" y1="203.15" y2="203.15"/><ellipse cx="624" cy="216.7984" fill="#84BE84" rx="3" ry="3" style="stroke:#038048;stroke-width:1.0;"/><text fill="#000000" font-family="sans-serif" font-size="14" font-style="italic" lengthAdjust="spacing" textLength="226" x="633" y="220.1451">run(command: Command*): void</text><ellipse cx="624" cy="233.0953" fill="#84BE84" rx="3" ry="3" style="stroke:#038048;stroke-width:1.0;"/><text fill="#000000" font-family="sans-serif" font-size="14" lengthAdjust="spacing" textLength="268" x="633" y="236.442">notify(source: CommandSource*): void</text></g><!--class NormalParser--><g id="elem_NormalParser"><rect codeLine="27" fill="#F1F1F1" height="129.4844" id="NormalParser" rx="2.5" ry="2.5" style="stroke:#181818;stroke-width:0.5;" width="243" x="7" y="138.7"/><ellipse cx="78.25" cy="154.7" fill="#ADD1B2" rx="11" ry="11" style="stroke:#181818;stroke-width:1.0;"/><path d="M81.2188,160.3406 Q80.6406,160.6375 80,160.7781 Q79.3594,160.9344 78.6563,160.9344 Q76.1563,160.9344 74.8281,159.2938 Q73.5156,157.6375 73.5156,154.5125 Q73.5156,151.3875 74.8281,149.7313 Q76.1563,148.075 78.6563,148.075 Q79.3594,148.075 80,148.2313 Q80.6563,148.3875 81.2188,148.6844 L81.2188,151.4031 Q80.5938,150.825 80,150.5594 Q79.4063,150.2781 78.7813,150.2781 Q77.4375,150.2781 76.75,151.3563 Q76.0625,152.4188 76.0625,154.5125 Q76.0625,156.6063 76.75,157.6844 Q77.4375,158.7469 78.7813,158.7469 Q79.4063,158.7469 80,158.4813 Q80.5938,158.2 81.2188,157.6219 L81.2188,160.3406 Z " fill="#000000"/><text fill="#000000" font-family="sans-serif" font-size="14" lengthAdjust="spacing" textLength="92" x="98.75" y="159.5467">NormalParser</text><line style="stroke:#181818;stroke-width:0.5;" x1="8" x2="249" y1="170.7" y2="170.7"/><line style="stroke:#181818;stroke-width:0.5;" x1="8" x2="249" y1="178.7" y2="178.7"/><rect fill="#F24D5C" height="6" style="stroke:#C82930;stroke-width:1.0;" width="6" x="15" y="189.3484"/><text fill="#000000" font-family="sans-serif" font-size="14" lengthAdjust="spacing" textLength="106" x="27" y="195.6951">doReset(): void</text><ellipse cx="18" cy="208.6453" fill="#84BE84" rx="3" ry="3" style="stroke:#038048;stroke-width:1.0;"/><text fill="#000000" font-family="sans-serif" font-size="14" lengthAdjust="spacing" textLength="138" x="27" y="211.992">getNormal(): Normal</text><rect fill="#F24D5C" height="6" style="stroke:#C82930;stroke-width:1.0;" width="6" x="15" y="221.9422"/><text fill="#000000" font-family="sans-serif" font-size="14" lengthAdjust="spacing" textLength="106" x="27" y="228.2889">doReset(): void</text><rect fill="#F24D5C" height="6" style="stroke:#C82930;stroke-width:1.0;" width="6" x="15" y="238.2391"/><text fill="#000000" font-family="sans-serif" font-size="14" lengthAdjust="spacing" textLength="217" x="27" y="244.5857">parse(key: Keystroke): Boolean</text><ellipse cx="18" cy="257.5359" fill="#84BE84" rx="3" ry="3" style="stroke:#038048;stroke-width:1.0;"/><text fill="#000000" font-family="sans-serif" font-size="14" lengthAdjust="spacing" textLength="138" x="27" y="260.8826">getNormal(): Normal</text></g><!--class NormalRunner--><g id="elem_NormalRunner"><rect codeLine="32" fill="#F1F1F1" height="64.2969" id="NormalRunner" rx="2.5" ry="2.5" style="stroke:#181818;stroke-width:0.5;" width="229" x="976" y="221.29"/><ellipse cx="1036.75" cy="237.29" fill="#ADD1B2" rx="11" ry="11" style="stroke:#181818;stroke-width:1.0;"/><path d="M1039.7188,242.9306 Q1039.1406,243.2275 1038.5,243.3681 Q1037.8594,243.5244 1037.1563,243.5244 Q1034.6563,243.5244 1033.3281,241.8838 Q1032.0156,240.2275 1032.0156,237.1025 Q1032.0156,233.9775 1033.3281,232.3213 Q1034.6563,230.665 1037.1563,230.665 Q1037.8594,230.665 1038.5,230.8213 Q1039.1563,230.9775 1039.7188,231.2744 L1039.7188,233.9931 Q1039.0938,233.415 1038.5,233.1494 Q1037.9063,232.8681 1037.2813,232.8681 Q1035.9375,232.8681 1035.25,233.9463 Q1034.5625,235.0088 1034.5625,237.1025 Q1034.5625,239.1963 1035.25,240.2744 Q1035.9375,241.3369 1037.2813,241.3369 Q1037.9063,241.3369 1038.5,241.0713 Q1039.0938,240.79 1039.7188,240.2119 L1039.7188,242.9306 Z " fill="#000000"/><text fill="#000000" font-family="sans-serif" font-size="14" lengthAdjust="spacing" textLength="99" x="1057.25" y="242.1367">NormalRunner</text><line style="stroke:#181818;stroke-width:0.5;" x1="977" x2="1204" y1="253.29" y2="253.29"/><line style="stroke:#181818;stroke-width:0.5;" x1="977" x2="1204" y1="261.29" y2="261.29"/><ellipse cx="987" cy="274.9384" fill="#84BE84" rx="3" ry="3" style="stroke:#038048;stroke-width:1.0;"/><text fill="#000000" font-family="sans-serif" font-size="14" lengthAdjust="spacing" textLength="203" x="996" y="278.2851">run(command: Normal*): void</text></g><!--class HistoryManager--><g id="elem_HistoryManager"><rect codeLine="35" fill="#F1F1F1" height="64.2969" id="HistoryManager" rx="2.5" ry="2.5" style="stroke:#181818;stroke-width:0.5;" width="247" x="967" y="23.29"/><ellipse cx="1032.75" cy="39.29" fill="#ADD1B2" rx="11" ry="11" style="stroke:#181818;stroke-width:1.0;"/><path d="M1035.7188,44.9306 Q1035.1406,45.2275 1034.5,45.3681 Q1033.8594,45.5244 1033.1563,45.5244 Q1030.6563,45.5244 1029.3281,43.8838 Q1028.0156,42.2275 1028.0156,39.1025 Q1028.0156,35.9775 1029.3281,34.3213 Q1030.6563,32.665 1033.1563,32.665 Q1033.8594,32.665 1034.5,32.8213 Q1035.1563,32.9775 1035.7188,33.2744 L1035.7188,35.9931 Q1035.0938,35.415 1034.5,35.1494 Q1033.9063,34.8681 1033.2813,34.8681 Q1031.9375,34.8681 1031.25,35.9463 Q1030.5625,37.0088 1030.5625,39.1025 Q1030.5625,41.1963 1031.25,42.2744 Q1031.9375,43.3369 1033.2813,43.3369 Q1033.9063,43.3369 1034.5,43.0713 Q1035.0938,42.79 1035.7188,42.2119 L1035.7188,44.9306 Z " fill="#000000"/><text fill="#000000" font-family="sans-serif" font-size="14" lengthAdjust="spacing" textLength="107" x="1053.25" y="44.1367">HistoryManager</text><line style="stroke:#181818;stroke-width:0.5;" x1="968" x2="1213" y1="55.29" y2="55.29"/><rect fill="none" height="6" style="stroke:#C82930;stroke-width:1.0;" width="6" x="975" y="65.9384"/><text fill="#000000" font-family="sans-serif" font-size="14" lengthAdjust="spacing" textLength="221" x="987" y="72.2851">map&lt;String, HistoryTree&gt; trees</text><line style="stroke:#181818;stroke-width:0.5;" x1="968" x2="1213" y1="79.5869" y2="79.5869"/></g><!--class HistoryTree--><g id="elem_HistoryTree"><rect codeLine="38" fill="#F1F1F1" height="96.8906" id="HistoryTree" rx="2.5" ry="2.5" style="stroke:#181818;stroke-width:0.5;" width="172" x="674" y="7"/><ellipse cx="716.45" cy="23" fill="#ADD1B2" rx="11" ry="11" style="stroke:#181818;stroke-width:1.0;"/><path d="M719.4188,28.6406 Q718.8406,28.9375 718.2,29.0781 Q717.5594,29.2344 716.8563,29.2344 Q714.3563,29.2344 713.0281,27.5938 Q711.7156,25.9375 711.7156,22.8125 Q711.7156,19.6875 713.0281,18.0313 Q714.3563,16.375 716.8563,16.375 Q717.5594,16.375 718.2,16.5313 Q718.8563,16.6875 719.4188,16.9844 L719.4188,19.7031 Q718.7938,19.125 718.2,18.8594 Q717.6063,18.5781 716.9813,18.5781 Q715.6375,18.5781 714.95,19.6563 Q714.2625,20.7188 714.2625,22.8125 Q714.2625,24.9063 714.95,25.9844 Q715.6375,27.0469 716.9813,27.0469 Q717.6063,27.0469 718.2,26.7813 Q718.7938,26.5 719.4188,25.9219 L719.4188,28.6406 Z " fill="#000000"/><text fill="#000000" font-family="sans-serif" font-size="14" lengthAdjust="spacing" textLength="79" x="736.55" y="27.8467">HistoryTree</text><line style="stroke:#181818;stroke-width:0.5;" x1="675" x2="845" y1="39" y2="39"/><line style="stroke:#181818;stroke-width:0.5;" x1="675" x2="845" y1="47" y2="47"/><ellipse cx="685" cy="60.6484" fill="#84BE84" rx="3" ry="3" style="stroke:#038048;stroke-width:1.0;"/><text fill="#000000" font-family="sans-serif" font-size="14" lengthAdjust="spacing" textLength="146" x="694" y="63.9951">push(tab: Tab*): void</text><ellipse cx="685" cy="76.9453" fill="#84BE84" rx="3" ry="3" style="stroke:#038048;stroke-width:1.0;"/><text fill="#000000" font-family="sans-serif" font-size="14" lengthAdjust="spacing" textLength="85" x="694" y="80.292">undo(): bool</text><ellipse cx="685" cy="93.2422" fill="#84BE84" rx="3" ry="3" style="stroke:#038048;stroke-width:1.0;"/><text fill="#000000" font-family="sans-serif" font-size="14" lengthAdjust="spacing" textLength="81" x="694" y="96.5889">redo(): bool</text></g><!--class UndoRunner--><g id="elem_UndoRunner"><rect codeLine="47" fill="#F1F1F1" height="64.2969" id="UndoRunner" rx="2.5" ry="2.5" style="stroke:#181818;stroke-width:0.5;" width="229" x="976" y="122.29"/><ellipse cx="1042.25" cy="138.29" fill="#ADD1B2" rx="11" ry="11" style="stroke:#181818;stroke-width:1.0;"/><path d="M1045.2188,143.9306 Q1044.6406,144.2275 1044,144.3681 Q1043.3594,144.5244 1042.6563,144.5244 Q1040.1563,144.5244 1038.8281,142.8838 Q1037.5156,141.2275 1037.5156,138.1025 Q1037.5156,134.9775 1038.8281,133.3213 Q1040.1563,131.665 1042.6563,131.665 Q1043.3594,131.665 1044,131.8213 Q1044.6563,131.9775 1045.2188,132.2744 L1045.2188,134.9931 Q1044.5938,134.415 1044,134.1494 Q1043.4063,133.8681 1042.7813,133.8681 Q1041.4375,133.8681 1040.75,134.9463 Q1040.0625,136.0088 1040.0625,138.1025 Q1040.0625,140.1963 1040.75,141.2744 Q1041.4375,142.3369 1042.7813,142.3369 Q1043.4063,142.3369 1044,142.0713 Q1044.5938,141.79 1045.2188,141.2119 L1045.2188,143.9306 Z " fill="#000000"/><text fill="#000000" font-family="sans-serif" font-size="14" lengthAdjust="spacing" textLength="88" x="1062.75" y="143.1367">UndoRunner</text><line style="stroke:#181818;stroke-width:0.5;" x1="977" x2="1204" y1="154.29" y2="154.29"/><line style="stroke:#181818;stroke-width:0.5;" x1="977" x2="1204" y1="162.29" y2="162.29"/><ellipse cx="987" cy="175.9384" fill="#84BE84" rx="3" ry="3" style="stroke:#038048;stroke-width:1.0;"/><text fill="#000000" font-family="sans-serif" font-size="14" lengthAdjust="spacing" textLength="203" x="996" y="179.2851">run(command: Normal*): void</text></g><!--reverse link CommandRunner<Normal> to UndoRunner--><g id="link_CommandRunner&lt;Normal&gt;_UndoRunner"><path codeLine="50" d="M925.2829,178.9335 C948.2029,175.5135 953.8,174.68 975.84,171.4 " fill="none" id="CommandRunner&lt;Normal&gt;-backto-UndoRunner" style="stroke:#181818;stroke-width:1.0;"/><polygon fill="none" points="907.48,181.59,926.1684,184.8678,924.3974,172.9992,907.48,181.59" style="stroke:#181818;stroke-width:1.0;"/></g><!--reverse link UndoRunner to Window--><g id="link_UndoRunner_Window"><path codeLine="51" d="M1217.2542,150.5481 C1253.6942,149.4181 1279.8,148.62 1307.76,147.75 " fill="none" id="UndoRunner-backto-Window" style="stroke:#181818;stroke-width:1.0;"/><polygon fill="none" points="1205.26,150.92,1211.3811,154.7321,1217.2542,150.5481,1211.1331,146.736,1205.26,150.92" style="stroke:#181818;stroke-width:1.0;"/><text fill="#000000" font-family="sans-serif" font-size="13" lengthAdjust="spacing" textLength="8" x="1212.8681" y="163.2462">1</text></g><!--reverse link UndoRunner to RootStatus--><g id="link_UndoRunner_RootStatus"><path codeLine="52" d="M1185.1302,191.5553 C1198.5302,196.9553 1201.1,198.07 1214,203.44 C1233.36,211.51 1254.18,220.42 1273.56,228.82 " fill="none" id="UndoRunner-backto-RootStatus" style="stroke:#181818;stroke-width:1.0;"/><polygon fill="none" points="1174,187.07,1178.07,193.0227,1185.1302,191.5553,1181.0602,185.6026,1174,187.07" style="stroke:#181818;stroke-width:1.0;"/></g><!--link HistoryManager to UndoRunner--><g id="link_HistoryManager_UndoRunner"><path codeLine="53" d="M1090.5,87.92 C1090.5,99.27 1090.5,98.61 1090.5,109.96 " fill="none" id="HistoryManager-to-UndoRunner" style="stroke:#181818;stroke-width:1.0;"/><polygon fill="none" points="1090.5,121.96,1094.5,115.96,1090.5,109.96,1086.5,115.96,1090.5,121.96" style="stroke:#181818;stroke-width:1.0;"/></g><!--reverse link CommandParser<Normal> to CommandRunner<Normal>--><g id="link_CommandParser&lt;Normal&gt;_CommandRunner&lt;Normal&gt;"><path codeLine="54" d="M565.1479,216.0232 C584.4979,216.3832 592.7,216.28 612.57,216.13 " fill="none" id="CommandParser&lt;Normal&gt;-backto-CommandRunner&lt;Normal&gt;" style="stroke:#181818;stroke-width:1.0;"/><polygon fill="none" points="553.15,215.8,559.0746,219.9109,565.1479,216.0232,559.2234,211.9123,553.15,215.8" style="stroke:#181818;stroke-width:1.0;"/><text fill="#000000" font-family="sans-serif" font-size="13" lengthAdjust="spacing" textLength="23" x="560.8477" y="229.0187">0..*</text></g><!--reverse link CommandParser<Normal> to CommandRunner<Normal>--><g id="link_CommandParser&lt;Normal&gt;_CommandRunner&lt;Normal&gt;"><path codeLine="62" d="M565.1476,190.1182 C584.4976,189.7282 592.7,189.86 612.57,190.01 " fill="none" id="CommandParser&lt;Normal&gt;-backto-CommandRunner&lt;Normal&gt;-1" style="stroke:#181818;stroke-width:1.0;"/><polygon fill="none" points="553.15,190.36,559.2294,194.2383,565.1476,190.1182,559.0682,186.2399,553.15,190.36" style="stroke:#181818;stroke-width:1.0;"/><text fill="#000000" font-family="sans-serif" font-size="13" lengthAdjust="spacing" textLength="23" x="560.8477" y="202.1079">0..*</text></g><!--reverse link HistoryTree to HistoryManager--><g id="link_HistoryTree_HistoryManager"><path codeLine="55" d="M852.45,55.44 C889.14,55.44 926.71,55.44 966.75,55.44 " fill="none" id="HistoryTree-backto-HistoryManager" style="stroke:#181818;stroke-width:1.0;"/><polygon fill="#181818" points="846.45,55.44,855.45,59.44,851.45,55.44,855.45,51.44,846.45,55.44" style="stroke:#181818;stroke-width:1.0;"/><text fill="#000000" font-family="sans-serif" font-size="13" lengthAdjust="spacing" textLength="60" x="853.9101" y="67.9913">manages</text></g><!--link Data to Clipboard--><g id="link_Data_Clipboard"><path codeLine="56" d="M846.45,344.44 C908.62,344.44 978.51,344.44 1029.58,344.44 " fill="none" id="Data-to-Clipboard" style="stroke:#181818;stroke-width:1.0;"/><polygon fill="none" points="1041.58,344.44,1035.58,340.44,1029.58,344.44,1035.58,348.44,1041.58,344.44" style="stroke:#181818;stroke-width:1.0;"/><text fill="#000000" font-family="sans-serif" font-size="13" lengthAdjust="spacing" textLength="23" x="1010.8387" y="357.4763">0..*</text></g><!--reverse link CommandRunner<Normal> to NormalRunner--><g id="link_CommandRunner&lt;Normal&gt;_NormalRunner"><path codeLine="57" d="M925.2749,228.4496 C948.1949,231.9396 953.8,232.79 975.84,236.14 " fill="none" id="CommandRunner&lt;Normal&gt;-backto-NormalRunner" style="stroke:#181818;stroke-width:1.0;"/><polygon fill="none" points="907.48,225.74,924.3717,234.3812,926.1781,222.518,907.48,225.74" style="stroke:#181818;stroke-width:1.0;"/></g><!--link NormalParser to CommandParser<Normal>--><g id="link_NormalParser_CommandParser&lt;Normal&gt;"><path codeLine="58" d="M250.19,203.44 C269.82,203.44 272.15,203.44 291.78,203.44 " fill="none" id="NormalParser-to-CommandParser&lt;Normal&gt;" style="stroke:#181818;stroke-width:1.0;"/><polygon fill="none" points="309.78,203.44,291.78,197.44,291.78,209.44,309.78,203.44" style="stroke:#181818;stroke-width:1.0;"/></g><!--reverse link NormalRunner to Window--><g id="link_NormalRunner_Window"><path codeLine="59" d="M1184.7743,216.4048 C1198.2843,210.9748 1200.98,209.82 1214,204.44 C1245.43,191.46 1280.76,176.37 1307.53,164.85 " fill="none" id="NormalRunner-backto-Window" style="stroke:#181818;stroke-width:1.0;"/><polygon fill="none" points="1173.64,220.88,1180.6989,222.3539,1184.7743,216.4048,1177.7154,214.931,1173.64,220.88" style="stroke:#181818;stroke-width:1.0;"/><text fill="#000000" font-family="sans-serif" font-size="13" lengthAdjust="spacing" textLength="8" x="1180.7261" y="210.3234">1</text></g><!--reverse link NormalRunner to RootStatus--><g id="link_NormalRunner_RootStatus"><path codeLine="60" d="M1217.2527,257.8194 C1240.4127,258.6294 1252.26,259.04 1273.73,259.79 " fill="none" id="NormalRunner-backto-RootStatus" style="stroke:#181818;stroke-width:1.0;"/><polygon fill="none" points="1205.26,257.4,1211.1165,261.6073,1217.2527,257.8194,1211.3961,253.6122,1205.26,257.4" style="stroke:#181818;stroke-width:1.0;"/></g><!--reverse link NormalRunner to Clipboard--><g id="link_NormalRunner_Clipboard"><path codeLine="61" d="M1090.5,298.07 C1090.5,309.47 1090.5,308.87 1090.5,320.27 " fill="none" id="NormalRunner-backto-Clipboard" style="stroke:#181818;stroke-width:1.0;"/><polygon fill="none" points="1090.5,286.07,1086.5,292.07,1090.5,298.07,1094.5,292.07,1090.5,286.07" style="stroke:#181818;stroke-width:1.0;"/></g><!--SRC=[fLJBRjim4BppAnOwAKuKj5V1yA7keKNHeB1Jz4o96uM8n3N8LGF3yR-N5FsGLAjDa8l0VSxiQCaQ7nYOmEhgaK5fYoLhCa8MZgqi6Nvfe-XvjnVURhtzMRBS2O3haWoZOPV3cgqsLV19fUxmkTO6S_X4LACqOY_AMZe7orfl2f9MxKwk5H6lMNBhGiUiGUTaXRs66LfBTadAExzwk0gjBpvnIvRKDDAe7z8wjFCxiesi5qbejZicxJD5AtJ8wLKElqchON0JIjCdtERm3RVUIqzuTIRlPxAZuZ2uQviBHLt21NghrfWUFUZaEtEmhKdBc9d3eMJMmpF4-c6REcfjYQUCTMVEph1HqWWI1Uc0Ben_NI77lE2CfpSrU8Lg_uU8gaGn1XB4y5-JVT6EoMw_I-Dtv42jaPjvN9QRO_pU8Yw0_TUDIqCeucrQzvYoB7AubqLVwzOlUs1S-4dYp-_PxrpRMFpJ8xn-zAaLchzaMR-Lw9sJZmcG3yUREmW5zvcz64cQqQ3bnEs2vCFjxIn2JD0JVS6JfcllF6bVCOGKuJM1p0CVcfuU2VZtw8CL4eETpRANnTJBS4oTK6eG76arYbrY-dQX_W00]--></g></svg>