<?xml version="1.0" encoding="us-ascii" standalone="no"?><svg xmlns="http://www.w3.org/2000/svg" xmlns:xlink="http://www.w3.org/1999/xlink" contentStyleType="text/css" height="409px" preserveAspectRatio="none" style="width:1536px;height:409px;background:#FFFFFF;" version="1.1" viewBox="0 0 1536 409" width="1536px" zoomAndPan="magnify"><defs/><g><!--class MacroParser--><g id="elem_MacroParser"><rect codeLine="2" fill="#F1F1F1" height="96.8906" id="MacroParser" rx="2.5" ry="2.5" style="stroke:#181818;stroke-width:0.5;" width="243" x="7" y="189.56"/><ellipse cx="81.25" cy="205.56" fill="#ADD1B2" rx="11" ry="11" style="stroke:#181818;stroke-width:1.0;"/><path d="M84.2188,211.2006 Q83.6406,211.4975 83,211.6381 Q82.3594,211.7944 81.6563,211.7944 Q79.1563,211.7944 77.8281,210.1538 Q76.5156,208.4975 76.5156,205.3725 Q76.5156,202.2475 77.8281,200.5913 Q79.1563,198.935 81.6563,198.935 Q82.3594,198.935 83,199.0913 Q83.6563,199.2475 84.2188,199.5444 L84.2188,202.2631 Q83.5938,201.685 83,201.4194 Q82.4063,201.1381 81.7813,201.1381 Q80.4375,201.1381 79.75,202.2163 Q79.0625,203.2788 79.0625,205.3725 Q79.0625,207.4663 79.75,208.5444 Q80.4375,209.6069 81.7813,209.6069 Q82.4063,209.6069 83,209.3413 Q83.5938,209.06 84.2188,208.4819 L84.2188,211.2006 Z " fill="#000000"/><text fill="#000000" font-family="sans-serif" font-size="14" lengthAdjust="spacing" textLength="86" x="101.75" y="210.4067">MacroParser</text><line style="stroke:#181818;stroke-width:0.5;" x1="8" x2="249" y1="221.56" y2="221.56"/><line style="stroke:#181818;stroke-width:0.5;" x1="8" x2="249" y1="229.56" y2="229.56"/><rect fill="#F24D5C" height="6" style="stroke:#C82930;stroke-width:1.0;" width="6" x="15" y="240.2084"/><text fill="#000000" font-family="sans-serif" font-size="14" lengthAdjust="spacing" textLength="106" x="27" y="246.5551">doReset(): void</text><rect fill="#F24D5C" height="6" style="stroke:#C82930;stroke-width:1.0;" width="6" x="15" y="256.5053"/><text fill="#000000" font-family="sans-serif" font-size="14" lengthAdjust="spacing" textLength="217" x="27" y="262.852">parse(key: Keystroke): Boolean</text><ellipse cx="18" cy="275.8022" fill="#84BE84" rx="3" ry="3" style="stroke:#038048;stroke-width:1.0;"/><text fill="#000000" font-family="sans-serif" font-size="14" lengthAdjust="spacing" textLength="126" x="27" y="279.1489">getMacro(): Macro</text></g><!--class Window--><g id="elem_Window"><rect codeLine="7" fill="#F1F1F1" height="48" id="Window" rx="2.5" ry="2.5" style="stroke:#181818;stroke-width:0.5;" width="86" x="1399.5" y="197"/><ellipse cx="1414.5" cy="213" fill="#A9DCDF" rx="11" ry="11" style="stroke:#181818;stroke-width:1.0;"/><path d="M1414.6094,208.3438 L1413.4531,213.4219 L1415.7813,213.4219 L1414.6094,208.3438 Z M1413.125,206.1094 L1416.1094,206.1094 L1419.4688,218.5 L1417.0156,218.5 L1416.25,215.4375 L1412.9688,215.4375 L1412.2188,218.5 L1409.7813,218.5 L1413.125,206.1094 Z " fill="#000000"/><text fill="#000000" font-family="sans-serif" font-size="14" font-style="italic" lengthAdjust="spacing" textLength="54" x="1428.5" y="217.8467">Window</text><line style="stroke:#181818;stroke-width:0.5;" x1="1400.5" x2="1484.5" y1="229" y2="229"/><line style="stroke:#181818;stroke-width:0.5;" x1="1400.5" x2="1484.5" y1="237" y2="237"/></g><!--class CommandParser<Macro>--><g id="elem_CommandParser&lt;Macro&gt;"><rect codeLine="8" fill="#F1F1F1" height="113.1875" id="CommandParser&lt;Macro&gt;" rx="2.5" ry="2.5" style="stroke:#181818;stroke-width:0.5;" width="243" x="310" y="181.41"/><ellipse cx="338.5" cy="197.41" fill="#A9DCDF" rx="11" ry="11" style="stroke:#181818;stroke-width:1.0;"/><path d="M338.6094,192.7538 L337.4531,197.8319 L339.7813,197.8319 L338.6094,192.7538 Z M337.125,190.5194 L340.1094,190.5194 L343.4688,202.91 L341.0156,202.91 L340.25,199.8475 L336.9688,199.8475 L336.2188,202.91 L333.7813,202.91 L337.125,190.5194 Z " fill="#000000"/><text fill="#000000" font-family="sans-serif" font-size="14" font-style="italic" lengthAdjust="spacing" textLength="181" x="355.5" y="202.2567">CommandParser&lt;Macro&gt;</text><line style="stroke:#181818;stroke-width:0.5;" x1="311" x2="552" y1="213.41" y2="213.41"/><line style="stroke:#181818;stroke-width:0.5;" x1="311" x2="552" y1="221.41" y2="221.41"/><rect fill="#F24D5C" height="6" style="stroke:#C82930;stroke-width:1.0;" width="6" x="318" y="232.0584"/><text fill="#000000" font-family="sans-serif" font-size="14" font-style="italic" lengthAdjust="spacing" textLength="106" x="330" y="238.4051">doReset(): void</text><rect fill="#F24D5C" height="6" style="stroke:#C82930;stroke-width:1.0;" width="6" x="318" y="248.3553"/><text fill="#000000" font-family="sans-serif" font-size="14" font-style="italic" lengthAdjust="spacing" textLength="217" x="330" y="254.702">parse(key: Keystroke): Boolean</text><ellipse cx="321" cy="267.6522" fill="#84BE84" rx="3" ry="3" style="stroke:#038048;stroke-width:1.0;"/><text fill="#000000" font-family="sans-serif" font-size="14" lengthAdjust="spacing" textLength="83" x="330" y="270.9989">reset(): void</text><ellipse cx="321" cy="283.9491" fill="#84BE84" rx="3" ry="3" style="stroke:#038048;stroke-width:1.0;"/><text fill="#000000" font-family="sans-serif" font-size="14" lengthAdjust="spacing" textLength="214" x="330" y="287.2957">consume(key: Keystroke): void</text></g><!--class CommandRunner<Macro>--><g id="elem_CommandRunner&lt;Macro&gt;"><rect codeLine="14" fill="#F1F1F1" height="80.5938" id="CommandRunner&lt;Macro&gt;" rx="2.5" ry="2.5" style="stroke:#181818;stroke-width:0.5;" width="294" x="613" y="197.71"/><ellipse cx="661.75" cy="213.71" fill="#A9DCDF" rx="11" ry="11" style="stroke:#181818;stroke-width:1.0;"/><path d="M661.8594,209.0538 L660.7031,214.1319 L663.0313,214.1319 L661.8594,209.0538 Z M660.375,206.8194 L663.3594,206.8194 L666.7188,219.21 L664.2656,219.21 L663.5,216.1475 L660.2188,216.1475 L659.4688,219.21 L657.0313,219.21 L660.375,206.8194 Z " fill="#000000"/><text fill="#000000" font-family="sans-serif" font-size="14" font-style="italic" lengthAdjust="spacing" textLength="188" x="682.25" y="218.5567">CommandRunner&lt;Macro&gt;</text><line style="stroke:#181818;stroke-width:0.5;" x1="614" x2="906" y1="229.71" y2="229.71"/><line style="stroke:#181818;stroke-width:0.5;" x1="614" x2="906" y1="237.71" y2="237.71"/><ellipse cx="624" cy="251.3584" fill="#84BE84" rx="3" ry="3" style="stroke:#038048;stroke-width:1.0;"/><text fill="#000000" font-family="sans-serif" font-size="14" font-style="italic" lengthAdjust="spacing" textLength="226" x="633" y="254.7051">run(command: Command*): void</text><ellipse cx="624" cy="267.6553" fill="#84BE84" rx="3" ry="3" style="stroke:#038048;stroke-width:1.0;"/><text fill="#000000" font-family="sans-serif" font-size="14" lengthAdjust="spacing" textLength="268" x="633" y="271.002">notify(source: CommandSource*): void</text></g><!--class MacroRunner--><g id="elem_MacroRunner"><rect codeLine="18" fill="#F1F1F1" height="96.8906" id="MacroRunner" rx="2.5" ry="2.5" style="stroke:#181818;stroke-width:0.5;" width="329" x="967" y="189.56"/><ellipse cx="1080.75" cy="205.56" fill="#ADD1B2" rx="11" ry="11" style="stroke:#181818;stroke-width:1.0;"/><path d="M1083.7188,211.2006 Q1083.1406,211.4975 1082.5,211.6381 Q1081.8594,211.7944 1081.1563,211.7944 Q1078.6563,211.7944 1077.3281,210.1538 Q1076.0156,208.4975 1076.0156,205.3725 Q1076.0156,202.2475 1077.3281,200.5913 Q1078.6563,198.935 1081.1563,198.935 Q1081.8594,198.935 1082.5,199.0913 Q1083.1563,199.2475 1083.7188,199.5444 L1083.7188,202.2631 Q1083.0938,201.685 1082.5,201.4194 Q1081.9063,201.1381 1081.2813,201.1381 Q1079.9375,201.1381 1079.25,202.2163 Q1078.5625,203.2788 1078.5625,205.3725 Q1078.5625,207.4663 1079.25,208.5444 Q1079.9375,209.6069 1081.2813,209.6069 Q1081.9063,209.6069 1082.5,209.3413 Q1083.0938,209.06 1083.7188,208.4819 L1083.7188,211.2006 Z " fill="#000000"/><text fill="#000000" font-family="sans-serif" font-size="14" lengthAdjust="spacing" textLength="93" x="1101.25" y="210.4067">MacroRunner</text><line style="stroke:#181818;stroke-width:0.5;" x1="968" x2="1295" y1="221.56" y2="221.56"/><rect fill="none" height="6" style="stroke:#C82930;stroke-width:1.0;" width="6" x="975" y="232.2084"/><text fill="#000000" font-family="sans-serif" font-size="14" lengthAdjust="spacing" textLength="303" x="987" y="238.5551">registers: map&lt;Character, KeyStroke[0..*]&gt;</text><rect fill="none" height="6" style="stroke:#C82930;stroke-width:1.0;" width="6" x="975" y="248.5053"/><text fill="#000000" font-family="sans-serif" font-size="14" lengthAdjust="spacing" textLength="207" x="987" y="254.852">modeManager: ModeManger*</text><line style="stroke:#181818;stroke-width:0.5;" x1="968" x2="1295" y1="262.1538" y2="262.1538"/><ellipse cx="978" cy="275.8022" fill="#84BE84" rx="3" ry="3" style="stroke:#038048;stroke-width:1.0;"/><text fill="#000000" font-family="sans-serif" font-size="14" lengthAdjust="spacing" textLength="197" x="987" y="279.1489">run(command: Macro*): void</text></g><!--class CommandRunner<Command>--><g id="elem_CommandRunner&lt;Command&gt;"><rect codeLine="23" fill="#F1F1F1" height="48" id="CommandRunner&lt;Command&gt;" rx="2.5" ry="2.5" style="stroke:#181818;stroke-width:0.5;" width="249" x="1007" y="7"/><ellipse cx="1022" cy="23" fill="#A9DCDF" rx="11" ry="11" style="stroke:#181818;stroke-width:1.0;"/><path d="M1022.1094,18.3438 L1020.9531,23.4219 L1023.2813,23.4219 L1022.1094,18.3438 Z M1020.625,16.1094 L1023.6094,16.1094 L1026.9688,28.5 L1024.5156,28.5 L1023.75,25.4375 L1020.4688,25.4375 L1019.7188,28.5 L1017.2813,28.5 L1020.625,16.1094 Z " fill="#000000"/><text fill="#000000" font-family="sans-serif" font-size="14" font-style="italic" lengthAdjust="spacing" textLength="217" x="1036" y="27.8467">CommandRunner&lt;Command&gt;</text><line style="stroke:#181818;stroke-width:0.5;" x1="1008" x2="1255" y1="39" y2="39"/><line style="stroke:#181818;stroke-width:0.5;" x1="1008" x2="1255" y1="47" y2="47"/></g><!--class KeystrokeConsumer--><g id="elem_KeystrokeConsumer"><rect codeLine="24" fill="#F1F1F1" height="48" id="KeystrokeConsumer" rx="2.5" ry="2.5" style="stroke:#181818;stroke-width:0.5;" width="173" x="1356" y="98"/><ellipse cx="1371" cy="114" fill="#A9DCDF" rx="11" ry="11" style="stroke:#181818;stroke-width:1.0;"/><path d="M1371.1094,109.3438 L1369.9531,114.4219 L1372.2813,114.4219 L1371.1094,109.3438 Z M1369.625,107.1094 L1372.6094,107.1094 L1375.9688,119.5 L1373.5156,119.5 L1372.75,116.4375 L1369.4688,116.4375 L1368.7188,119.5 L1366.2813,119.5 L1369.625,107.1094 Z " fill="#000000"/><text fill="#000000" font-family="sans-serif" font-size="14" font-style="italic" lengthAdjust="spacing" textLength="141" x="1385" y="118.8467">KeystrokeConsumer</text><line style="stroke:#181818;stroke-width:0.5;" x1="1357" x2="1528" y1="130" y2="130"/><line style="stroke:#181818;stroke-width:0.5;" x1="1357" x2="1528" y1="138" y2="138"/></g><!--class ParserGroup--><g id="elem_ParserGroup"><rect codeLine="25" fill="#F1F1F1" height="64.2969" id="ParserGroup" rx="2.5" ry="2.5" style="stroke:#181818;stroke-width:0.5;" width="309" x="977" y="89.85"/><ellipse cx="1083.75" cy="105.85" fill="#ADD1B2" rx="11" ry="11" style="stroke:#181818;stroke-width:1.0;"/><path d="M1086.7188,111.4906 Q1086.1406,111.7875 1085.5,111.9281 Q1084.8594,112.0844 1084.1563,112.0844 Q1081.6563,112.0844 1080.3281,110.4438 Q1079.0156,108.7875 1079.0156,105.6625 Q1079.0156,102.5375 1080.3281,100.8813 Q1081.6563,99.225 1084.1563,99.225 Q1084.8594,99.225 1085.5,99.3813 Q1086.1563,99.5375 1086.7188,99.8344 L1086.7188,102.5531 Q1086.0938,101.975 1085.5,101.7094 Q1084.9063,101.4281 1084.2813,101.4281 Q1082.9375,101.4281 1082.25,102.5063 Q1081.5625,103.5688 1081.5625,105.6625 Q1081.5625,107.7563 1082.25,108.8344 Q1082.9375,109.8969 1084.2813,109.8969 Q1084.9063,109.8969 1085.5,109.6313 Q1086.0938,109.35 1086.7188,108.7719 L1086.7188,111.4906 Z " fill="#000000"/><text fill="#000000" font-family="sans-serif" font-size="14" lengthAdjust="spacing" textLength="87" x="1104.25" y="110.6967">ParserGroup</text><line style="stroke:#181818;stroke-width:0.5;" x1="978" x2="1285" y1="121.85" y2="121.85"/><line style="stroke:#181818;stroke-width:0.5;" x1="978" x2="1285" y1="129.85" y2="129.85"/><ellipse cx="988" cy="143.4984" fill="#84BE84" rx="3" ry="3" style="stroke:#038048;stroke-width:1.0;"/><text fill="#000000" font-family="sans-serif" font-size="14" lengthAdjust="spacing" textLength="283" x="997" y="146.8451">add(parser: BaseCommandParser*): void</text></g><!--class HistoryRecorder--><g id="elem_HistoryRecorder"><rect codeLine="28" fill="#F1F1F1" height="80.5938" id="HistoryRecorder" rx="2.5" ry="2.5" style="stroke:#181818;stroke-width:0.5;" width="255" x="1004" y="321.71"/><ellipse cx="1071.75" cy="337.71" fill="#ADD1B2" rx="11" ry="11" style="stroke:#181818;stroke-width:1.0;"/><path d="M1074.7188,343.3506 Q1074.1406,343.6475 1073.5,343.7881 Q1072.8594,343.9444 1072.1563,343.9444 Q1069.6563,343.9444 1068.3281,342.3038 Q1067.0156,340.6475 1067.0156,337.5225 Q1067.0156,334.3975 1068.3281,332.7413 Q1069.6563,331.085 1072.1563,331.085 Q1072.8594,331.085 1073.5,331.2413 Q1074.1563,331.3975 1074.7188,331.6944 L1074.7188,334.4131 Q1074.0938,333.835 1073.5,333.5694 Q1072.9063,333.2881 1072.2813,333.2881 Q1070.9375,333.2881 1070.25,334.3663 Q1069.5625,335.4288 1069.5625,337.5225 Q1069.5625,339.6163 1070.25,340.6944 Q1070.9375,341.7569 1072.2813,341.7569 Q1072.9063,341.7569 1073.5,341.4913 Q1074.0938,341.21 1074.7188,340.6319 L1074.7188,343.3506 Z " fill="#000000"/><text fill="#000000" font-family="sans-serif" font-size="14" lengthAdjust="spacing" textLength="111" x="1092.25" y="342.5567">HistoryRecorder</text><line style="stroke:#181818;stroke-width:0.5;" x1="1005" x2="1258" y1="353.71" y2="353.71"/><rect fill="none" height="6" style="stroke:#C82930;stroke-width:1.0;" width="6" x="1012" y="364.3584"/><text fill="#000000" font-family="sans-serif" font-size="14" lengthAdjust="spacing" textLength="171" x="1024" y="370.7051">activeWindow: Window**</text><rect fill="none" height="6" style="stroke:#C82930;stroke-width:1.0;" width="6" x="1012" y="380.6553"/><text fill="#000000" font-family="sans-serif" font-size="14" lengthAdjust="spacing" textLength="229" x="1024" y="387.002">historyManager: HistoryManager*</text><line style="stroke:#181818;stroke-width:0.5;" x1="1005" x2="1258" y1="394.3038" y2="394.3038"/></g><!--class CursorRecorder--><g id="elem_CursorRecorder"><rect codeLine="32" fill="#F1F1F1" height="48" id="CursorRecorder" rx="2.5" ry="2.5" style="stroke:#181818;stroke-width:0.5;" width="142" x="689" y="338"/><ellipse cx="704" cy="354" fill="#ADD1B2" rx="11" ry="11" style="stroke:#181818;stroke-width:1.0;"/><path d="M706.9688,359.6406 Q706.3906,359.9375 705.75,360.0781 Q705.1094,360.2344 704.4063,360.2344 Q701.9063,360.2344 700.5781,358.5938 Q699.2656,356.9375 699.2656,353.8125 Q699.2656,350.6875 700.5781,349.0313 Q701.9063,347.375 704.4063,347.375 Q705.1094,347.375 705.75,347.5313 Q706.4063,347.6875 706.9688,347.9844 L706.9688,350.7031 Q706.3438,350.125 705.75,349.8594 Q705.1563,349.5781 704.5313,349.5781 Q703.1875,349.5781 702.5,350.6563 Q701.8125,351.7188 701.8125,353.8125 Q701.8125,355.9063 702.5,356.9844 Q703.1875,358.0469 704.5313,358.0469 Q705.1563,358.0469 705.75,357.7813 Q706.3438,357.5 706.9688,356.9219 L706.9688,359.6406 Z " fill="#000000"/><text fill="#000000" font-family="sans-serif" font-size="14" lengthAdjust="spacing" textLength="110" x="718" y="358.8467">CursorRecorder</text><line style="stroke:#181818;stroke-width:0.5;" x1="690" x2="830" y1="370" y2="370"/><line style="stroke:#181818;stroke-width:0.5;" x1="690" x2="830" y1="378" y2="378"/></g><!--class RootStatus--><g id="elem_RootStatus"><rect fill="#F1F1F1" height="48" id="RootStatus" rx="2.5" ry="2.5" style="stroke:#181818;stroke-width:0.5;" width="109" x="1388" y="280"/><ellipse cx="1403" cy="296" fill="#ADD1B2" rx="11" ry="11" style="stroke:#181818;stroke-width:1.0;"/><path d="M1405.9688,301.6406 Q1405.3906,301.9375 1404.75,302.0781 Q1404.1094,302.2344 1403.4063,302.2344 Q1400.9063,302.2344 1399.5781,300.5938 Q1398.2656,298.9375 1398.2656,295.8125 Q1398.2656,292.6875 1399.5781,291.0313 Q1400.9063,289.375 1403.4063,289.375 Q1404.1094,289.375 1404.75,289.5313 Q1405.4063,289.6875 1405.9688,289.9844 L1405.9688,292.7031 Q1405.3438,292.125 1404.75,291.8594 Q1404.1563,291.5781 1403.5313,291.5781 Q1402.1875,291.5781 1401.5,292.6563 Q1400.8125,293.7188 1400.8125,295.8125 Q1400.8125,297.9063 1401.5,298.9844 Q1402.1875,300.0469 1403.5313,300.0469 Q1404.1563,300.0469 1404.75,299.7813 Q1405.3438,299.5 1405.9688,298.9219 L1405.9688,301.6406 Z " fill="#000000"/><text fill="#000000" font-family="sans-serif" font-size="14" lengthAdjust="spacing" textLength="77" x="1417" y="300.8467">RootStatus</text><line style="stroke:#181818;stroke-width:0.5;" x1="1389" x2="1496" y1="312" y2="312"/><line style="stroke:#181818;stroke-width:0.5;" x1="1389" x2="1496" y1="320" y2="320"/></g><!--class BaseCommandParser--><g id="elem_BaseCommandParser"><rect fill="#F1F1F1" height="48" id="BaseCommandParser" rx="2.5" ry="2.5" style="stroke:#181818;stroke-width:0.5;" width="182" x="669" y="98"/><ellipse cx="684" cy="114" fill="#ADD1B2" rx="11" ry="11" style="stroke:#181818;stroke-width:1.0;"/><path d="M686.9688,119.6406 Q686.3906,119.9375 685.75,120.0781 Q685.1094,120.2344 684.4063,120.2344 Q681.9063,120.2344 680.5781,118.5938 Q679.2656,116.9375 679.2656,113.8125 Q679.2656,110.6875 680.5781,109.0313 Q681.9063,107.375 684.4063,107.375 Q685.1094,107.375 685.75,107.5313 Q686.4063,107.6875 686.9688,107.9844 L686.9688,110.7031 Q686.3438,110.125 685.75,109.8594 Q685.1563,109.5781 684.5313,109.5781 Q683.1875,109.5781 682.5,110.6563 Q681.8125,111.7188 681.8125,113.8125 Q681.8125,115.9063 682.5,116.9844 Q683.1875,118.0469 684.5313,118.0469 Q685.1563,118.0469 685.75,117.7813 Q686.3438,117.5 686.9688,116.9219 L686.9688,119.6406 Z " fill="#000000"/><text fill="#000000" font-family="sans-serif" font-size="14" lengthAdjust="spacing" textLength="150" x="698" y="118.8467">BaseCommandParser</text><line style="stroke:#181818;stroke-width:0.5;" x1="670" x2="850" y1="130" y2="130"/><line style="stroke:#181818;stroke-width:0.5;" x1="670" x2="850" y1="138" y2="138"/></g><!--reverse link CommandRunner<Macro> to MacroRunner--><g id="link_CommandRunner&lt;Macro&gt;_MacroRunner"><path codeLine="33" d="M925.3,238 C944.76,238 946.81,238 966.54,238 " fill="none" id="CommandRunner&lt;Macro&gt;-backto-MacroRunner" style="stroke:#181818;stroke-width:1.0;"/><polygon fill="none" points="907.3,238,925.3,244,925.3,232,907.3,238" style="stroke:#181818;stroke-width:1.0;"/></g><!--link MacroParser to CommandParser<Macro>--><g id="link_MacroParser_CommandParser&lt;Macro&gt;"><path codeLine="34" d="M250.19,238 C269.82,238 272.15,238 291.78,238 " fill="none" id="MacroParser-to-CommandParser&lt;Macro&gt;" style="stroke:#181818;stroke-width:1.0;"/><polygon fill="none" points="309.78,238,291.78,232,291.78,244,309.78,238" style="stroke:#181818;stroke-width:1.0;"/></g><!--reverse link MacroRunner to Window--><g id="link_MacroRunner_Window"><path codeLine="35" d="M1308.0318,228.3485 C1346.2518,226.2385 1371.74,224.84 1399.08,223.34 " fill="none" id="MacroRunner-backto-Window" style="stroke:#181818;stroke-width:1.0;"/><polygon fill="none" points="1296.05,229.01,1302.2614,232.6732,1308.0318,228.3485,1301.8204,224.6853,1296.05,229.01" style="stroke:#181818;stroke-width:1.0;"/><text fill="#000000" font-family="sans-serif" font-size="13" lengthAdjust="spacing" textLength="8" x="1304.2141" y="241.0077">1</text></g><!--reverse link MacroRunner to RootStatus--><g id="link_MacroRunner_RootStatus"><path codeLine="36" d="M1307.7853,275.4464 C1340.9353,282.5264 1361.79,286.98 1387.7,292.51 " fill="none" id="MacroRunner-backto-RootStatus" style="stroke:#181818;stroke-width:1.0;"/><polygon fill="none" points="1296.05,272.94,1301.0822,278.105,1307.7853,275.4464,1302.7531,270.2814,1296.05,272.94" style="stroke:#181818;stroke-width:1.0;"/></g><!--link ParserGroup to MacroRunner--><g id="link_ParserGroup_MacroRunner"><path codeLine="37" d="M1131.5,154.49 C1131.5,166.01 1131.5,165.54 1131.5,177.07 " fill="none" id="ParserGroup-to-MacroRunner" style="stroke:#181818;stroke-width:1.0;"/><polygon fill="none" points="1131.5,189.07,1135.5,183.07,1131.5,177.07,1127.5,183.07,1131.5,189.07" style="stroke:#181818;stroke-width:1.0;"/></g><!--link BaseCommandParser to ParserGroup--><g id="link_BaseCommandParser_ParserGroup"><path codeLine="38" d="M851.39,122 C889.1,122 921.98,122 964.6,122 " fill="none" id="BaseCommandParser-to-ParserGroup" style="stroke:#181818;stroke-width:1.0;"/><polygon fill="none" points="976.6,122,970.6,118,964.6,122,970.6,126,976.6,122" style="stroke:#181818;stroke-width:1.0;"/><text fill="#000000" font-family="sans-serif" font-size="13" lengthAdjust="spacing" textLength="23" x="946.06" y="134.4098">0..*</text></g><!--reverse link CommandRunner<Command> to ParserGroup--><g id="link_CommandRunner&lt;Command&gt;_ParserGroup"><path codeLine="39" d="M1131.5,73.29 C1131.5,84.74 1131.5,78.2 1131.5,89.66 " fill="none" id="CommandRunner&lt;Command&gt;-backto-ParserGroup" style="stroke:#181818;stroke-width:1.0;"/><polygon fill="none" points="1131.5,55.29,1125.5,73.29,1137.5,73.29,1131.5,55.29" style="stroke:#181818;stroke-width:1.0;"/></g><!--reverse link CommandParser<Macro> to CommandRunner<Macro>--><g id="link_CommandParser&lt;Macro&gt;_CommandRunner&lt;Macro&gt;"><path codeLine="40" d="M565.15,238 C584.5,238 592.7,238 612.57,238 " fill="none" id="CommandParser&lt;Macro&gt;-backto-CommandRunner&lt;Macro&gt;" style="stroke:#181818;stroke-width:1.0;"/><polygon fill="none" points="553.15,238,559.15,242,565.15,238,559.15,234,553.15,238" style="stroke:#181818;stroke-width:1.0;"/><text fill="#000000" font-family="sans-serif" font-size="13" lengthAdjust="spacing" textLength="23" x="560.8477" y="250.5041">0..*</text></g><!--link ParserGroup to KeystrokeConsumer--><g id="link_ParserGroup_KeystrokeConsumer"><path codeLine="41" d="M1286.09,122 C1310.03,122 1315.99,122 1337.68,122 " fill="none" id="ParserGroup-to-KeystrokeConsumer" style="stroke:#181818;stroke-width:1.0;"/><polygon fill="none" points="1355.68,122,1337.68,116,1337.68,128,1355.68,122" style="stroke:#181818;stroke-width:1.0;"/></g><!--reverse link MacroRunner to HistoryRecorder--><g id="link_MacroRunner_HistoryRecorder"><path codeLine="42" d="M1131.5,298.82 C1131.5,310.32 1131.5,309.82 1131.5,321.32 " fill="none" id="MacroRunner-backto-HistoryRecorder" style="stroke:#181818;stroke-width:1.0;"/><polygon fill="none" points="1131.5,286.82,1127.5,292.82,1131.5,298.82,1135.5,292.82,1131.5,286.82" style="stroke:#181818;stroke-width:1.0;"/><text fill="#000000" font-family="sans-serif" font-size="13" lengthAdjust="spacing" textLength="8" x="1122.9625" y="306.4631">2</text></g><!--link CursorRecorder to HistoryRecorder--><g id="link_CursorRecorder_HistoryRecorder"><path codeLine="43" d="M831.37,362 C879.95,362 933.92,362 991.55,362 " fill="none" id="CursorRecorder-to-HistoryRecorder" style="stroke:#181818;stroke-width:1.0;"/><polygon fill="none" points="1003.55,362,997.55,358,991.55,362,997.55,366,1003.55,362" style="stroke:#181818;stroke-width:1.0;"/><text fill="#000000" font-family="sans-serif" font-size="13" lengthAdjust="spacing" textLength="8" x="987.9216" y="374.5039">1</text></g><!--SRC=[XLCzRzim4DtvAmwQLBaAsew2uI4U6g08KDX3Xw83Arvi8HRFE58f3CN_lVoGRSgMaKtalRltxZrgXoyMB04tcwq5rJ3MjY4jwfqq1fvbpVHJia66NW2KYbPeqEQVAdYZHlchlI_dhtYeu0SUZ6LwHLT-9DgXr0unsw0DWtnN-1178VywfAmj_6gqedzzSfCjgMsbLf5t7ZeMcQVlJvZZX92a-B4alcgUrQHDrquq1S24kbMdzKLTS6TsaS2Tpki8h63eA18wJRPvEUI6EgxnZ5Y7Ot5XJLA8V345narZBBAfe9Nx-N8hFIdoPwzy7PJ__lBmKFnPU7HB2f-bbXjavtyykEyY-93g33p5npiF9vT9WZbxjenEyY0-flYTgTltu2cbKda8oAbvb0P7QT_i_kGM9Jwii2PMf_qTN_E6yULKmmig_3xbDiBFwpwDpiLvxB9ZGtoQsiDHtCbr_bwMem14-a-KvVlYpdiTW4DNzZK3SfEYrd7Dtw-8xDfAsncH60ObZRbl_78A23AVTPOwBUubvlUP15w97qPwQTF6Z6Lw6suVmCY0RtxQTPnYd4FSnbbr1ViF]--></g></svg>