<?xml version="1.0" encoding="us-ascii" standalone="no"?><svg xmlns="http://www.w3.org/2000/svg" xmlns:xlink="http://www.w3.org/1999/xlink" contentStyleType="text/css" height="473px" preserveAspectRatio="none" style="width:1211px;height:473px;background:#FFFFFF;" version="1.1" viewBox="0 0 1211 473" width="1211px" zoomAndPan="magnify"><defs/><g><!--class LinedFilebuf--><g id="elem_LinedFilebuf"><rect codeLine="58" fill="#F1F1F1" height="80.5938" id="LinedFilebuf" rx="2.5" ry="2.5" style="stroke:#181818;stroke-width:0.5;" width="236" x="893" y="286.85"/><ellipse cx="965.75" cy="302.85" fill="#A9DCDF" rx="11" ry="11" style="stroke:#181818;stroke-width:1.0;"/><path d="M965.8594,298.1938 L964.7031,303.2719 L967.0313,303.2719 L965.8594,298.1938 Z M964.375,295.9594 L967.3594,295.9594 L970.7188,308.35 L968.2656,308.35 L967.5,305.2875 L964.2188,305.2875 L963.4688,308.35 L961.0313,308.35 L964.375,295.9594 Z " fill="#000000"/><text fill="#000000" font-family="sans-serif" font-size="14" font-style="italic" lengthAdjust="spacing" textLength="82" x="986.25" y="307.6967">LinedFilebuf</text><line style="stroke:#181818;stroke-width:0.5;" x1="894" x2="1128" y1="318.85" y2="318.85"/><line style="stroke:#181818;stroke-width:0.5;" x1="894" x2="1128" y1="326.85" y2="326.85"/><ellipse cx="904" cy="340.4984" fill="#84BE84" rx="3" ry="3" style="stroke:#038048;stroke-width:1.0;"/><text fill="#000000" font-family="sans-serif" font-size="14" font-style="italic" lengthAdjust="spacing" textLength="94" x="913" y="343.8451">persist(): void</text><ellipse cx="904" cy="356.7953" fill="#84BE84" rx="3" ry="3" style="stroke:#038048;stroke-width:1.0;"/><text fill="#000000" font-family="sans-serif" font-size="14" font-style="italic" lengthAdjust="spacing" textLength="210" x="913" y="360.142">getPermissions(): Permissions</text></g><!--class TabManager--><g id="elem_TabManager"><rect codeLine="3" fill="#F1F1F1" height="96.8906" id="TabManager" rx="2.5" ry="2.5" style="stroke:#181818;stroke-width:0.5;" width="118" x="256.5" y="238.71"/><ellipse cx="271.5" cy="254.71" fill="#ADD1B2" rx="11" ry="11" style="stroke:#181818;stroke-width:1.0;"/><path d="M274.4688,260.3506 Q273.8906,260.6475 273.25,260.7881 Q272.6094,260.9444 271.9063,260.9444 Q269.4063,260.9444 268.0781,259.3038 Q266.7656,257.6475 266.7656,254.5225 Q266.7656,251.3975 268.0781,249.7413 Q269.4063,248.085 271.9063,248.085 Q272.6094,248.085 273.25,248.2413 Q273.9063,248.3975 274.4688,248.6944 L274.4688,251.4131 Q273.8438,250.835 273.25,250.5694 Q272.6563,250.2881 272.0313,250.2881 Q270.6875,250.2881 270,251.3663 Q269.3125,252.4288 269.3125,254.5225 Q269.3125,256.6163 270,257.6944 Q270.6875,258.7569 272.0313,258.7569 Q272.6563,258.7569 273.25,258.4913 Q273.8438,258.21 274.4688,257.6319 L274.4688,260.3506 Z " fill="#000000"/><text fill="#000000" font-family="sans-serif" font-size="14" lengthAdjust="spacing" textLength="86" x="285.5" y="259.5567">TabManager</text><line style="stroke:#181818;stroke-width:0.5;" x1="257.5" x2="373.5" y1="270.71" y2="270.71"/><line style="stroke:#181818;stroke-width:0.5;" x1="257.5" x2="373.5" y1="278.71" y2="278.71"/><ellipse cx="267.5" cy="292.3584" fill="#84BE84" rx="3" ry="3" style="stroke:#038048;stroke-width:1.0;"/><text fill="#000000" font-family="sans-serif" font-size="14" lengthAdjust="spacing" textLength="77" x="276.5" y="295.7051">next(): void</text><ellipse cx="267.5" cy="308.6553" fill="#84BE84" rx="3" ry="3" style="stroke:#038048;stroke-width:1.0;"/><text fill="#000000" font-family="sans-serif" font-size="14" lengthAdjust="spacing" textLength="72" x="276.5" y="312.002">curr(): Tab</text><ellipse cx="267.5" cy="324.9522" fill="#84BE84" rx="3" ry="3" style="stroke:#038048;stroke-width:1.0;"/><text fill="#000000" font-family="sans-serif" font-size="14" lengthAdjust="spacing" textLength="77" x="276.5" y="328.2989">prev(): void</text></g><!--class Window--><g id="elem_Window"><rect codeLine="9" fill="#F1F1F1" height="129.4844" id="Window" rx="2.5" ry="2.5" style="stroke:#181818;stroke-width:0.5;" width="185" x="9" y="222.41"/><ellipse cx="70.25" cy="238.41" fill="#A9DCDF" rx="11" ry="11" style="stroke:#181818;stroke-width:1.0;"/><path d="M70.3594,233.7538 L69.2031,238.8319 L71.5313,238.8319 L70.3594,233.7538 Z M68.875,231.5194 L71.8594,231.5194 L75.2188,243.91 L72.7656,243.91 L72,240.8475 L68.7188,240.8475 L67.9688,243.91 L65.5313,243.91 L68.875,231.5194 Z " fill="#000000"/><text fill="#000000" font-family="sans-serif" font-size="14" font-style="italic" lengthAdjust="spacing" textLength="54" x="90.75" y="243.2567">Window</text><line style="stroke:#181818;stroke-width:0.5;" x1="10" x2="193" y1="254.41" y2="254.41"/><rect fill="none" height="6" style="stroke:#C82930;stroke-width:1.0;" width="6" x="17" y="265.0584"/><text fill="#000000" font-family="sans-serif" font-size="14" lengthAdjust="spacing" textLength="115" x="29" y="271.4051">parent: Window*</text><rect fill="none" height="6" style="stroke:#C82930;stroke-width:1.0;" width="6" x="17" y="281.3553"/><text fill="#000000" font-family="sans-serif" font-size="14" lengthAdjust="spacing" textLength="159" x="29" y="287.702">children: Window*[0..*]</text><line style="stroke:#181818;stroke-width:0.5;" x1="10" x2="193" y1="295.0038" y2="295.0038"/><ellipse cx="20" cy="308.6522" fill="#84BE84" rx="3" ry="3" style="stroke:#038048;stroke-width:1.0;"/><text fill="#000000" font-family="sans-serif" font-size="14" lengthAdjust="spacing" textLength="132" x="29" y="311.9989">splitVert(): Boolean</text><ellipse cx="20" cy="324.9491" fill="#84BE84" rx="3" ry="3" style="stroke:#038048;stroke-width:1.0;"/><text fill="#000000" font-family="sans-serif" font-size="14" lengthAdjust="spacing" textLength="131" x="29" y="328.2957">splitHori(): Boolean</text><ellipse cx="20" cy="341.2459" fill="#84BE84" rx="3" ry="3" style="stroke:#038048;stroke-width:1.0;"/><text fill="#000000" font-family="sans-serif" font-size="14" lengthAdjust="spacing" textLength="156" x="29" y="344.5926">delete(child: Window*)</text></g><!--class WindowType--><g id="elem_WindowType"><rect codeLine="16" fill="#F1F1F1" height="64.2969" id="WindowType" rx="2.5" ry="2.5" style="stroke:#181818;stroke-width:0.5;" width="189" x="7" y="387"/><ellipse cx="53.25" cy="403" fill="#EB937F" rx="11" ry="11" style="stroke:#181818;stroke-width:1.0;"/><path d="M57.3594,409 L49.6406,409 L49.6406,396.6094 L57.3594,396.6094 L57.3594,398.7656 L52.0938,398.7656 L52.0938,401.4375 L56.8594,401.4375 L56.8594,403.5938 L52.0938,403.5938 L52.0938,406.8438 L57.3594,406.8438 L57.3594,409 Z " fill="#000000"/><text fill="#000000" font-family="sans-serif" font-size="14" lengthAdjust="spacing" textLength="88" x="73.75" y="407.8467">WindowType</text><line style="stroke:#181818;stroke-width:0.5;" x1="8" x2="195" y1="419" y2="419"/><text fill="#000000" font-family="sans-serif" font-size="14" lengthAdjust="spacing" textLength="177" x="13" y="435.9951">VertSplit, HoriSplit, NoSplit</text><line style="stroke:#181818;stroke-width:0.5;" x1="8" x2="195" y1="443.2969" y2="443.2969"/></g><!--class Tab--><g id="elem_Tab"><rect codeLine="19" fill="#F1F1F1" height="113.1875" id="Tab" rx="2.5" ry="2.5" style="stroke:#181818;stroke-width:0.5;" width="172" x="510.5" y="266.56"/><ellipse cx="579.25" cy="282.56" fill="#ADD1B2" rx="11" ry="11" style="stroke:#181818;stroke-width:1.0;"/><path d="M582.2188,288.2006 Q581.6406,288.4975 581,288.6381 Q580.3594,288.7944 579.6563,288.7944 Q577.1563,288.7944 575.8281,287.1538 Q574.5156,285.4975 574.5156,282.3725 Q574.5156,279.2475 575.8281,277.5913 Q577.1563,275.935 579.6563,275.935 Q580.3594,275.935 581,276.0913 Q581.6563,276.2475 582.2188,276.5444 L582.2188,279.2631 Q581.5938,278.685 581,278.4194 Q580.4063,278.1381 579.7813,278.1381 Q578.4375,278.1381 577.75,279.2163 Q577.0625,280.2788 577.0625,282.3725 Q577.0625,284.4663 577.75,285.5444 Q578.4375,286.6069 579.7813,286.6069 Q580.4063,286.6069 581,286.3413 Q581.5938,286.06 582.2188,285.4819 L582.2188,288.2006 Z " fill="#000000"/><text fill="#000000" font-family="sans-serif" font-size="14" lengthAdjust="spacing" textLength="26" x="599.75" y="287.4067">Tab</text><line style="stroke:#181818;stroke-width:0.5;" x1="511.5" x2="681.5" y1="298.56" y2="298.56"/><line style="stroke:#181818;stroke-width:0.5;" x1="511.5" x2="681.5" y1="306.56" y2="306.56"/><ellipse cx="521.5" cy="320.2084" fill="#84BE84" rx="3" ry="3" style="stroke:#038048;stroke-width:1.0;"/><text fill="#000000" font-family="sans-serif" font-size="14" lengthAdjust="spacing" textLength="146" x="530.5" y="323.5551">getTopLine(): Integer</text><ellipse cx="521.5" cy="336.5053" fill="#84BE84" rx="3" ry="3" style="stroke:#038048;stroke-width:1.0;"/><text fill="#000000" font-family="sans-serif" font-size="14" lengthAdjust="spacing" textLength="107" x="530.5" y="339.852">fixCursor(): void</text><ellipse cx="521.5" cy="352.8022" fill="#84BE84" rx="3" ry="3" style="stroke:#038048;stroke-width:1.0;"/><text fill="#000000" font-family="sans-serif" font-size="14" lengthAdjust="spacing" textLength="123" x="530.5" y="356.1489">fitToCursor(): void</text><ellipse cx="521.5" cy="369.0991" fill="#84BE84" rx="3" ry="3" style="stroke:#038048;stroke-width:1.0;"/><text fill="#000000" font-family="sans-serif" font-size="14" lengthAdjust="spacing" textLength="128" x="530.5" y="372.4457">fitToTopline(): void</text></g><!--class Cursor--><g id="elem_Cursor"><rect fill="#F1F1F1" height="48" id="Cursor" rx="2.5" ry="2.5" style="stroke:#181818;stroke-width:0.5;" width="78" x="557.5" y="415.15"/><ellipse cx="572.5" cy="431.15" fill="#ADD1B2" rx="11" ry="11" style="stroke:#181818;stroke-width:1.0;"/><path d="M575.4688,436.7906 Q574.8906,437.0875 574.25,437.2281 Q573.6094,437.3844 572.9063,437.3844 Q570.4063,437.3844 569.0781,435.7438 Q567.7656,434.0875 567.7656,430.9625 Q567.7656,427.8375 569.0781,426.1813 Q570.4063,424.525 572.9063,424.525 Q573.6094,424.525 574.25,424.6813 Q574.9063,424.8375 575.4688,425.1344 L575.4688,427.8531 Q574.8438,427.275 574.25,427.0094 Q573.6563,426.7281 573.0313,426.7281 Q571.6875,426.7281 571,427.8063 Q570.3125,428.8688 570.3125,430.9625 Q570.3125,433.0563 571,434.1344 Q571.6875,435.1969 573.0313,435.1969 Q573.6563,435.1969 574.25,434.9313 Q574.8438,434.65 575.4688,434.0719 L575.4688,436.7906 Z " fill="#000000"/><text fill="#000000" font-family="sans-serif" font-size="14" lengthAdjust="spacing" textLength="46" x="586.5" y="435.9967">Cursor</text><line style="stroke:#181818;stroke-width:0.5;" x1="558.5" x2="634.5" y1="447.15" y2="447.15"/><line style="stroke:#181818;stroke-width:0.5;" x1="558.5" x2="634.5" y1="455.15" y2="455.15"/></g><!--class NCWindow--><g id="elem_NCWindow"><rect codeLine="29" fill="#F1F1F1" height="64.2969" id="NCWindow" rx="2.5" ry="2.5" style="stroke:#181818;stroke-width:0.5;" width="119" x="42" y="123"/><ellipse cx="62.85" cy="139" fill="#ADD1B2" rx="11" ry="11" style="stroke:#181818;stroke-width:1.0;"/><path d="M65.8188,144.6406 Q65.2406,144.9375 64.6,145.0781 Q63.9594,145.2344 63.2563,145.2344 Q60.7563,145.2344 59.4281,143.5938 Q58.1156,141.9375 58.1156,138.8125 Q58.1156,135.6875 59.4281,134.0313 Q60.7563,132.375 63.2563,132.375 Q63.9594,132.375 64.6,132.5313 Q65.2563,132.6875 65.8188,132.9844 L65.8188,135.7031 Q65.1938,135.125 64.6,134.8594 Q64.0063,134.5781 63.3813,134.5781 Q62.0375,134.5781 61.35,135.6563 Q60.6625,136.7188 60.6625,138.8125 Q60.6625,140.9063 61.35,141.9844 Q62.0375,143.0469 63.3813,143.0469 Q64.0063,143.0469 64.6,142.7813 Q65.1938,142.5 65.8188,141.9219 L65.8188,144.6406 Z " fill="#000000"/><text fill="#000000" font-family="sans-serif" font-size="14" lengthAdjust="spacing" textLength="74" x="78.15" y="143.8467">NCWindow</text><line style="stroke:#181818;stroke-width:0.5;" x1="43" x2="160" y1="155" y2="155"/><line style="stroke:#181818;stroke-width:0.5;" x1="43" x2="160" y1="163" y2="163"/><ellipse cx="53" cy="176.6484" fill="#84BE84" rx="3" ry="3" style="stroke:#038048;stroke-width:1.0;"/><text fill="#000000" font-family="sans-serif" font-size="14" lengthAdjust="spacing" textLength="93" x="62" y="179.9951">render(): void</text></g><!--class Textbox--><g id="elem_Textbox"><rect codeLine="35" fill="#F1F1F1" height="64.2969" id="Textbox" rx="2.5" ry="2.5" style="stroke:#181818;stroke-width:0.5;" width="119" x="256" y="18"/><ellipse cx="285.4" cy="34" fill="#ADD1B2" rx="11" ry="11" style="stroke:#181818;stroke-width:1.0;"/><path d="M288.3688,39.6406 Q287.7906,39.9375 287.15,40.0781 Q286.5094,40.2344 285.8063,40.2344 Q283.3063,40.2344 281.9781,38.5938 Q280.6656,36.9375 280.6656,33.8125 Q280.6656,30.6875 281.9781,29.0313 Q283.3063,27.375 285.8063,27.375 Q286.5094,27.375 287.15,27.5313 Q287.8063,27.6875 288.3688,27.9844 L288.3688,30.7031 Q287.7438,30.125 287.15,29.8594 Q286.5563,29.5781 285.9313,29.5781 Q284.5875,29.5781 283.9,30.6563 Q283.2125,31.7188 283.2125,33.8125 Q283.2125,35.9063 283.9,36.9844 Q284.5875,38.0469 285.9313,38.0469 Q286.5563,38.0469 287.15,37.7813 Q287.7438,37.5 288.3688,36.9219 L288.3688,39.6406 Z " fill="#000000"/><text fill="#000000" font-family="sans-serif" font-size="14" lengthAdjust="spacing" textLength="55" x="302.6" y="38.8467">Textbox</text><line style="stroke:#181818;stroke-width:0.5;" x1="257" x2="374" y1="50" y2="50"/><line style="stroke:#181818;stroke-width:0.5;" x1="257" x2="374" y1="58" y2="58"/><ellipse cx="267" cy="71.6484" fill="#84BE84" rx="3" ry="3" style="stroke:#038048;stroke-width:1.0;"/><text fill="#000000" font-family="sans-serif" font-size="14" lengthAdjust="spacing" textLength="93" x="276" y="74.9951">render(): void</text></g><!--class StyleManager--><g id="elem_StyleManager"><rect codeLine="41" fill="#F1F1F1" height="64.2969" id="StyleManager" rx="2.5" ry="2.5" style="stroke:#181818;stroke-width:0.5;" width="323" x="435" y="14"/><ellipse cx="545.75" cy="30" fill="#ADD1B2" rx="11" ry="11" style="stroke:#181818;stroke-width:1.0;"/><path d="M548.7188,35.6406 Q548.1406,35.9375 547.5,36.0781 Q546.8594,36.2344 546.1563,36.2344 Q543.6563,36.2344 542.3281,34.5938 Q541.0156,32.9375 541.0156,29.8125 Q541.0156,26.6875 542.3281,25.0313 Q543.6563,23.375 546.1563,23.375 Q546.8594,23.375 547.5,23.5313 Q548.1563,23.6875 548.7188,23.9844 L548.7188,26.7031 Q548.0938,26.125 547.5,25.8594 Q546.9063,25.5781 546.2813,25.5781 Q544.9375,25.5781 544.25,26.6563 Q543.5625,27.7188 543.5625,29.8125 Q543.5625,31.9063 544.25,32.9844 Q544.9375,34.0469 546.2813,34.0469 Q546.9063,34.0469 547.5,33.7813 Q548.0938,33.5 548.7188,32.9219 L548.7188,35.6406 Z " fill="#000000"/><text fill="#000000" font-family="sans-serif" font-size="14" lengthAdjust="spacing" textLength="93" x="566.25" y="34.8467">StyleManager</text><line style="stroke:#181818;stroke-width:0.5;" x1="436" x2="757" y1="46" y2="46"/><line style="stroke:#181818;stroke-width:0.5;" x1="436" x2="757" y1="54" y2="54"/><ellipse cx="446" cy="67.6484" fill="#84BE84" rx="3" ry="3" style="stroke:#038048;stroke-width:1.0;"/><text fill="#000000" font-family="sans-serif" font-size="14" lengthAdjust="spacing" textLength="297" x="455" y="70.9951">getStylers(filename: String): TextStyler[0..*]</text></g><!--class TextStyler--><g id="elem_TextStyler"><rect codeLine="38" fill="#F1F1F1" height="64.2969" id="TextStyler" rx="2.5" ry="2.5" style="stroke:#181818;stroke-width:0.5;" width="349" x="836.5" y="7"/><ellipse cx="972.75" cy="23" fill="#A9DCDF" rx="11" ry="11" style="stroke:#181818;stroke-width:1.0;"/><path d="M972.8594,18.3438 L971.7031,23.4219 L974.0313,23.4219 L972.8594,18.3438 Z M971.375,16.1094 L974.3594,16.1094 L977.7188,28.5 L975.2656,28.5 L974.5,25.4375 L971.2188,25.4375 L970.4688,28.5 L968.0313,28.5 L971.375,16.1094 Z " fill="#000000"/><text fill="#000000" font-family="sans-serif" font-size="14" font-style="italic" lengthAdjust="spacing" textLength="68" x="993.25" y="27.8467">TextStyler</text><line style="stroke:#181818;stroke-width:0.5;" x1="837.5" x2="1184.5" y1="39" y2="39"/><line style="stroke:#181818;stroke-width:0.5;" x1="837.5" x2="1184.5" y1="47" y2="47"/><ellipse cx="847.5" cy="60.6484" fill="#84BE84" rx="3" ry="3" style="stroke:#038048;stroke-width:1.0;"/><text fill="#000000" font-family="sans-serif" font-size="14" font-style="italic" lengthAdjust="spacing" textLength="323" x="856.5" y="63.9951">getStyles(first: Integer, last: Integer): Style[0..*]</text></g><!--class StatusBar--><g id="elem_StatusBar"><rect codeLine="46" fill="#F1F1F1" height="64.2969" id="StatusBar" rx="2.5" ry="2.5" style="stroke:#181818;stroke-width:0.5;" width="119" x="256" y="131"/><ellipse cx="280" cy="147" fill="#ADD1B2" rx="11" ry="11" style="stroke:#181818;stroke-width:1.0;"/><path d="M282.9688,152.6406 Q282.3906,152.9375 281.75,153.0781 Q281.1094,153.2344 280.4063,153.2344 Q277.9063,153.2344 276.5781,151.5938 Q275.2656,149.9375 275.2656,146.8125 Q275.2656,143.6875 276.5781,142.0313 Q277.9063,140.375 280.4063,140.375 Q281.1094,140.375 281.75,140.5313 Q282.4063,140.6875 282.9688,140.9844 L282.9688,143.7031 Q282.3438,143.125 281.75,142.8594 Q281.1563,142.5781 280.5313,142.5781 Q279.1875,142.5781 278.5,143.6563 Q277.8125,144.7188 277.8125,146.8125 Q277.8125,148.9063 278.5,149.9844 Q279.1875,151.0469 280.5313,151.0469 Q281.1563,151.0469 281.75,150.7813 Q282.3438,150.5 282.9688,149.9219 L282.9688,152.6406 Z " fill="#000000"/><text fill="#000000" font-family="sans-serif" font-size="14" lengthAdjust="spacing" textLength="67" x="296" y="151.8467">StatusBar</text><line style="stroke:#181818;stroke-width:0.5;" x1="257" x2="374" y1="163" y2="163"/><line style="stroke:#181818;stroke-width:0.5;" x1="257" x2="374" y1="171" y2="171"/><ellipse cx="267" cy="184.6484" fill="#84BE84" rx="3" ry="3" style="stroke:#038048;stroke-width:1.0;"/><text fill="#000000" font-family="sans-serif" font-size="14" lengthAdjust="spacing" textLength="93" x="276" y="187.9951">render(): void</text></g><!--class LinedCharbuf--><g id="elem_LinedCharbuf"><rect codeLine="49" fill="#F1F1F1" height="145.7813" id="LinedCharbuf" rx="2.5" ry="2.5" style="stroke:#181818;stroke-width:0.5;" width="386" x="818" y="106.26"/><ellipse cx="961.25" cy="122.26" fill="#ADD1B2" rx="11" ry="11" style="stroke:#181818;stroke-width:1.0;"/><path d="M964.2188,127.9006 Q963.6406,128.1975 963,128.3381 Q962.3594,128.4944 961.6563,128.4944 Q959.1563,128.4944 957.8281,126.8537 Q956.5156,125.1975 956.5156,122.0725 Q956.5156,118.9475 957.8281,117.2912 Q959.1563,115.635 961.6563,115.635 Q962.3594,115.635 963,115.7912 Q963.6563,115.9475 964.2188,116.2444 L964.2188,118.9631 Q963.5938,118.385 963,118.1194 Q962.4063,117.8381 961.7813,117.8381 Q960.4375,117.8381 959.75,118.9162 Q959.0625,119.9787 959.0625,122.0725 Q959.0625,124.1662 959.75,125.2444 Q960.4375,126.3069 961.7813,126.3069 Q962.4063,126.3069 963,126.0412 Q963.5938,125.76 964.2188,125.1819 L964.2188,127.9006 Z " fill="#000000"/><text fill="#000000" font-family="sans-serif" font-size="14" lengthAdjust="spacing" textLength="91" x="981.75" y="127.1067">LinedCharbuf</text><line style="stroke:#181818;stroke-width:0.5;" x1="819" x2="1203" y1="138.26" y2="138.26"/><line style="stroke:#181818;stroke-width:0.5;" x1="819" x2="1203" y1="146.26" y2="146.26"/><ellipse cx="829" cy="159.9084" fill="#84BE84" rx="3" ry="3" style="stroke:#038048;stroke-width:1.0;"/><text fill="#000000" font-family="sans-serif" font-size="14" lengthAdjust="spacing" textLength="352" x="838" y="163.2551">erase(line: Integer, start: Integer, len: Integer): void</text><ellipse cx="829" cy="176.2053" fill="#84BE84" rx="3" ry="3" style="stroke:#038048;stroke-width:1.0;"/><text fill="#000000" font-family="sans-serif" font-size="14" lengthAdjust="spacing" textLength="360" x="838" y="179.552">insert(line: Integer, start: Integer, chars: String): void</text><ellipse cx="829" cy="192.5022" fill="#84BE84" rx="3" ry="3" style="stroke:#038048;stroke-width:1.0;"/><text fill="#000000" font-family="sans-serif" font-size="14" lengthAdjust="spacing" textLength="291" x="838" y="195.8489">eraseLines(line: Integer, len: Integer): void</text><ellipse cx="829" cy="208.7991" fill="#84BE84" rx="3" ry="3" style="stroke:#038048;stroke-width:1.0;"/><text fill="#000000" font-family="sans-serif" font-size="14" lengthAdjust="spacing" textLength="291" x="838" y="212.1457">insertLines(line: Integer, len: Integer): void</text><ellipse cx="829" cy="225.0959" fill="#84BE84" rx="3" ry="3" style="stroke:#038048;stroke-width:1.0;"/><text fill="#000000" font-family="sans-serif" font-size="14" lengthAdjust="spacing" textLength="107" x="838" y="228.4426">begin(): Iterator</text><ellipse cx="829" cy="241.3928" fill="#84BE84" rx="3" ry="3" style="stroke:#038048;stroke-width:1.0;"/><text fill="#000000" font-family="sans-serif" font-size="14" lengthAdjust="spacing" textLength="95" x="838" y="244.7395">end(): Iterator</text></g><!--class ModeManager--><g id="elem_ModeManager"><rect fill="#F1F1F1" height="48" id="ModeManager" rx="2.5" ry="2.5" style="stroke:#181818;stroke-width:0.5;" width="131" x="531" y="139.15"/><ellipse cx="546" cy="155.15" fill="#ADD1B2" rx="11" ry="11" style="stroke:#181818;stroke-width:1.0;"/><path d="M548.9688,160.7906 Q548.3906,161.0875 547.75,161.2281 Q547.1094,161.3844 546.4063,161.3844 Q543.9063,161.3844 542.5781,159.7438 Q541.2656,158.0875 541.2656,154.9625 Q541.2656,151.8375 542.5781,150.1813 Q543.9063,148.525 546.4063,148.525 Q547.1094,148.525 547.75,148.6813 Q548.4063,148.8375 548.9688,149.1344 L548.9688,151.8531 Q548.3438,151.275 547.75,151.0094 Q547.1563,150.7281 546.5313,150.7281 Q545.1875,150.7281 544.5,151.8063 Q543.8125,152.8688 543.8125,154.9625 Q543.8125,157.0563 544.5,158.1344 Q545.1875,159.1969 546.5313,159.1969 Q547.1563,159.1969 547.75,158.9313 Q548.3438,158.65 548.9688,158.0719 L548.9688,160.7906 Z " fill="#000000"/><text fill="#000000" font-family="sans-serif" font-size="14" lengthAdjust="spacing" textLength="99" x="560" y="159.9967">ModeManager</text><line style="stroke:#181818;stroke-width:0.5;" x1="532" x2="661" y1="171.15" y2="171.15"/><line style="stroke:#181818;stroke-width:0.5;" x1="532" x2="661" y1="179.15" y2="179.15"/></g><!--class FileManager--><g id="elem_FileManager"><rect codeLine="64" fill="#F1F1F1" height="64.2969" id="FileManager" rx="2.5" ry="2.5" style="stroke:#181818;stroke-width:0.5;" width="277" x="872.5" y="402"/><ellipse cx="965.25" cy="418" fill="#ADD1B2" rx="11" ry="11" style="stroke:#181818;stroke-width:1.0;"/><path d="M968.2188,423.6406 Q967.6406,423.9375 967,424.0781 Q966.3594,424.2344 965.6563,424.2344 Q963.1563,424.2344 961.8281,422.5938 Q960.5156,420.9375 960.5156,417.8125 Q960.5156,414.6875 961.8281,413.0313 Q963.1563,411.375 965.6563,411.375 Q966.3594,411.375 967,411.5313 Q967.6563,411.6875 968.2188,411.9844 L968.2188,414.7031 Q967.5938,414.125 967,413.8594 Q966.4063,413.5781 965.7813,413.5781 Q964.4375,413.5781 963.75,414.6563 Q963.0625,415.7188 963.0625,417.8125 Q963.0625,419.9063 963.75,420.9844 Q964.4375,422.0469 965.7813,422.0469 Q966.4063,422.0469 967,421.7813 Q967.5938,421.5 968.2188,420.9219 L968.2188,423.6406 Z " fill="#000000"/><text fill="#000000" font-family="sans-serif" font-size="14" lengthAdjust="spacing" textLength="83" x="985.75" y="422.8467">FileManager</text><line style="stroke:#181818;stroke-width:0.5;" x1="873.5" x2="1148.5" y1="434" y2="434"/><line style="stroke:#181818;stroke-width:0.5;" x1="873.5" x2="1148.5" y1="442" y2="442"/><ellipse cx="883.5" cy="455.6484" fill="#84BE84" rx="3" ry="3" style="stroke:#038048;stroke-width:1.0;"/><text fill="#000000" font-family="sans-serif" font-size="14" lengthAdjust="spacing" textLength="251" x="892.5" y="458.9951">open(filename: String): LinedFilebuf*</text></g><!--link Window to TabManager--><g id="link_Window_TabManager"><path codeLine="8" d="M206.25,287.15 C227.29,287.15 231.09,287.15 250.26,287.15 " fill="none" id="Window-TabManager" style="stroke:#181818;stroke-width:1.0;"/><polygon fill="#181818" points="194.25,287.15,200.25,291.15,206.25,287.15,200.25,283.15,194.25,287.15" style="stroke:#181818;stroke-width:1.0;"/><polygon fill="#181818" points="256.26,287.15,247.26,283.15,251.26,287.15,247.26,291.15,256.26,287.15" style="stroke:#181818;stroke-width:1.0;"/><text fill="#000000" font-family="sans-serif" font-size="13" lengthAdjust="spacing" textLength="8" x="201.9598" y="299.8197">1</text></g><!--reverse link Tab to LinedFilebuf--><g id="link_Tab_LinedFilebuf"><path codeLine="25" d="M694.9694,324.0967 C755.6194,324.6867 825.78,325.37 892.57,326.01 " fill="none" id="Tab-backto-LinedFilebuf" style="stroke:#181818;stroke-width:1.0;"/><polygon fill="none" points="682.97,323.98,688.9308,328.0382,694.9694,324.0967,689.0086,320.0386,682.97,323.98" style="stroke:#181818;stroke-width:1.0;"/><text fill="#000000" font-family="sans-serif" font-size="13" lengthAdjust="spacing" textLength="8" x="690.462" y="336.7419">1</text></g><!--reverse link Tab to Cursor--><g id="link_Tab_Cursor"><path codeLine="26" d="M596.5,392 C596.5,403.56 596.5,403.12 596.5,414.68 " fill="none" id="Tab-backto-Cursor" style="stroke:#181818;stroke-width:1.0;"/><polygon fill="#181818" points="596.5,380,592.5,386,596.5,392,600.5,386,596.5,380" style="stroke:#181818;stroke-width:1.0;"/><text fill="#000000" font-family="sans-serif" font-size="13" lengthAdjust="spacing" textLength="8" x="588.0125" y="399.9172">1</text></g><!--reverse link TabManager to Tab--><g id="link_TabManager_Tab"><path codeLine="27" d="M386.8914,296.2352 C426.0414,301.2852 466.31,306.48 510.08,312.13 " fill="none" id="TabManager-backto-Tab" style="stroke:#181818;stroke-width:1.0;"/><polygon fill="#181818" points="374.99,294.7,380.429,299.4347,386.8914,296.2352,381.4524,291.5005,374.99,294.7" style="stroke:#181818;stroke-width:1.0;"/><text fill="#000000" font-family="sans-serif" font-size="13" lengthAdjust="spacing" textLength="23" x="382.3108" y="308.3252">1..*</text></g><!--reverse link Window to WindowType--><g id="link_Window_WindowType"><path codeLine="28" d="M101.5,364.07 C101.5,375.6 101.5,375.13 101.5,386.67 " fill="none" id="Window-backto-WindowType" style="stroke:#181818;stroke-width:1.0;"/><polygon fill="#181818" points="101.5,352.07,97.5,358.07,101.5,364.07,105.5,358.07,101.5,352.07" style="stroke:#181818;stroke-width:1.0;"/><text fill="#000000" font-family="sans-serif" font-size="13" lengthAdjust="spacing" textLength="8" x="93.0625" y="372.0649">1</text></g><!--link NCWindow to Window--><g id="link_NCWindow_Window"><path codeLine="32" d="M101.5,187.76 C101.5,199.15 101.5,192.54 101.5,203.93 " fill="none" id="NCWindow-to-Window" style="stroke:#181818;stroke-width:1.0;"/><polygon fill="none" points="101.5,221.93,107.5,203.93,95.5,203.93,101.5,221.93" style="stroke:#181818;stroke-width:1.0;"/></g><!--reverse link NCWindow to Textbox--><g id="link_NCWindow_Textbox"><path codeLine="33" d="M172.0243,120.7159 C201.4343,106.1559 226.19,93.89 255.61,79.32 " fill="none" id="NCWindow-backto-Textbox" style="stroke:#181818;stroke-width:1.0;"/><polygon fill="#181818" points="161.27,126.04,168.4218,126.9627,172.0243,120.7159,164.8724,119.7932,161.27,126.04" style="stroke:#181818;stroke-width:1.0;"/><text fill="#000000" font-family="sans-serif" font-size="13" lengthAdjust="spacing" textLength="8" x="169.042" y="135.4815">1</text></g><!--reverse link Textbox to StyleManager--><g id="link_Textbox_StyleManager"><path codeLine="34" d="M387.3287,49.1341 C405.0687,48.8741 413.47,48.76 434.54,48.46 " fill="none" id="Textbox-backto-StyleManager" style="stroke:#181818;stroke-width:1.0;"/><polygon fill="none" points="375.33,49.31,381.388,53.2216,387.3287,49.1341,381.2707,45.2225,375.33,49.31" style="stroke:#181818;stroke-width:1.0;"/><text fill="#000000" font-family="sans-serif" font-size="13" lengthAdjust="spacing" textLength="8" x="383.1093" y="62.1969">1</text></g><!--reverse link StyleManager to TextStyler--><g id="link_StyleManager_TextStyler"><path codeLine="44" d="M770.4583,43.2172 C795.8983,42.7872 810.3,42.54 836.01,42.1 " fill="none" id="StyleManager-backto-TextStyler" style="stroke:#181818;stroke-width:1.0;"/><polygon fill="#181818" points="758.46,43.42,764.5267,47.318,770.4583,43.2172,764.3915,39.3192,758.46,43.42" style="stroke:#181818;stroke-width:1.0;"/><text fill="#000000" font-family="sans-serif" font-size="13" lengthAdjust="spacing" textLength="23" x="765.7778" y="55.691">0..*</text></g><!--reverse link NCWindow to StatusBar--><g id="link_NCWindow_StatusBar"><path codeLine="45" d="M173.2615,157.8226 C202.6715,158.9326 226.19,159.82 255.61,160.93 " fill="none" id="NCWindow-backto-StatusBar" style="stroke:#181818;stroke-width:1.0;"/><polygon fill="#181818" points="161.27,157.37,167.1149,161.5934,173.2615,157.8226,167.4166,153.5991,161.27,157.37" style="stroke:#181818;stroke-width:1.0;"/><text fill="#000000" font-family="sans-serif" font-size="13" lengthAdjust="spacing" textLength="8" x="169.042" y="170.6298">1</text></g><!--reverse link LinedCharbuf to LinedFilebuf--><g id="link_LinedCharbuf_LinedFilebuf"><path codeLine="57" d="M1011,270.46 C1011,281.77 1011,275.08 1011,286.39 " fill="none" id="LinedCharbuf-backto-LinedFilebuf" style="stroke:#181818;stroke-width:1.0;"/><polygon fill="none" points="1011,252.46,1005,270.46,1017,270.46,1011,252.46" style="stroke:#181818;stroke-width:1.0;"/></g><!--link StatusBar to ModeManager--><g id="link_StatusBar_ModeManager"><path codeLine="62" d="M375.33,163.15 C420.89,163.15 477.95,163.15 524.91,163.15 " fill="none" id="StatusBar-to-ModeManager" style="stroke:#181818;stroke-width:1.0;"/><polygon fill="#181818" points="530.91,163.15,521.91,159.15,525.91,163.15,521.91,167.15,530.91,163.15" style="stroke:#181818;stroke-width:1.0;"/><text fill="#000000" font-family="sans-serif" font-size="13" lengthAdjust="spacing" textLength="36" x="382.9914" y="175.9619">reads</text></g><!--link StatusBar to TabManager--><g id="link_StatusBar_TabManager"><path codeLine="63" d="M315.5,195.7 C315.5,209.88 315.5,218.05 315.5,232.23 " fill="none" id="StatusBar-to-TabManager" style="stroke:#181818;stroke-width:1.0;"/><polygon fill="#181818" points="315.5,238.23,319.5,229.23,315.5,233.23,311.5,229.23,315.5,238.23" style="stroke:#181818;stroke-width:1.0;"/><text fill="#000000" font-family="sans-serif" font-size="13" lengthAdjust="spacing" textLength="36" x="276.0688" y="215.4144">reads</text></g><!--link LinedFilebuf to FileManager--><g id="link_LinedFilebuf_FileManager"><path codeLine="67" d="M1011,367.84 C1011,379.08 1011,378.31 1011,389.55 " fill="none" id="LinedFilebuf-to-FileManager" style="stroke:#181818;stroke-width:1.0;"/><polygon fill="#181818" points="1011,401.55,1015,395.55,1011,389.55,1007,395.55,1011,401.55" style="stroke:#181818;stroke-width:1.0;"/><text fill="#000000" font-family="sans-serif" font-size="13" lengthAdjust="spacing" textLength="23" x="986.1672" y="387.5983">0..*</text></g><!--SRC=[bLJ1Rjim3BtxAmYVKhSkscinzD02mmQinO04ss7OGR6PH80Z6PJIfKZpxnDbIPRJRCDEDf-eH_AHL8Sh2rO3oVN6GYi96okrAiJIM1ADXIzIOVjHThZShGx7ekc4CR0GooUXn1e93WN0fSAzdLtSmOkMBTlDZeXjvyTcJ_YIZe_5TwbQ_GlAsnAgkhxFsCQmWm-JrxqWLFOkG1L3pKPshKCJ-EFc-hhwoR5Ctqdx3Sddyw1rXq8b_9CcUOAtsA75cMTCT1SkIrIxRR0NhproAamxPvuhOARm-wpzJv69uqLPertedlNZa9-LHQxG7Qpa_d57HbFK10RKkVy9TqHT81eEZeKBuoNKTJrfKZgeQXZeYgnTvQqJoklkcpDfHLPjAENvSUp3fTExHShw64-XVhiFTqSiT1SMRZIMUb-4RqfvRbyxZ6qFmWqkvuEboM0lVvdOyH3n8-ljSJDRIJ8sINu5Zdqq7QLt2oCJkvRd4zitX66-3fNO8jyagTOysIcBn9CpG7apwfnStwipjyBkp8EWb4MmpuimEFbkFsu4yKgo7v8mEEC1oOesLj1415wNKOEugb8PNfP_N6vSD9EL7s_xo9oFEMNuQxZ_kR74jLH-WwoBPhLV8IVC13eMkIZmuUra9zBqP0h6HutvnZ62tdLScibpbfswgVYAj9N6k5VIi5Dc-Y483OIIKBIc17xXddIRPlsCn-G973BavF9fr3sgStEOLr91r240SGhhAkVx3G00]--></g></svg>