<?xml version="1.0" encoding="us-ascii" standalone="no"?><svg xmlns="http://www.w3.org/2000/svg" xmlns:xlink="http://www.w3.org/1999/xlink" contentStyleType="text/css" height="440px" preserveAspectRatio="none" style="width:770px;height:440px;background:#FFFFFF;" version="1.1" viewBox="0 0 770 440" width="770px" zoomAndPan="magnify"><defs/><g><!--class Window--><g id="elem_Window"><rect codeLine="2" fill="#F1F1F1" height="48" id="Window" rx="2.5" ry="2.5" style="stroke:#181818;stroke-width:0.5;" width="86" x="392.5" y="161.45"/><ellipse cx="407.5" cy="177.45" fill="#A9DCDF" rx="11" ry="11" style="stroke:#181818;stroke-width:1.0;"/><path d="M407.6094,172.7938 L406.4531,177.8719 L408.7813,177.8719 L407.6094,172.7938 Z M406.125,170.5594 L409.1094,170.5594 L412.4688,182.95 L410.0156,182.95 L409.25,179.8875 L405.9688,179.8875 L405.2188,182.95 L402.7813,182.95 L406.125,170.5594 Z " fill="#000000"/><text fill="#000000" font-family="sans-serif" font-size="14" font-style="italic" lengthAdjust="spacing" textLength="54" x="421.5" y="182.2967">Window</text><line style="stroke:#181818;stroke-width:0.5;" x1="393.5" x2="477.5" y1="193.45" y2="193.45"/><line style="stroke:#181818;stroke-width:0.5;" x1="393.5" x2="477.5" y1="201.45" y2="201.45"/></g><!--class Tab--><g id="elem_Tab"><rect codeLine="3" fill="#F1F1F1" height="64.2969" id="Tab" rx="2.5" ry="2.5" style="stroke:#181818;stroke-width:0.5;" width="138" x="625" y="349.3"/><ellipse cx="676.75" cy="365.3" fill="#ADD1B2" rx="11" ry="11" style="stroke:#181818;stroke-width:1.0;"/><path d="M679.7188,370.9406 Q679.1406,371.2375 678.5,371.3781 Q677.8594,371.5344 677.1563,371.5344 Q674.6563,371.5344 673.3281,369.8938 Q672.0156,368.2375 672.0156,365.1125 Q672.0156,361.9875 673.3281,360.3313 Q674.6563,358.675 677.1563,358.675 Q677.8594,358.675 678.5,358.8313 Q679.1563,358.9875 679.7188,359.2844 L679.7188,362.0031 Q679.0938,361.425 678.5,361.1594 Q677.9063,360.8781 677.2813,360.8781 Q675.9375,360.8781 675.25,361.9563 Q674.5625,363.0188 674.5625,365.1125 Q674.5625,367.2063 675.25,368.2844 Q675.9375,369.3469 677.2813,369.3469 Q677.9063,369.3469 678.5,369.0813 Q679.0938,368.8 679.7188,368.2219 L679.7188,370.9406 Z " fill="#000000"/><text fill="#000000" font-family="sans-serif" font-size="14" lengthAdjust="spacing" textLength="26" x="697.25" y="370.1467">Tab</text><line style="stroke:#181818;stroke-width:0.5;" x1="626" x2="762" y1="381.3" y2="381.3"/><line style="stroke:#181818;stroke-width:0.5;" x1="626" x2="762" y1="389.3" y2="389.3"/><rect fill="#F24D5C" height="6" style="stroke:#C82930;stroke-width:1.0;" width="6" x="633" y="399.9484"/><text fill="#000000" font-family="sans-serif" font-size="14" lengthAdjust="spacing" textLength="112" x="645" y="406.2951">doResize(): void</text></g><!--class Renderable--><g id="elem_Renderable"><rect codeLine="6" fill="#F1F1F1" height="64.2969" id="Renderable" rx="2.5" ry="2.5" style="stroke:#181818;stroke-width:0.5;" width="119" x="67" y="244.3"/><ellipse cx="85.15" cy="260.3" fill="#A9DCDF" rx="11" ry="11" style="stroke:#181818;stroke-width:1.0;"/><path d="M85.2594,255.6438 L84.1031,260.7219 L86.4313,260.7219 L85.2594,255.6438 Z M83.775,253.4094 L86.7594,253.4094 L90.1188,265.8 L87.6656,265.8 L86.9,262.7375 L83.6188,262.7375 L82.8688,265.8 L80.4313,265.8 L83.775,253.4094 Z " fill="#000000"/><text fill="#000000" font-family="sans-serif" font-size="14" font-style="italic" lengthAdjust="spacing" textLength="80" x="99.85" y="265.1467">Renderable</text><line style="stroke:#181818;stroke-width:0.5;" x1="68" x2="185" y1="276.3" y2="276.3"/><line style="stroke:#181818;stroke-width:0.5;" x1="68" x2="185" y1="284.3" y2="284.3"/><ellipse cx="78" cy="297.9484" fill="#84BE84" rx="3" ry="3" style="stroke:#038048;stroke-width:1.0;"/><text fill="#000000" font-family="sans-serif" font-size="14" font-style="italic" lengthAdjust="spacing" textLength="93" x="87" y="301.2951">render(): void</text></g><!--class NCWindow--><g id="elem_NCWindow"><rect codeLine="9" fill="#F1F1F1" height="64.2969" id="NCWindow" rx="2.5" ry="2.5" style="stroke:#181818;stroke-width:0.5;" width="119" x="634.5" y="151.3"/><ellipse cx="655.35" cy="167.3" fill="#ADD1B2" rx="11" ry="11" style="stroke:#181818;stroke-width:1.0;"/><path d="M658.3188,172.9406 Q657.7406,173.2375 657.1,173.3781 Q656.4594,173.5344 655.7563,173.5344 Q653.2563,173.5344 651.9281,171.8938 Q650.6156,170.2375 650.6156,167.1125 Q650.6156,163.9875 651.9281,162.3313 Q653.2563,160.675 655.7563,160.675 Q656.4594,160.675 657.1,160.8313 Q657.7563,160.9875 658.3188,161.2844 L658.3188,164.0031 Q657.6938,163.425 657.1,163.1594 Q656.5063,162.8781 655.8813,162.8781 Q654.5375,162.8781 653.85,163.9563 Q653.1625,165.0188 653.1625,167.1125 Q653.1625,169.2063 653.85,170.2844 Q654.5375,171.3469 655.8813,171.3469 Q656.5063,171.3469 657.1,171.0813 Q657.6938,170.8 658.3188,170.2219 L658.3188,172.9406 Z " fill="#000000"/><text fill="#000000" font-family="sans-serif" font-size="14" lengthAdjust="spacing" textLength="74" x="670.65" y="172.1467">NCWindow</text><line style="stroke:#181818;stroke-width:0.5;" x1="635.5" x2="752.5" y1="183.3" y2="183.3"/><line style="stroke:#181818;stroke-width:0.5;" x1="635.5" x2="752.5" y1="191.3" y2="191.3"/><ellipse cx="645.5" cy="204.9484" fill="#84BE84" rx="3" ry="3" style="stroke:#038048;stroke-width:1.0;"/><text fill="#000000" font-family="sans-serif" font-size="14" lengthAdjust="spacing" textLength="93" x="654.5" y="208.2951">render(): void</text></g><!--class Translateable--><g id="elem_Translateable"><rect codeLine="24" fill="#F1F1F1" height="96.8906" id="Translateable" rx="2.5" ry="2.5" style="stroke:#181818;stroke-width:0.5;" width="239" x="7" y="7"/><ellipse cx="75.75" cy="23" fill="#A9DCDF" rx="11" ry="11" style="stroke:#181818;stroke-width:1.0;"/><path d="M75.8594,18.3438 L74.7031,23.4219 L77.0313,23.4219 L75.8594,18.3438 Z M74.375,16.1094 L77.3594,16.1094 L80.7188,28.5 L78.2656,28.5 L77.5,25.4375 L74.2188,25.4375 L73.4688,28.5 L71.0313,28.5 L74.375,16.1094 Z " fill="#000000"/><text fill="#000000" font-family="sans-serif" font-size="14" font-style="italic" lengthAdjust="spacing" textLength="93" x="96.25" y="27.8467">Translateable</text><line style="stroke:#181818;stroke-width:0.5;" x1="8" x2="245" y1="39" y2="39"/><rect fill="none" height="6" style="stroke:#C82930;stroke-width:1.0;" width="6" x="15" y="49.6484"/><text fill="#000000" font-family="sans-serif" font-size="14" lengthAdjust="spacing" textLength="106" x="27" y="55.9951">toprow: Integer</text><rect fill="none" height="6" style="stroke:#C82930;stroke-width:1.0;" width="6" x="15" y="65.9453"/><text fill="#000000" font-family="sans-serif" font-size="14" lengthAdjust="spacing" textLength="99" x="27" y="72.292">leftcol: Integer</text><line style="stroke:#181818;stroke-width:0.5;" x1="8" x2="245" y1="79.5938" y2="79.5938"/><ellipse cx="18" cy="93.2422" fill="#84BE84" rx="3" ry="3" style="stroke:#038048;stroke-width:1.0;"/><text fill="#000000" font-family="sans-serif" font-size="14" lengthAdjust="spacing" textLength="213" x="27" y="96.5889">transform(r: Integer, c: Integer)</text></g><!--class Cursor--><g id="elem_Cursor"><rect fill="#F1F1F1" height="48" id="Cursor" rx="2.5" ry="2.5" style="stroke:#181818;stroke-width:0.5;" width="78" x="396.5" y="7.45"/><ellipse cx="411.5" cy="23.45" fill="#ADD1B2" rx="11" ry="11" style="stroke:#181818;stroke-width:1.0;"/><path d="M414.4688,29.0906 Q413.8906,29.3875 413.25,29.5281 Q412.6094,29.6844 411.9063,29.6844 Q409.4063,29.6844 408.0781,28.0438 Q406.7656,26.3875 406.7656,23.2625 Q406.7656,20.1375 408.0781,18.4813 Q409.4063,16.825 411.9063,16.825 Q412.6094,16.825 413.25,16.9813 Q413.9063,17.1375 414.4688,17.4344 L414.4688,20.1531 Q413.8438,19.575 413.25,19.3094 Q412.6563,19.0281 412.0313,19.0281 Q410.6875,19.0281 410,20.1063 Q409.3125,21.1688 409.3125,23.2625 Q409.3125,25.3563 410,26.4344 Q410.6875,27.4969 412.0313,27.4969 Q412.6563,27.4969 413.25,27.2313 Q413.8438,26.95 414.4688,26.3719 L414.4688,29.0906 Z " fill="#000000"/><text fill="#000000" font-family="sans-serif" font-size="14" lengthAdjust="spacing" textLength="46" x="425.5" y="28.2967">Cursor</text><line style="stroke:#181818;stroke-width:0.5;" x1="397.5" x2="473.5" y1="39.45" y2="39.45"/><line style="stroke:#181818;stroke-width:0.5;" x1="397.5" x2="473.5" y1="47.45" y2="47.45"/></g><!--class Textbox--><g id="elem_Textbox"><rect codeLine="32" fill="#F1F1F1" height="64.2969" id="Textbox" rx="2.5" ry="2.5" style="stroke:#181818;stroke-width:0.5;" width="119" x="634.5" y="250.3"/><ellipse cx="663.9" cy="266.3" fill="#ADD1B2" rx="11" ry="11" style="stroke:#181818;stroke-width:1.0;"/><path d="M666.8688,271.9406 Q666.2906,272.2375 665.65,272.3781 Q665.0094,272.5344 664.3063,272.5344 Q661.8063,272.5344 660.4781,270.8938 Q659.1656,269.2375 659.1656,266.1125 Q659.1656,262.9875 660.4781,261.3313 Q661.8063,259.675 664.3063,259.675 Q665.0094,259.675 665.65,259.8313 Q666.3063,259.9875 666.8688,260.2844 L666.8688,263.0031 Q666.2438,262.425 665.65,262.1594 Q665.0563,261.8781 664.4313,261.8781 Q663.0875,261.8781 662.4,262.9563 Q661.7125,264.0188 661.7125,266.1125 Q661.7125,268.2063 662.4,269.2844 Q663.0875,270.3469 664.4313,270.3469 Q665.0563,270.3469 665.65,270.0813 Q666.2438,269.8 666.8688,269.2219 L666.8688,271.9406 Z " fill="#000000"/><text fill="#000000" font-family="sans-serif" font-size="14" lengthAdjust="spacing" textLength="55" x="681.1" y="271.1467">Textbox</text><line style="stroke:#181818;stroke-width:0.5;" x1="635.5" x2="752.5" y1="282.3" y2="282.3"/><line style="stroke:#181818;stroke-width:0.5;" x1="635.5" x2="752.5" y1="290.3" y2="290.3"/><ellipse cx="645.5" cy="303.9484" fill="#84BE84" rx="3" ry="3" style="stroke:#038048;stroke-width:1.0;"/><text fill="#000000" font-family="sans-serif" font-size="14" lengthAdjust="spacing" textLength="93" x="654.5" y="307.2951">render(): void</text></g><!--class RenderableBox--><g id="elem_RenderableBox"><rect codeLine="35" fill="#F1F1F1" height="48" id="RenderableBox" rx="2.5" ry="2.5" style="stroke:#181818;stroke-width:0.5;" width="138" x="57.5" y="161.45"/><ellipse cx="72.5" cy="177.45" fill="#A9DCDF" rx="11" ry="11" style="stroke:#181818;stroke-width:1.0;"/><path d="M72.6094,172.7938 L71.4531,177.8719 L73.7813,177.8719 L72.6094,172.7938 Z M71.125,170.5594 L74.1094,170.5594 L77.4688,182.95 L75.0156,182.95 L74.25,179.8875 L70.9688,179.8875 L70.2188,182.95 L67.7813,182.95 L71.125,170.5594 Z " fill="#000000"/><text fill="#000000" font-family="sans-serif" font-size="14" font-style="italic" lengthAdjust="spacing" textLength="106" x="86.5" y="182.2967">RenderableBox</text><line style="stroke:#181818;stroke-width:0.5;" x1="58.5" x2="194.5" y1="193.45" y2="193.45"/><line style="stroke:#181818;stroke-width:0.5;" x1="58.5" x2="194.5" y1="201.45" y2="201.45"/></g><!--class StatusBar--><g id="elem_StatusBar"><rect codeLine="29" fill="#F1F1F1" height="64.2969" id="StatusBar" rx="2.5" ry="2.5" style="stroke:#181818;stroke-width:0.5;" width="119" x="634.5" y="52.3"/><ellipse cx="658.5" cy="68.3" fill="#ADD1B2" rx="11" ry="11" style="stroke:#181818;stroke-width:1.0;"/><path d="M661.4688,73.9406 Q660.8906,74.2375 660.25,74.3781 Q659.6094,74.5344 658.9063,74.5344 Q656.4063,74.5344 655.0781,72.8938 Q653.7656,71.2375 653.7656,68.1125 Q653.7656,64.9875 655.0781,63.3313 Q656.4063,61.675 658.9063,61.675 Q659.6094,61.675 660.25,61.8313 Q660.9063,61.9875 661.4688,62.2844 L661.4688,65.0031 Q660.8438,64.425 660.25,64.1594 Q659.6563,63.8781 659.0313,63.8781 Q657.6875,63.8781 657,64.9563 Q656.3125,66.0188 656.3125,68.1125 Q656.3125,70.2063 657,71.2844 Q657.6875,72.3469 659.0313,72.3469 Q659.6563,72.3469 660.25,72.0813 Q660.8438,71.8 661.4688,71.2219 L661.4688,73.9406 Z " fill="#000000"/><text fill="#000000" font-family="sans-serif" font-size="14" lengthAdjust="spacing" textLength="67" x="674.5" y="73.1467">StatusBar</text><line style="stroke:#181818;stroke-width:0.5;" x1="635.5" x2="752.5" y1="84.3" y2="84.3"/><line style="stroke:#181818;stroke-width:0.5;" x1="635.5" x2="752.5" y1="92.3" y2="92.3"/><ellipse cx="645.5" cy="105.9484" fill="#84BE84" rx="3" ry="3" style="stroke:#038048;stroke-width:1.0;"/><text fill="#000000" font-family="sans-serif" font-size="14" lengthAdjust="spacing" textLength="93" x="654.5" y="109.2951">render(): void</text></g><!--class Resizeable--><g id="elem_Resizeable"><rect codeLine="18" fill="#F1F1F1" height="113.1875" id="Resizeable" rx="2.5" ry="2.5" style="stroke:#181818;stroke-width:0.5;" width="259" x="306" y="319.85"/><ellipse cx="393.25" cy="335.85" fill="#A9DCDF" rx="11" ry="11" style="stroke:#181818;stroke-width:1.0;"/><path d="M393.3594,331.1938 L392.2031,336.2719 L394.5313,336.2719 L393.3594,331.1938 Z M391.875,328.9594 L394.8594,328.9594 L398.2188,341.35 L395.7656,341.35 L395,338.2875 L391.7188,338.2875 L390.9688,341.35 L388.5313,341.35 L391.875,328.9594 Z " fill="#000000"/><text fill="#000000" font-family="sans-serif" font-size="14" font-style="italic" lengthAdjust="spacing" textLength="76" x="413.75" y="340.6967">Resizeable</text><line style="stroke:#181818;stroke-width:0.5;" x1="307" x2="564" y1="351.85" y2="351.85"/><rect fill="none" height="6" style="stroke:#C82930;stroke-width:1.0;" width="6" x="314" y="362.4984"/><text fill="#000000" font-family="sans-serif" font-size="14" lengthAdjust="spacing" textLength="102" x="326" y="368.8451">height: Integer</text><rect fill="none" height="6" style="stroke:#C82930;stroke-width:1.0;" width="6" x="314" y="378.7953"/><text fill="#000000" font-family="sans-serif" font-size="14" lengthAdjust="spacing" textLength="95" x="326" y="385.142">width: Integer</text><line style="stroke:#181818;stroke-width:0.5;" x1="307" x2="564" y1="392.4438" y2="392.4438"/><rect fill="#F24D5C" height="6" style="stroke:#C82930;stroke-width:1.0;" width="6" x="314" y="403.0922"/><text fill="#000000" font-family="sans-serif" font-size="14" font-style="italic" lengthAdjust="spacing" textLength="112" x="326" y="409.4389">doResize(): void</text><ellipse cx="317" cy="422.3891" fill="#84BE84" rx="3" ry="3" style="stroke:#038048;stroke-width:1.0;"/><text fill="#000000" font-family="sans-serif" font-size="14" lengthAdjust="spacing" textLength="233" x="326" y="425.7357">resize(h: Integer, w: Integer): void</text></g><!--reverse link Translateable to Cursor--><g id="link_Translateable_Cursor"><path codeLine="12" d="M264.1352,44.7666 C317.4552,40.5966 358.75,37.37 396.28,34.43 " fill="none" id="Translateable-backto-Cursor" style="stroke:#181818;stroke-width:1.0;"/><polygon fill="none" points="246.19,46.17,264.603,50.7483,263.6674,38.7848,246.19,46.17" style="stroke:#181818;stroke-width:1.0;"/></g><!--reverse link NCWindow to Textbox--><g id="link_NCWindow_Textbox"><path codeLine="13" d="M694,227.92 C694,239.27 694,238.62 694,249.96 " fill="none" id="NCWindow-backto-Textbox" style="stroke:#181818;stroke-width:1.0;"/><polygon fill="#181818" points="694,215.92,690,221.92,694,227.92,698,221.92,694,215.92" style="stroke:#181818;stroke-width:1.0;"/><text fill="#000000" font-family="sans-serif" font-size="13" lengthAdjust="spacing" textLength="8" x="685.2375" y="235.6191">1</text></g><!--reverse link RenderableBox to StatusBar--><g id="link_RenderableBox_StatusBar"><path codeLine="14" d="M213.3647,163.7339 C246.4847,155.6339 269.43,150.52 306,143.45 C421.6,121.07 557.98,101.96 634.07,91.94 " fill="none" id="RenderableBox-backto-StatusBar" style="stroke:#181818;stroke-width:1.0;"/><polygon fill="none" points="195.88,168.01,214.7901,169.5621,211.9393,157.9056,195.88,168.01" style="stroke:#181818;stroke-width:1.0;"/></g><!--reverse link RenderableBox to Textbox--><g id="link_RenderableBox_Textbox"><path codeLine="15" d="M213.3298,207.3461 C246.4498,215.4861 269.4,220.55 306,227.45 C421.54,249.2 557.94,266.7 634.05,275.74 " fill="none" id="RenderableBox-backto-Textbox" style="stroke:#181818;stroke-width:1.0;"/><polygon fill="none" points="195.85,203.05,211.8978,213.1727,214.7618,201.5195,195.85,203.05" style="stroke:#181818;stroke-width:1.0;"/></g><!--link StatusBar to NCWindow--><g id="link_StatusBar_NCWindow"><path codeLine="16" d="M694,116.92 C694,128.27 694,127.62 694,138.96 " fill="none" id="StatusBar-to-NCWindow" style="stroke:#181818;stroke-width:1.0;"/><polygon fill="#181818" points="694,150.96,698,144.96,694,138.96,690,144.96,694,150.96" style="stroke:#181818;stroke-width:1.0;"/><text fill="#000000" font-family="sans-serif" font-size="13" lengthAdjust="spacing" textLength="8" x="685.2375" y="136.6191">1</text></g><!--link RenderableBox to Resizeable--><g id="link_RenderableBox_Resizeable"><path codeLine="36" d="M195.89,202.92 C213,208.93 230.8,216.67 246,226.45 C278.52,247.36 276.49,264.46 306,289.45 C318.13,299.72 316.8491,299.4129 330.2291,308.9629 " fill="none" id="RenderableBox-to-Resizeable" style="stroke:#181818;stroke-width:1.0;"/><polygon fill="none" points="344.88,319.42,333.7148,304.0793,326.7434,313.8465,344.88,319.42" style="stroke:#181818;stroke-width:1.0;"/></g><!--reverse link Translateable to RenderableBox--><g id="link_Translateable_RenderableBox"><path codeLine="37" d="M126.5,122.13 C126.5,141.11 126.5,142.09 126.5,161.07 " fill="none" id="Translateable-backto-RenderableBox" style="stroke:#181818;stroke-width:1.0;"/><polygon fill="none" points="126.5,104.13,120.5,122.13,132.5,122.13,126.5,104.13" style="stroke:#181818;stroke-width:1.0;"/></g><!--link RenderableBox to Renderable--><g id="link_RenderableBox_Renderable"><path codeLine="38" d="M126.5,209.73 C126.5,221.19 126.5,214.64 126.5,226.1 " fill="none" id="RenderableBox-to-Renderable" style="stroke:#181818;stroke-width:1.0;"/><polygon fill="none" points="126.5,244.1,132.5,226.1,120.5,226.1,126.5,244.1" style="stroke:#181818;stroke-width:1.0;"/></g><!--reverse link Window to NCWindow--><g id="link_Window_NCWindow"><path codeLine="39" d="M496.8595,184.9799 C539.2595,184.6499 586.85,184.27 634.26,183.9 " fill="none" id="Window-backto-NCWindow" style="stroke:#181818;stroke-width:1.0;"/><polygon fill="none" points="478.86,185.12,496.9062,190.9797,496.8128,178.9801,478.86,185.12" style="stroke:#181818;stroke-width:1.0;"/></g><!--reverse link RenderableBox to Window--><g id="link_RenderableBox_Window"><path codeLine="40" d="M213.63,185.45 C273.69,185.45 341.32,185.45 392.07,185.45 " fill="none" id="RenderableBox-backto-Window" style="stroke:#181818;stroke-width:1.0;"/><polygon fill="none" points="195.63,185.45,213.63,191.45,213.63,179.45,195.63,185.45" style="stroke:#181818;stroke-width:1.0;"/></g><!--reverse link Resizeable to Tab--><g id="link_Resizeable_Tab"><path codeLine="41" d="M583.1264,379.3078 C603.7464,379.7178 606.36,379.76 624.83,380.12 " fill="none" id="Resizeable-backto-Tab" style="stroke:#181818;stroke-width:1.0;"/><polygon fill="none" points="565.13,378.95,583.0072,385.3066,583.2457,373.309,565.13,378.95" style="stroke:#181818;stroke-width:1.0;"/></g><!--SRC=[RLAnRiCW4DtvYbEcD2b3rwZga4nTEgIMEcD3OYJ7L72fhJh-zmAsmQxPqBjxzuxthX8N15IWvRL4u5AB0gMg2SiDQbOWVCcQgwQ3dXGLCmOobdS4W79r5aR-YktJ0NwKvAIFdBEekT0ihuHhxIQytsjVc566cH-dKSLshtiopMfJCHHk8Bm-A8NJNHkboSI3pSi6TXGoqMAkMXBrZweT69_8y6wEJ4EgEX5Zbvj8Ts6pST5GxnQ_TJvClwMbS5OUuBr6SHLMpsADv5W6o27Hb9MHtWEFHCepDE6TC7nXaTy2rRTMpKAoib4NgffZUtJ4YzAthPvf5L4hP1I_dWnfF8x1ntHBuZni0DR9PI2KFjvcdi8w_-M0_tJFdX0o7eXFEPnBwWHYAIWFfy7oFm00]--></g></svg>