<?xml version="1.0" encoding="us-ascii" standalone="no"?><svg xmlns="http://www.w3.org/2000/svg" xmlns:xlink="http://www.w3.org/1999/xlink" contentStyleType="text/css" height="849px" preserveAspectRatio="none" style="width:1577px;height:849px;background:#FFFFFF;" version="1.1" viewBox="0 0 1577 849" width="1577px" zoomAndPan="magnify"><defs/><g><!--class Main--><g id="elem_Main"><rect codeLine="2" fill="#F1F1F1" height="64.2969" id="Main" rx="2.5" ry="2.5" style="stroke:#181818;stroke-width:0.5;" width="92" x="850" y="526.86"/><ellipse cx="877.6" cy="542.86" fill="#ADD1B2" rx="11" ry="11" style="stroke:#181818;stroke-width:1.0;"/><path d="M880.5688,548.5006 Q879.9906,548.7975 879.35,548.9381 Q878.7094,549.0944 878.0063,549.0944 Q875.5063,549.0944 874.1781,547.4538 Q872.8656,545.7975 872.8656,542.6725 Q872.8656,539.5475 874.1781,537.8913 Q875.5063,536.235 878.0063,536.235 Q878.7094,536.235 879.35,536.3913 Q880.0063,536.5475 880.5688,536.8444 L880.5688,539.5631 Q879.9438,538.985 879.35,538.7194 Q878.7563,538.4381 878.1313,538.4381 Q876.7875,538.4381 876.1,539.5163 Q875.4125,540.5788 875.4125,542.6725 Q875.4125,544.7663 876.1,545.8444 Q876.7875,546.9069 878.1313,546.9069 Q878.7563,546.9069 879.35,546.6413 Q879.9438,546.36 880.5688,545.7819 L880.5688,548.5006 Z " fill="#000000"/><text fill="#000000" font-family="sans-serif" font-size="14" lengthAdjust="spacing" textLength="32" x="894.4" y="547.7067">Main</text><line style="stroke:#181818;stroke-width:0.5;" x1="851" x2="941" y1="558.86" y2="558.86"/><line style="stroke:#181818;stroke-width:0.5;" x1="851" x2="941" y1="566.86" y2="566.86"/><text fill="#000000" font-family="sans-serif" font-size="14" lengthAdjust="spacing" textLength="80" x="856" y="583.8551">main(): void</text></g><!--class KeystrokeSource--><g id="elem_KeystrokeSource"><rect codeLine="5" fill="#F1F1F1" height="48" id="KeystrokeSource" rx="2.5" ry="2.5" style="stroke:#181818;stroke-width:0.5;" width="150" x="1420" y="580"/><ellipse cx="1435" cy="596" fill="#A9DCDF" rx="11" ry="11" style="stroke:#181818;stroke-width:1.0;"/><path d="M1435.1094,591.3438 L1433.9531,596.4219 L1436.2813,596.4219 L1435.1094,591.3438 Z M1433.625,589.1094 L1436.6094,589.1094 L1439.9688,601.5 L1437.5156,601.5 L1436.75,598.4375 L1433.4688,598.4375 L1432.7188,601.5 L1430.2813,601.5 L1433.625,589.1094 Z " fill="#000000"/><text fill="#000000" font-family="sans-serif" font-size="14" font-style="italic" lengthAdjust="spacing" textLength="118" x="1449" y="600.8467">KeystrokeSource</text><line style="stroke:#181818;stroke-width:0.5;" x1="1421" x2="1569" y1="612" y2="612"/><line style="stroke:#181818;stroke-width:0.5;" x1="1421" x2="1569" y1="620" y2="620"/></g><!--class TerminalArgs--><g id="elem_TerminalArgs"><rect codeLine="6" fill="#F1F1F1" height="129.4844" id="TerminalArgs" rx="2.5" ry="2.5" style="stroke:#181818;stroke-width:0.5;" width="245" x="1106" y="316.26"/><ellipse cx="1179.25" cy="332.26" fill="#ADD1B2" rx="11" ry="11" style="stroke:#181818;stroke-width:1.0;"/><path d="M1182.2188,337.9006 Q1181.6406,338.1975 1181,338.3381 Q1180.3594,338.4944 1179.6563,338.4944 Q1177.1563,338.4944 1175.8281,336.8538 Q1174.5156,335.1975 1174.5156,332.0725 Q1174.5156,328.9475 1175.8281,327.2913 Q1177.1563,325.635 1179.6563,325.635 Q1180.3594,325.635 1181,325.7913 Q1181.6563,325.9475 1182.2188,326.2444 L1182.2188,328.9631 Q1181.5938,328.385 1181,328.1194 Q1180.4063,327.8381 1179.7813,327.8381 Q1178.4375,327.8381 1177.75,328.9163 Q1177.0625,329.9788 1177.0625,332.0725 Q1177.0625,334.1663 1177.75,335.2444 Q1178.4375,336.3069 1179.7813,336.3069 Q1180.4063,336.3069 1181,336.0413 Q1181.5938,335.76 1182.2188,335.1819 L1182.2188,337.9006 Z " fill="#000000"/><text fill="#000000" font-family="sans-serif" font-size="14" lengthAdjust="spacing" textLength="90" x="1199.75" y="337.1067">TerminalArgs</text><line style="stroke:#181818;stroke-width:0.5;" x1="1107" x2="1350" y1="348.26" y2="348.26"/><ellipse cx="1117" cy="361.9084" fill="none" rx="3" ry="3" style="stroke:#038048;stroke-width:1.0;"/><text fill="#000000" font-family="sans-serif" font-size="14" lengthAdjust="spacing" textLength="110" x="1126" y="365.2551">files: String[0..*]</text><ellipse cx="1117" cy="378.2053" fill="none" rx="3" ry="3" style="stroke:#038048;stroke-width:1.0;"/><text fill="#000000" font-family="sans-serif" font-size="14" lengthAdjust="spacing" textLength="115" x="1126" y="381.552">flags: String[0..*]</text><ellipse cx="1117" cy="394.5022" fill="none" rx="3" ry="3" style="stroke:#038048;stroke-width:1.0;"/><text fill="#000000" font-family="sans-serif" font-size="14" lengthAdjust="spacing" textLength="141" x="1126" y="397.8489">options: Option[0..*]</text><line style="stroke:#181818;stroke-width:0.5;" x1="1107" x2="1350" y1="405.1506" y2="405.1506"/><ellipse cx="1117" cy="418.7991" fill="#84BE84" rx="3" ry="3" style="stroke:#038048;stroke-width:1.0;"/><text fill="#000000" font-family="sans-serif" font-size="14" lengthAdjust="spacing" textLength="219" x="1126" y="422.1457">hasOption(option: Option): bool</text><text fill="#000000" font-family="sans-serif" font-size="14" lengthAdjust="spacing" textLength="117" x="1126" y="438.4426">parseArgs(): void</text></g><!--class NcursesClosure--><g id="elem_NcursesClosure"><rect codeLine="13" fill="#F1F1F1" height="64.2969" id="NcursesClosure" rx="2.5" ry="2.5" style="stroke:#181818;stroke-width:0.5;" width="218" x="1119.5" y="480.86"/><ellipse cx="1169.25" cy="496.86" fill="#ADD1B2" rx="11" ry="11" style="stroke:#181818;stroke-width:1.0;"/><path d="M1172.2188,502.5006 Q1171.6406,502.7975 1171,502.9381 Q1170.3594,503.0944 1169.6563,503.0944 Q1167.1563,503.0944 1165.8281,501.4538 Q1164.5156,499.7975 1164.5156,496.6725 Q1164.5156,493.5475 1165.8281,491.8913 Q1167.1563,490.235 1169.6563,490.235 Q1170.3594,490.235 1171,490.3913 Q1171.6563,490.5475 1172.2188,490.8444 L1172.2188,493.5631 Q1171.5938,492.985 1171,492.7194 Q1170.4063,492.4381 1169.7813,492.4381 Q1168.4375,492.4381 1167.75,493.5163 Q1167.0625,494.5788 1167.0625,496.6725 Q1167.0625,498.7663 1167.75,499.8444 Q1168.4375,500.9069 1169.7813,500.9069 Q1170.4063,500.9069 1171,500.6413 Q1171.5938,500.36 1172.2188,499.7819 L1172.2188,502.5006 Z " fill="#000000"/><text fill="#000000" font-family="sans-serif" font-size="14" lengthAdjust="spacing" textLength="110" x="1189.75" y="501.7067">NcursesClosure</text><line style="stroke:#181818;stroke-width:0.5;" x1="1120.5" x2="1336.5" y1="512.86" y2="512.86"/><rect fill="none" height="6" style="stroke:#C82930;stroke-width:1.0;" width="6" x="1127.5" y="523.5084"/><text fill="#000000" font-family="sans-serif" font-size="14" lengthAdjust="spacing" textLength="192" x="1139.5" y="529.8551">terminalArgs: TerminalArgs*</text><line style="stroke:#181818;stroke-width:0.5;" x1="1120.5" x2="1336.5" y1="537.1569" y2="537.1569"/></g><!--class UWSEKeyboard--><g id="elem_UWSEKeyboard"><rect codeLine="16" fill="#F1F1F1" height="48" id="UWSEKeyboard" rx="2.5" ry="2.5" style="stroke:#181818;stroke-width:0.5;" width="138" x="1159.5" y="580"/><ellipse cx="1174.5" cy="596" fill="#ADD1B2" rx="11" ry="11" style="stroke:#181818;stroke-width:1.0;"/><path d="M1177.4688,601.6406 Q1176.8906,601.9375 1176.25,602.0781 Q1175.6094,602.2344 1174.9063,602.2344 Q1172.4063,602.2344 1171.0781,600.5938 Q1169.7656,598.9375 1169.7656,595.8125 Q1169.7656,592.6875 1171.0781,591.0313 Q1172.4063,589.375 1174.9063,589.375 Q1175.6094,589.375 1176.25,589.5313 Q1176.9063,589.6875 1177.4688,589.9844 L1177.4688,592.7031 Q1176.8438,592.125 1176.25,591.8594 Q1175.6563,591.5781 1175.0313,591.5781 Q1173.6875,591.5781 1173,592.6563 Q1172.3125,593.7188 1172.3125,595.8125 Q1172.3125,597.9063 1173,598.9844 Q1173.6875,600.0469 1175.0313,600.0469 Q1175.6563,600.0469 1176.25,599.7813 Q1176.8438,599.5 1177.4688,598.9219 L1177.4688,601.6406 Z " fill="#000000"/><text fill="#000000" font-family="sans-serif" font-size="14" lengthAdjust="spacing" textLength="106" x="1188.5" y="600.8467">UWSEKeyboard</text><line style="stroke:#181818;stroke-width:0.5;" x1="1160.5" x2="1296.5" y1="612" y2="612"/><line style="stroke:#181818;stroke-width:0.5;" x1="1160.5" x2="1296.5" y1="620" y2="620"/></g><!--class StyleManager--><g id="elem_StyleManager"><rect codeLine="17" fill="#F1F1F1" height="48" id="StyleManager" rx="2.5" ry="2.5" style="stroke:#181818;stroke-width:0.5;" width="125" x="1166" y="663"/><ellipse cx="1181" cy="679" fill="#ADD1B2" rx="11" ry="11" style="stroke:#181818;stroke-width:1.0;"/><path d="M1183.9688,684.6406 Q1183.3906,684.9375 1182.75,685.0781 Q1182.1094,685.2344 1181.4063,685.2344 Q1178.9063,685.2344 1177.5781,683.5938 Q1176.2656,681.9375 1176.2656,678.8125 Q1176.2656,675.6875 1177.5781,674.0313 Q1178.9063,672.375 1181.4063,672.375 Q1182.1094,672.375 1182.75,672.5313 Q1183.4063,672.6875 1183.9688,672.9844 L1183.9688,675.7031 Q1183.3438,675.125 1182.75,674.8594 Q1182.1563,674.5781 1181.5313,674.5781 Q1180.1875,674.5781 1179.5,675.6563 Q1178.8125,676.7188 1178.8125,678.8125 Q1178.8125,680.9063 1179.5,681.9844 Q1180.1875,683.0469 1181.5313,683.0469 Q1182.1563,683.0469 1182.75,682.7813 Q1183.3438,682.5 1183.9688,681.9219 L1183.9688,684.6406 Z " fill="#000000"/><text fill="#000000" font-family="sans-serif" font-size="14" lengthAdjust="spacing" textLength="93" x="1195" y="683.8467">StyleManager</text><line style="stroke:#181818;stroke-width:0.5;" x1="1167" x2="1290" y1="695" y2="695"/><line style="stroke:#181818;stroke-width:0.5;" x1="1167" x2="1290" y1="703" y2="703"/></g><!--class WindowsClosure--><g id="elem_WindowsClosure"><rect codeLine="18" fill="#F1F1F1" height="80.5938" id="WindowsClosure" rx="2.5" ry="2.5" style="stroke:#181818;stroke-width:0.5;" width="438" x="242" y="518.71"/><ellipse cx="399.25" cy="534.71" fill="#ADD1B2" rx="11" ry="11" style="stroke:#181818;stroke-width:1.0;"/><path d="M402.2188,540.3506 Q401.6406,540.6475 401,540.7881 Q400.3594,540.9444 399.6563,540.9444 Q397.1563,540.9444 395.8281,539.3038 Q394.5156,537.6475 394.5156,534.5225 Q394.5156,531.3975 395.8281,529.7413 Q397.1563,528.085 399.6563,528.085 Q400.3594,528.085 401,528.2413 Q401.6563,528.3975 402.2188,528.6944 L402.2188,531.4131 Q401.5938,530.835 401,530.5694 Q400.4063,530.2881 399.7813,530.2881 Q398.4375,530.2881 397.75,531.3663 Q397.0625,532.4288 397.0625,534.5225 Q397.0625,536.6163 397.75,537.6944 Q398.4375,538.7569 399.7813,538.7569 Q400.4063,538.7569 401,538.4913 Q401.5938,538.21 402.2188,537.6319 L402.2188,540.3506 Z " fill="#000000"/><text fill="#000000" font-family="sans-serif" font-size="14" lengthAdjust="spacing" textLength="115" x="419.75" y="539.5567">WindowsClosure</text><line style="stroke:#181818;stroke-width:0.5;" x1="243" x2="679" y1="550.71" y2="550.71"/><ellipse cx="253" cy="564.3584" fill="none" rx="3" ry="3" style="stroke:#038048;stroke-width:1.0;"/><text fill="#000000" font-family="sans-serif" font-size="14" lengthAdjust="spacing" textLength="171" x="262" y="567.7051">activeWindow: Window**</text><line style="stroke:#181818;stroke-width:0.5;" x1="243" x2="679" y1="575.0069" y2="575.0069"/><ellipse cx="253" cy="588.6553" fill="#84BE84" rx="3" ry="3" style="stroke:#038048;stroke-width:1.0;"/><text fill="#000000" font-family="sans-serif" font-size="14" lengthAdjust="spacing" textLength="412" x="262" y="592.002">WindowsClosure(tabs: TabsClosure*, styler: StyleManager*)</text></g><!--class HistoryClosure--><g id="elem_HistoryClosure"><rect codeLine="22" fill="#F1F1F1" height="145.7813" id="HistoryClosure" rx="2.5" ry="2.5" style="stroke:#181818;stroke-width:0.5;" width="468" x="227" y="634.11"/><ellipse cx="406.75" cy="650.11" fill="#ADD1B2" rx="11" ry="11" style="stroke:#181818;stroke-width:1.0;"/><path d="M409.7188,655.7506 Q409.1406,656.0475 408.5,656.1881 Q407.8594,656.3444 407.1563,656.3444 Q404.6563,656.3444 403.3281,654.7038 Q402.0156,653.0475 402.0156,649.9225 Q402.0156,646.7975 403.3281,645.1413 Q404.6563,643.485 407.1563,643.485 Q407.8594,643.485 408.5,643.6413 Q409.1563,643.7975 409.7188,644.0944 L409.7188,646.8131 Q409.0938,646.235 408.5,645.9694 Q407.9063,645.6881 407.2813,645.6881 Q405.9375,645.6881 405.25,646.7663 Q404.5625,647.8288 404.5625,649.9225 Q404.5625,652.0163 405.25,653.0944 Q405.9375,654.1569 407.2813,654.1569 Q407.9063,654.1569 408.5,653.8913 Q409.0938,653.61 409.7188,653.0319 L409.7188,655.7506 Z " fill="#000000"/><text fill="#000000" font-family="sans-serif" font-size="14" lengthAdjust="spacing" textLength="100" x="427.25" y="654.9567">HistoryClosure</text><line style="stroke:#181818;stroke-width:0.5;" x1="228" x2="694" y1="666.11" y2="666.11"/><ellipse cx="238" cy="679.7584" fill="none" rx="3" ry="3" style="stroke:#038048;stroke-width:1.0;"/><text fill="#000000" font-family="sans-serif" font-size="14" lengthAdjust="spacing" textLength="186" x="247" y="683.1051">tabsClosure: TabsClosure*</text><ellipse cx="238" cy="696.0553" fill="none" rx="3" ry="3" style="stroke:#038048;stroke-width:1.0;"/><text fill="#000000" font-family="sans-serif" font-size="14" lengthAdjust="spacing" textLength="227" x="247" y="699.402">cursorRecorder: CursorRecorder</text><ellipse cx="238" cy="712.3522" fill="none" rx="3" ry="3" style="stroke:#038048;stroke-width:1.0;"/><text fill="#000000" font-family="sans-serif" font-size="14" lengthAdjust="spacing" textLength="230" x="247" y="715.6989">historyRecorder: HistoryRecorder</text><ellipse cx="238" cy="728.6491" fill="none" rx="3" ry="3" style="stroke:#038048;stroke-width:1.0;"/><text fill="#000000" font-family="sans-serif" font-size="14" lengthAdjust="spacing" textLength="227" x="247" y="731.9957">macroRecorder: HistoryRecorder</text><ellipse cx="238" cy="744.9459" fill="none" rx="3" ry="3" style="stroke:#038048;stroke-width:1.0;"/><text fill="#000000" font-family="sans-serif" font-size="14" lengthAdjust="spacing" textLength="208" x="247" y="748.2926">macroCursor: CursorRecorder</text><line style="stroke:#181818;stroke-width:0.5;" x1="228" x2="694" y1="755.5944" y2="755.5944"/><ellipse cx="238" cy="769.2428" fill="#84BE84" rx="3" ry="3" style="stroke:#038048;stroke-width:1.0;"/><text fill="#000000" font-family="sans-serif" font-size="14" lengthAdjust="spacing" textLength="442" x="247" y="772.5895">HistoryClosure(tabs: TabsClosure*, windows: WindowsClosure*)</text></g><!--class ModesClosure--><g id="elem_ModesClosure"><rect codeLine="30" fill="#F1F1F1" height="276.1563" id="ModesClosure" rx="2.5" ry="2.5" style="stroke:#181818;stroke-width:0.5;" width="282" x="755" y="181.93"/><ellipse cx="841.75" cy="197.93" fill="#ADD1B2" rx="11" ry="11" style="stroke:#181818;stroke-width:1.0;"/><path d="M844.7188,203.5706 Q844.1406,203.8675 843.5,204.0081 Q842.8594,204.1644 842.1563,204.1644 Q839.6563,204.1644 838.3281,202.5238 Q837.0156,200.8675 837.0156,197.7425 Q837.0156,194.6175 838.3281,192.9613 Q839.6563,191.305 842.1563,191.305 Q842.8594,191.305 843.5,191.4613 Q844.1563,191.6175 844.7188,191.9144 L844.7188,194.6331 Q844.0938,194.055 843.5,193.7894 Q842.9063,193.5081 842.2813,193.5081 Q840.9375,193.5081 840.25,194.5863 Q839.5625,195.6488 839.5625,197.7425 Q839.5625,199.8363 840.25,200.9144 Q840.9375,201.9769 842.2813,201.9769 Q842.9063,201.9769 843.5,201.7113 Q844.0938,201.43 844.7188,200.8519 L844.7188,203.5706 Z " fill="#000000"/><text fill="#000000" font-family="sans-serif" font-size="14" lengthAdjust="spacing" textLength="100" x="862.25" y="202.7767">ModesClosure</text><line style="stroke:#181818;stroke-width:0.5;" x1="756" x2="1036" y1="213.93" y2="213.93"/><ellipse cx="766" cy="227.5784" fill="none" rx="3" ry="3" style="stroke:#038048;stroke-width:1.0;"/><text fill="#000000" font-family="sans-serif" font-size="14" lengthAdjust="spacing" textLength="244" x="775" y="230.9251">windowsClosure: WindowsClosure*</text><ellipse cx="766" cy="243.8753" fill="none" rx="3" ry="3" style="stroke:#038048;stroke-width:1.0;"/><text fill="#000000" font-family="sans-serif" font-size="14" lengthAdjust="spacing" textLength="186" x="775" y="247.222">tabsClosure: TabsClosure*</text><ellipse cx="766" cy="260.1722" fill="none" rx="3" ry="3" style="stroke:#038048;stroke-width:1.0;"/><text fill="#000000" font-family="sans-serif" font-size="14" lengthAdjust="spacing" textLength="215" x="775" y="263.5189">historyClosure: HistoryClosure*</text><ellipse cx="766" cy="276.4691" fill="none" rx="3" ry="3" style="stroke:#038048;stroke-width:1.0;"/><text fill="#000000" font-family="sans-serif" font-size="14" lengthAdjust="spacing" textLength="208" x="775" y="279.8157">modeManager: ModeManager</text><ellipse cx="766" cy="292.7659" fill="none" rx="3" ry="3" style="stroke:#038048;stroke-width:1.0;"/><text fill="#000000" font-family="sans-serif" font-size="14" lengthAdjust="spacing" textLength="137" x="775" y="296.1126">clipboard: Clipboard</text><ellipse cx="766" cy="309.0628" fill="none" rx="3" ry="3" style="stroke:#038048;stroke-width:1.0;"/><text fill="#000000" font-family="sans-serif" font-size="14" lengthAdjust="spacing" textLength="249" x="775" y="312.4095">macroRecorder: KeystrokeRecorder</text><ellipse cx="766" cy="325.3597" fill="none" rx="3" ry="3" style="stroke:#038048;stroke-width:1.0;"/><text fill="#000000" font-family="sans-serif" font-size="14" lengthAdjust="spacing" textLength="143" x="775" y="328.7064">exRunner: ExRunner</text><ellipse cx="766" cy="341.6566" fill="none" rx="3" ry="3" style="stroke:#038048;stroke-width:1.0;"/><text fill="#000000" font-family="sans-serif" font-size="14" lengthAdjust="spacing" textLength="129" x="775" y="345.0032">exParser: ExParser</text><ellipse cx="766" cy="357.9534" fill="none" rx="3" ry="3" style="stroke:#038048;stroke-width:1.0;"/><text fill="#000000" font-family="sans-serif" font-size="14" lengthAdjust="spacing" textLength="103" x="775" y="361.3001">exMode: Mode</text><ellipse cx="766" cy="374.2503" fill="none" rx="3" ry="3" style="stroke:#038048;stroke-width:1.0;"/><text fill="#000000" font-family="sans-serif" font-size="14" lengthAdjust="spacing" textLength="220" x="775" y="377.597">setModeParser: SetModeParser</text><ellipse cx="766" cy="390.5472" fill="none" rx="3" ry="3" style="stroke:#038048;stroke-width:1.0;"/><text fill="#000000" font-family="sans-serif" font-size="14" lengthAdjust="spacing" textLength="234" x="775" y="393.8939">setModeRunner: SetModeRunner</text><ellipse cx="766" cy="406.8441" fill="none" rx="3" ry="3" style="stroke:#038048;stroke-width:1.0;"/><text fill="#000000" font-family="sans-serif" font-size="14" lengthAdjust="spacing" textLength="185" x="775" y="410.1907">dotRepeater: DotRepeater</text><ellipse cx="766" cy="423.1409" fill="none" rx="3" ry="3" style="stroke:#038048;stroke-width:1.0;"/><text fill="#000000" font-family="sans-serif" font-size="14" lengthAdjust="spacing" textLength="184" x="775" y="426.4876">undoRunner: UndoRunner</text><ellipse cx="766" cy="439.4378" fill="none" rx="3" ry="3" style="stroke:#038048;stroke-width:1.0;"/><text fill="#000000" font-family="sans-serif" font-size="14" lengthAdjust="spacing" textLength="256" x="775" y="442.7845">messageResetter: MessageResetter</text><line style="stroke:#181818;stroke-width:0.5;" x1="756" x2="1036" y1="450.0863" y2="450.0863"/></g><!--class StatusBarClosure--><g id="elem_StatusBarClosure"><rect codeLine="46" fill="#F1F1F1" height="96.8906" id="StatusBarClosure" rx="2.5" ry="2.5" style="stroke:#181818;stroke-width:0.5;" width="263" x="1097" y="745.56"/><ellipse cx="1164.25" cy="761.56" fill="#ADD1B2" rx="11" ry="11" style="stroke:#181818;stroke-width:1.0;"/><path d="M1167.2188,767.2006 Q1166.6406,767.4975 1166,767.6381 Q1165.3594,767.7944 1164.6563,767.7944 Q1162.1563,767.7944 1160.8281,766.1538 Q1159.5156,764.4975 1159.5156,761.3725 Q1159.5156,758.2475 1160.8281,756.5913 Q1162.1563,754.935 1164.6563,754.935 Q1165.3594,754.935 1166,755.0913 Q1166.6563,755.2475 1167.2188,755.5444 L1167.2188,758.2631 Q1166.5938,757.685 1166,757.4194 Q1165.4063,757.1381 1164.7813,757.1381 Q1163.4375,757.1381 1162.75,758.2163 Q1162.0625,759.2788 1162.0625,761.3725 Q1162.0625,763.4663 1162.75,764.5444 Q1163.4375,765.6069 1164.7813,765.6069 Q1165.4063,765.6069 1166,765.3413 Q1166.5938,765.06 1167.2188,764.4819 L1167.2188,767.2006 Z " fill="#000000"/><text fill="#000000" font-family="sans-serif" font-size="14" lengthAdjust="spacing" textLength="120" x="1184.75" y="766.4067">StatusBarClosure</text><line style="stroke:#181818;stroke-width:0.5;" x1="1098" x2="1359" y1="777.56" y2="777.56"/><ellipse cx="1108" cy="791.2084" fill="none" rx="3" ry="3" style="stroke:#038048;stroke-width:1.0;"/><text fill="#000000" font-family="sans-serif" font-size="14" lengthAdjust="spacing" textLength="237" x="1117" y="794.5551">windowsClosure: WindowsClosure</text><ellipse cx="1108" cy="807.5053" fill="none" rx="3" ry="3" style="stroke:#038048;stroke-width:1.0;"/><text fill="#000000" font-family="sans-serif" font-size="14" lengthAdjust="spacing" textLength="210" x="1117" y="810.852">modesClosure: ModesClosure</text><line style="stroke:#181818;stroke-width:0.5;" x1="1098" x2="1359" y1="818.1538" y2="818.1538"/><ellipse cx="1108" cy="831.8022" fill="#84BE84" rx="3" ry="3" style="stroke:#038048;stroke-width:1.0;"/><text fill="#000000" font-family="sans-serif" font-size="14" lengthAdjust="spacing" textLength="160" x="1117" y="835.1489">renderStatusBar(): void</text></g><!--class SearchModeClosure--><g id="elem_SearchModeClosure"><rect codeLine="51" fill="#F1F1F1" height="96.8906" id="SearchModeClosure" rx="2.5" ry="2.5" style="stroke:#181818;stroke-width:0.5;" width="256" x="333" y="386.56"/><ellipse cx="386.75" cy="402.56" fill="#ADD1B2" rx="11" ry="11" style="stroke:#181818;stroke-width:1.0;"/><path d="M389.7188,408.2006 Q389.1406,408.4975 388.5,408.6381 Q387.8594,408.7944 387.1563,408.7944 Q384.6563,408.7944 383.3281,407.1538 Q382.0156,405.4975 382.0156,402.3725 Q382.0156,399.2475 383.3281,397.5913 Q384.6563,395.935 387.1563,395.935 Q387.8594,395.935 388.5,396.0913 Q389.1563,396.2475 389.7188,396.5444 L389.7188,399.2631 Q389.0938,398.685 388.5,398.4194 Q387.9063,398.1381 387.2813,398.1381 Q385.9375,398.1381 385.25,399.2163 Q384.5625,400.2788 384.5625,402.3725 Q384.5625,404.4663 385.25,405.5444 Q385.9375,406.6069 387.2813,406.6069 Q387.9063,406.6069 388.5,406.3413 Q389.0938,406.06 389.7188,405.4819 L389.7188,408.2006 Z " fill="#000000"/><text fill="#000000" font-family="sans-serif" font-size="14" lengthAdjust="spacing" textLength="140" x="407.25" y="407.4067">SearchModeClosure</text><line style="stroke:#181818;stroke-width:0.5;" x1="334" x2="588" y1="418.56" y2="418.56"/><text fill="#000000" font-family="sans-serif" font-size="14" lengthAdjust="spacing" textLength="244" x="339" y="435.5551">windowsClosure: WindowsClosure*</text><text fill="#000000" font-family="sans-serif" font-size="14" lengthAdjust="spacing" textLength="215" x="339" y="451.852">modeManager: ModeManager*</text><text fill="#000000" font-family="sans-serif" font-size="14" lengthAdjust="spacing" textLength="192" x="339" y="468.1489">searchParser: SearchParser</text><line style="stroke:#181818;stroke-width:0.5;" x1="334" x2="588" y1="475.4506" y2="475.4506"/></g><!--class NormalModeClosure--><g id="elem_NormalModeClosure"><rect codeLine="56" fill="#F1F1F1" height="145.7813" id="NormalModeClosure" rx="2.5" ry="2.5" style="stroke:#181818;stroke-width:0.5;" width="307" x="307.5" y="41.11"/><ellipse cx="386.75" cy="57.11" fill="#ADD1B2" rx="11" ry="11" style="stroke:#181818;stroke-width:1.0;"/><path d="M389.7188,62.7506 Q389.1406,63.0475 388.5,63.1881 Q387.8594,63.3444 387.1563,63.3444 Q384.6563,63.3444 383.3281,61.7038 Q382.0156,60.0475 382.0156,56.9225 Q382.0156,53.7975 383.3281,52.1413 Q384.6563,50.485 387.1563,50.485 Q387.8594,50.485 388.5,50.6413 Q389.1563,50.7975 389.7188,51.0944 L389.7188,53.8131 Q389.0938,53.235 388.5,52.9694 Q387.9063,52.6881 387.2813,52.6881 Q385.9375,52.6881 385.25,53.7663 Q384.5625,54.8288 384.5625,56.9225 Q384.5625,59.0163 385.25,60.0944 Q385.9375,61.1569 387.2813,61.1569 Q387.9063,61.1569 388.5,60.8913 Q389.0938,60.61 389.7188,60.0319 L389.7188,62.7506 Z " fill="#000000"/><text fill="#000000" font-family="sans-serif" font-size="14" lengthAdjust="spacing" textLength="140" x="407.25" y="61.9567">NormalModeClosure</text><line style="stroke:#181818;stroke-width:0.5;" x1="308.5" x2="613.5" y1="73.11" y2="73.11"/><text fill="#000000" font-family="sans-serif" font-size="14" lengthAdjust="spacing" textLength="244" x="313.5" y="90.1051">windowsClosure: WindowsClosure*</text><text fill="#000000" font-family="sans-serif" font-size="14" lengthAdjust="spacing" textLength="215" x="313.5" y="106.402">historyClosure: HistoryClosure*</text><text fill="#000000" font-family="sans-serif" font-size="14" lengthAdjust="spacing" textLength="215" x="313.5" y="122.6989">modeManager: ModeManager*</text><text fill="#000000" font-family="sans-serif" font-size="14" lengthAdjust="spacing" textLength="295" x="313.5" y="138.9957">searchModeClosure: SearchModeClosure*</text><text fill="#000000" font-family="sans-serif" font-size="14" lengthAdjust="spacing" textLength="162" x="313.5" y="155.2926">"parsers and runners..."</text><text fill="#000000" font-family="sans-serif" font-size="14" lengthAdjust="spacing" textLength="183" x="313.5" y="171.5895">parserGroup: ParserGroup</text><line style="stroke:#181818;stroke-width:0.5;" x1="308.5" x2="613.5" y1="178.8913" y2="178.8913"/></g><!--class InsertModeClosure--><g id="elem_InsertModeClosure"><rect codeLine="64" fill="#F1F1F1" height="129.4844" id="InsertModeClosure" rx="2.5" ry="2.5" style="stroke:#181818;stroke-width:0.5;" width="270" x="326" y="222.26"/><ellipse cx="391.25" cy="238.26" fill="#ADD1B2" rx="11" ry="11" style="stroke:#181818;stroke-width:1.0;"/><path d="M394.2188,243.9006 Q393.6406,244.1975 393,244.3381 Q392.3594,244.4944 391.6563,244.4944 Q389.1563,244.4944 387.8281,242.8538 Q386.5156,241.1975 386.5156,238.0725 Q386.5156,234.9475 387.8281,233.2913 Q389.1563,231.635 391.6563,231.635 Q392.3594,231.635 393,231.7913 Q393.6563,231.9475 394.2188,232.2444 L394.2188,234.9631 Q393.5938,234.385 393,234.1194 Q392.4063,233.8381 391.7813,233.8381 Q390.4375,233.8381 389.75,234.9163 Q389.0625,235.9788 389.0625,238.0725 Q389.0625,240.1663 389.75,241.2444 Q390.4375,242.3069 391.7813,242.3069 Q392.4063,242.3069 393,242.0413 Q393.5938,241.76 394.2188,241.1819 L394.2188,243.9006 Z " fill="#000000"/><text fill="#000000" font-family="sans-serif" font-size="14" lengthAdjust="spacing" textLength="131" x="411.75" y="243.1067">InsertModeClosure</text><line style="stroke:#181818;stroke-width:0.5;" x1="327" x2="595" y1="254.26" y2="254.26"/><ellipse cx="337" cy="267.9084" fill="none" rx="3" ry="3" style="stroke:#038048;stroke-width:1.0;"/><text fill="#000000" font-family="sans-serif" font-size="14" lengthAdjust="spacing" textLength="244" x="346" y="271.2551">windowsClosure: WindowsClosure*</text><ellipse cx="337" cy="284.2053" fill="none" rx="3" ry="3" style="stroke:#038048;stroke-width:1.0;"/><text fill="#000000" font-family="sans-serif" font-size="14" lengthAdjust="spacing" textLength="175" x="346" y="287.552">insertParser: InsertParser</text><ellipse cx="337" cy="300.5022" fill="none" rx="3" ry="3" style="stroke:#038048;stroke-width:1.0;"/><text fill="#000000" font-family="sans-serif" font-size="14" lengthAdjust="spacing" textLength="189" x="346" y="303.8489">insertRunner: InsertRunner</text><ellipse cx="337" cy="316.7991" fill="none" rx="3" ry="3" style="stroke:#038048;stroke-width:1.0;"/><text fill="#000000" font-family="sans-serif" font-size="14" lengthAdjust="spacing" textLength="211" x="346" y="320.1457">insertReflector: InsertReflector</text><ellipse cx="337" cy="333.0959" fill="none" rx="3" ry="3" style="stroke:#038048;stroke-width:1.0;"/><text fill="#000000" font-family="sans-serif" font-size="14" lengthAdjust="spacing" textLength="126" x="346" y="336.4426">insertMode: Mode</text><line style="stroke:#181818;stroke-width:0.5;" x1="327" x2="595" y1="343.7444" y2="343.7444"/></g><!--class CursorClosure--><g id="elem_CursorClosure"><rect codeLine="71" fill="#F1F1F1" height="113.1875" id="CursorClosure" rx="2.5" ry="2.5" style="stroke:#181818;stroke-width:0.5;" width="270" x="761" y="626.41"/><ellipse cx="842.25" cy="642.41" fill="#ADD1B2" rx="11" ry="11" style="stroke:#181818;stroke-width:1.0;"/><path d="M845.2188,648.0506 Q844.6406,648.3475 844,648.4881 Q843.3594,648.6444 842.6563,648.6444 Q840.1563,648.6444 838.8281,647.0038 Q837.5156,645.3475 837.5156,642.2225 Q837.5156,639.0975 838.8281,637.4413 Q840.1563,635.785 842.6563,635.785 Q843.3594,635.785 844,635.9413 Q844.6563,636.0975 845.2188,636.3944 L845.2188,639.1131 Q844.5938,638.535 844,638.2694 Q843.4063,637.9881 842.7813,637.9881 Q841.4375,637.9881 840.75,639.0663 Q840.0625,640.1288 840.0625,642.2225 Q840.0625,644.3163 840.75,645.3944 Q841.4375,646.4569 842.7813,646.4569 Q843.4063,646.4569 844,646.1913 Q844.5938,645.91 845.2188,645.3319 L845.2188,648.0506 Z " fill="#000000"/><text fill="#000000" font-family="sans-serif" font-size="14" lengthAdjust="spacing" textLength="99" x="862.75" y="647.2567">CursorClosure</text><line style="stroke:#181818;stroke-width:0.5;" x1="762" x2="1030" y1="658.41" y2="658.41"/><ellipse cx="772" cy="672.0584" fill="none" rx="3" ry="3" style="stroke:#038048;stroke-width:1.0;"/><text fill="#000000" font-family="sans-serif" font-size="14" lengthAdjust="spacing" textLength="244" x="781" y="675.4051">windowsClosure: WindowsClosure*</text><ellipse cx="772" cy="688.3553" fill="none" rx="3" ry="3" style="stroke:#038048;stroke-width:1.0;"/><text fill="#000000" font-family="sans-serif" font-size="14" lengthAdjust="spacing" textLength="217" x="781" y="691.702">modesClosure: ModesClosure*</text><text fill="#000000" font-family="sans-serif" font-size="14" lengthAdjust="spacing" textLength="138" x="781" y="707.9989">ncCursor: NCCursor</text><line style="stroke:#181818;stroke-width:0.5;" x1="762" x2="1030" y1="715.3006" y2="715.3006"/><ellipse cx="772" cy="728.9491" fill="#84BE84" rx="3" ry="3" style="stroke:#038048;stroke-width:1.0;"/><text fill="#000000" font-family="sans-serif" font-size="14" lengthAdjust="spacing" textLength="139" x="781" y="732.2957">renderCursor(): void</text></g><!--class TabsClosure--><g id="elem_TabsClosure"><rect fill="#F1F1F1" height="48" id="TabsClosure" rx="2.5" ry="2.5" style="stroke:#181818;stroke-width:0.5;" width="119" x="1169" y="233"/><ellipse cx="1184" cy="249" fill="#ADD1B2" rx="11" ry="11" style="stroke:#181818;stroke-width:1.0;"/><path d="M1186.9688,254.6406 Q1186.3906,254.9375 1185.75,255.0781 Q1185.1094,255.2344 1184.4063,255.2344 Q1181.9063,255.2344 1180.5781,253.5938 Q1179.2656,251.9375 1179.2656,248.8125 Q1179.2656,245.6875 1180.5781,244.0313 Q1181.9063,242.375 1184.4063,242.375 Q1185.1094,242.375 1185.75,242.5313 Q1186.4063,242.6875 1186.9688,242.9844 L1186.9688,245.7031 Q1186.3438,245.125 1185.75,244.8594 Q1185.1563,244.5781 1184.5313,244.5781 Q1183.1875,244.5781 1182.5,245.6563 Q1181.8125,246.7188 1181.8125,248.8125 Q1181.8125,250.9063 1182.5,251.9844 Q1183.1875,253.0469 1184.5313,253.0469 Q1185.1563,253.0469 1185.75,252.7813 Q1186.3438,252.5 1186.9688,251.9219 L1186.9688,254.6406 Z " fill="#000000"/><text fill="#000000" font-family="sans-serif" font-size="14" lengthAdjust="spacing" textLength="87" x="1198" y="253.8467">TabsClosure</text><line style="stroke:#181818;stroke-width:0.5;" x1="1170" x2="1287" y1="265" y2="265"/><line style="stroke:#181818;stroke-width:0.5;" x1="1170" x2="1287" y1="273" y2="273"/></g><!--class TabManager--><g id="elem_TabManager"><rect fill="#F1F1F1" height="48" id="TabManager" rx="2.5" ry="2.5" style="stroke:#181818;stroke-width:0.5;" width="118" x="1436" y="275"/><ellipse cx="1451" cy="291" fill="#ADD1B2" rx="11" ry="11" style="stroke:#181818;stroke-width:1.0;"/><path d="M1453.9688,296.6406 Q1453.3906,296.9375 1452.75,297.0781 Q1452.1094,297.2344 1451.4063,297.2344 Q1448.9063,297.2344 1447.5781,295.5938 Q1446.2656,293.9375 1446.2656,290.8125 Q1446.2656,287.6875 1447.5781,286.0313 Q1448.9063,284.375 1451.4063,284.375 Q1452.1094,284.375 1452.75,284.5313 Q1453.4063,284.6875 1453.9688,284.9844 L1453.9688,287.7031 Q1453.3438,287.125 1452.75,286.8594 Q1452.1563,286.5781 1451.5313,286.5781 Q1450.1875,286.5781 1449.5,287.6563 Q1448.8125,288.7188 1448.8125,290.8125 Q1448.8125,292.9063 1449.5,293.9844 Q1450.1875,295.0469 1451.5313,295.0469 Q1452.1563,295.0469 1452.75,294.7813 Q1453.3438,294.5 1453.9688,293.9219 L1453.9688,296.6406 Z " fill="#000000"/><text fill="#000000" font-family="sans-serif" font-size="14" lengthAdjust="spacing" textLength="86" x="1465" y="295.8467">TabManager</text><line style="stroke:#181818;stroke-width:0.5;" x1="1437" x2="1553" y1="307" y2="307"/><line style="stroke:#181818;stroke-width:0.5;" x1="1437" x2="1553" y1="315" y2="315"/></g><!--class FileManager--><g id="elem_FileManager"><rect fill="#F1F1F1" height="48" id="FileManager" rx="2.5" ry="2.5" style="stroke:#181818;stroke-width:0.5;" width="115" x="1437.5" y="192"/><ellipse cx="1452.5" cy="208" fill="#ADD1B2" rx="11" ry="11" style="stroke:#181818;stroke-width:1.0;"/><path d="M1455.4688,213.6406 Q1454.8906,213.9375 1454.25,214.0781 Q1453.6094,214.2344 1452.9063,214.2344 Q1450.4063,214.2344 1449.0781,212.5938 Q1447.7656,210.9375 1447.7656,207.8125 Q1447.7656,204.6875 1449.0781,203.0313 Q1450.4063,201.375 1452.9063,201.375 Q1453.6094,201.375 1454.25,201.5313 Q1454.9063,201.6875 1455.4688,201.9844 L1455.4688,204.7031 Q1454.8438,204.125 1454.25,203.8594 Q1453.6563,203.5781 1453.0313,203.5781 Q1451.6875,203.5781 1451,204.6563 Q1450.3125,205.7188 1450.3125,207.8125 Q1450.3125,209.9063 1451,210.9844 Q1451.6875,212.0469 1453.0313,212.0469 Q1453.6563,212.0469 1454.25,211.7813 Q1454.8438,211.5 1455.4688,210.9219 L1455.4688,213.6406 Z " fill="#000000"/><text fill="#000000" font-family="sans-serif" font-size="14" lengthAdjust="spacing" textLength="83" x="1466.5" y="212.8467">FileManager</text><line style="stroke:#181818;stroke-width:0.5;" x1="1438.5" x2="1551.5" y1="224" y2="224"/><line style="stroke:#181818;stroke-width:0.5;" x1="1438.5" x2="1551.5" y1="232" y2="232"/></g><!--class RootStatus--><g id="elem_RootStatus"><rect fill="#F1F1F1" height="48" id="RootStatus" rx="2.5" ry="2.5" style="stroke:#181818;stroke-width:0.5;" width="109" x="32.5" y="526"/><ellipse cx="47.5" cy="542" fill="#ADD1B2" rx="11" ry="11" style="stroke:#181818;stroke-width:1.0;"/><path d="M50.4688,547.6406 Q49.8906,547.9375 49.25,548.0781 Q48.6094,548.2344 47.9063,548.2344 Q45.4063,548.2344 44.0781,546.5938 Q42.7656,544.9375 42.7656,541.8125 Q42.7656,538.6875 44.0781,537.0313 Q45.4063,535.375 47.9063,535.375 Q48.6094,535.375 49.25,535.5313 Q49.9063,535.6875 50.4688,535.9844 L50.4688,538.7031 Q49.8438,538.125 49.25,537.8594 Q48.6563,537.5781 48.0313,537.5781 Q46.6875,537.5781 46,538.6563 Q45.3125,539.7188 45.3125,541.8125 Q45.3125,543.9063 46,544.9844 Q46.6875,546.0469 48.0313,546.0469 Q48.6563,546.0469 49.25,545.7813 Q49.8438,545.5 50.4688,544.9219 L50.4688,547.6406 Z " fill="#000000"/><text fill="#000000" font-family="sans-serif" font-size="14" lengthAdjust="spacing" textLength="77" x="61.5" y="546.8467">RootStatus</text><line style="stroke:#181818;stroke-width:0.5;" x1="33.5" x2="140.5" y1="558" y2="558"/><line style="stroke:#181818;stroke-width:0.5;" x1="33.5" x2="140.5" y1="566" y2="566"/></g><!--class RootStatusRender--><g id="elem_RootStatusRender"><rect fill="#F1F1F1" height="48" id="RootStatusRender" rx="2.5" ry="2.5" style="stroke:#181818;stroke-width:0.5;" width="160" x="7" y="609"/><ellipse cx="22" cy="625" fill="#ADD1B2" rx="11" ry="11" style="stroke:#181818;stroke-width:1.0;"/><path d="M24.9688,630.6406 Q24.3906,630.9375 23.75,631.0781 Q23.1094,631.2344 22.4063,631.2344 Q19.9063,631.2344 18.5781,629.5938 Q17.2656,627.9375 17.2656,624.8125 Q17.2656,621.6875 18.5781,620.0313 Q19.9063,618.375 22.4063,618.375 Q23.1094,618.375 23.75,618.5313 Q24.4063,618.6875 24.9688,618.9844 L24.9688,621.7031 Q24.3438,621.125 23.75,620.8594 Q23.1563,620.5781 22.5313,620.5781 Q21.1875,620.5781 20.5,621.6563 Q19.8125,622.7188 19.8125,624.8125 Q19.8125,626.9063 20.5,627.9844 Q21.1875,629.0469 22.5313,629.0469 Q23.1563,629.0469 23.75,628.7813 Q24.3438,628.5 24.9688,627.9219 L24.9688,630.6406 Z " fill="#000000"/><text fill="#000000" font-family="sans-serif" font-size="14" lengthAdjust="spacing" textLength="128" x="36" y="629.8467">RootStatusRender</text><line style="stroke:#181818;stroke-width:0.5;" x1="8" x2="166" y1="641" y2="641"/><line style="stroke:#181818;stroke-width:0.5;" x1="8" x2="166" y1="649" y2="649"/></g><!--class NCWindow--><g id="elem_NCWindow"><rect fill="#F1F1F1" height="48" id="NCWindow" rx="2.5" ry="2.5" style="stroke:#181818;stroke-width:0.5;" width="106" x="34" y="443"/><ellipse cx="49" cy="459" fill="#ADD1B2" rx="11" ry="11" style="stroke:#181818;stroke-width:1.0;"/><path d="M51.9688,464.6406 Q51.3906,464.9375 50.75,465.0781 Q50.1094,465.2344 49.4063,465.2344 Q46.9063,465.2344 45.5781,463.5938 Q44.2656,461.9375 44.2656,458.8125 Q44.2656,455.6875 45.5781,454.0313 Q46.9063,452.375 49.4063,452.375 Q50.1094,452.375 50.75,452.5313 Q51.4063,452.6875 51.9688,452.9844 L51.9688,455.7031 Q51.3438,455.125 50.75,454.8594 Q50.1563,454.5781 49.5313,454.5781 Q48.1875,454.5781 47.5,455.6563 Q46.8125,456.7188 46.8125,458.8125 Q46.8125,460.9063 47.5,461.9844 Q48.1875,463.0469 49.5313,463.0469 Q50.1563,463.0469 50.75,462.7813 Q51.3438,462.5 51.9688,461.9219 L51.9688,464.6406 Z " fill="#000000"/><text fill="#000000" font-family="sans-serif" font-size="14" lengthAdjust="spacing" textLength="74" x="63" y="463.8467">NCWindow</text><line style="stroke:#181818;stroke-width:0.5;" x1="35" x2="139" y1="475" y2="475"/><line style="stroke:#181818;stroke-width:0.5;" x1="35" x2="139" y1="483" y2="483"/></g><!--class HistoryManager--><g id="elem_HistoryManager"><rect fill="#F1F1F1" height="48" id="HistoryManager" rx="2.5" ry="2.5" style="stroke:#181818;stroke-width:0.5;" width="139" x="17.5" y="692"/><ellipse cx="32.5" cy="708" fill="#ADD1B2" rx="11" ry="11" style="stroke:#181818;stroke-width:1.0;"/><path d="M35.4688,713.6406 Q34.8906,713.9375 34.25,714.0781 Q33.6094,714.2344 32.9063,714.2344 Q30.4063,714.2344 29.0781,712.5938 Q27.7656,710.9375 27.7656,707.8125 Q27.7656,704.6875 29.0781,703.0313 Q30.4063,701.375 32.9063,701.375 Q33.6094,701.375 34.25,701.5313 Q34.9063,701.6875 35.4688,701.9844 L35.4688,704.7031 Q34.8438,704.125 34.25,703.8594 Q33.6563,703.5781 33.0313,703.5781 Q31.6875,703.5781 31,704.6563 Q30.3125,705.7188 30.3125,707.8125 Q30.3125,709.9063 31,710.9844 Q31.6875,712.0469 33.0313,712.0469 Q33.6563,712.0469 34.25,711.7813 Q34.8438,711.5 35.4688,710.9219 L35.4688,713.6406 Z " fill="#000000"/><text fill="#000000" font-family="sans-serif" font-size="14" lengthAdjust="spacing" textLength="107" x="46.5" y="712.8467">HistoryManager</text><line style="stroke:#181818;stroke-width:0.5;" x1="18.5" x2="155.5" y1="724" y2="724"/><line style="stroke:#181818;stroke-width:0.5;" x1="18.5" x2="155.5" y1="732" y2="732"/></g><!--class NormalParser--><g id="elem_NormalParser"><rect fill="#F1F1F1" height="48" id="NormalParser" rx="2.5" ry="2.5" style="stroke:#181818;stroke-width:0.5;" width="124" x="25" y="90"/><ellipse cx="40" cy="106" fill="#ADD1B2" rx="11" ry="11" style="stroke:#181818;stroke-width:1.0;"/><path d="M42.9688,111.6406 Q42.3906,111.9375 41.75,112.0781 Q41.1094,112.2344 40.4063,112.2344 Q37.9063,112.2344 36.5781,110.5938 Q35.2656,108.9375 35.2656,105.8125 Q35.2656,102.6875 36.5781,101.0313 Q37.9063,99.375 40.4063,99.375 Q41.1094,99.375 41.75,99.5313 Q42.4063,99.6875 42.9688,99.9844 L42.9688,102.7031 Q42.3438,102.125 41.75,101.8594 Q41.1563,101.5781 40.5313,101.5781 Q39.1875,101.5781 38.5,102.6563 Q37.8125,103.7188 37.8125,105.8125 Q37.8125,107.9063 38.5,108.9844 Q39.1875,110.0469 40.5313,110.0469 Q41.1563,110.0469 41.75,109.7813 Q42.3438,109.5 42.9688,108.9219 L42.9688,111.6406 Z " fill="#000000"/><text fill="#000000" font-family="sans-serif" font-size="14" lengthAdjust="spacing" textLength="92" x="54" y="110.8467">NormalParser</text><line style="stroke:#181818;stroke-width:0.5;" x1="26" x2="148" y1="122" y2="122"/><line style="stroke:#181818;stroke-width:0.5;" x1="26" x2="148" y1="130" y2="130"/></g><!--class MovementParser--><g id="elem_MovementParser"><rect fill="#F1F1F1" height="48" id="MovementParser" rx="2.5" ry="2.5" style="stroke:#181818;stroke-width:0.5;" width="149" x="12.5" y="173"/><ellipse cx="27.5" cy="189" fill="#ADD1B2" rx="11" ry="11" style="stroke:#181818;stroke-width:1.0;"/><path d="M30.4688,194.6406 Q29.8906,194.9375 29.25,195.0781 Q28.6094,195.2344 27.9063,195.2344 Q25.4063,195.2344 24.0781,193.5938 Q22.7656,191.9375 22.7656,188.8125 Q22.7656,185.6875 24.0781,184.0313 Q25.4063,182.375 27.9063,182.375 Q28.6094,182.375 29.25,182.5313 Q29.9063,182.6875 30.4688,182.9844 L30.4688,185.7031 Q29.8438,185.125 29.25,184.8594 Q28.6563,184.5781 28.0313,184.5781 Q26.6875,184.5781 26,185.6563 Q25.3125,186.7188 25.3125,188.8125 Q25.3125,190.9063 26,191.9844 Q26.6875,193.0469 28.0313,193.0469 Q28.6563,193.0469 29.25,192.7813 Q29.8438,192.5 30.4688,191.9219 L30.4688,194.6406 Z " fill="#000000"/><text fill="#000000" font-family="sans-serif" font-size="14" lengthAdjust="spacing" textLength="117" x="41.5" y="193.8467">MovementParser</text><line style="stroke:#181818;stroke-width:0.5;" x1="13.5" x2="160.5" y1="205" y2="205"/><line style="stroke:#181818;stroke-width:0.5;" x1="13.5" x2="160.5" y1="213" y2="213"/></g><!--class ComboNMParser--><g id="elem_ComboNMParser"><rect fill="#F1F1F1" height="48" id="ComboNMParser" rx="2.5" ry="2.5" style="stroke:#181818;stroke-width:0.5;" width="148" x="13" y="7"/><ellipse cx="28" cy="23" fill="#ADD1B2" rx="11" ry="11" style="stroke:#181818;stroke-width:1.0;"/><path d="M30.9688,28.6406 Q30.3906,28.9375 29.75,29.0781 Q29.1094,29.2344 28.4063,29.2344 Q25.9063,29.2344 24.5781,27.5938 Q23.2656,25.9375 23.2656,22.8125 Q23.2656,19.6875 24.5781,18.0313 Q25.9063,16.375 28.4063,16.375 Q29.1094,16.375 29.75,16.5313 Q30.4063,16.6875 30.9688,16.9844 L30.9688,19.7031 Q30.3438,19.125 29.75,18.8594 Q29.1563,18.5781 28.5313,18.5781 Q27.1875,18.5781 26.5,19.6563 Q25.8125,20.7188 25.8125,22.8125 Q25.8125,24.9063 26.5,25.9844 Q27.1875,27.0469 28.5313,27.0469 Q29.1563,27.0469 29.75,26.7813 Q30.3438,26.5 30.9688,25.9219 L30.9688,28.6406 Z " fill="#000000"/><text fill="#000000" font-family="sans-serif" font-size="14" lengthAdjust="spacing" textLength="116" x="42" y="27.8467">ComboNMParser</text><line style="stroke:#181818;stroke-width:0.5;" x1="14" x2="160" y1="39" y2="39"/><line style="stroke:#181818;stroke-width:0.5;" x1="14" x2="160" y1="47" y2="47"/></g><!--reverse link Main to UWSEKeyboard--><g id="link_Main_UWSEKeyboard"><path codeLine="77" d="M954.1503,566.7889 C1010.1903,574.4189 1094.29,585.87 1159.28,594.72 " fill="none" id="Main-backto-UWSEKeyboard" style="stroke:#181818;stroke-width:1.0;"/><polygon fill="none" points="942.26,565.17,947.6655,569.9429,954.1503,566.7889,948.7448,562.016,942.26,565.17" style="stroke:#181818;stroke-width:1.0;"/></g><!--link UWSEKeyboard to KeystrokeSource--><g id="link_UWSEKeyboard_KeystrokeSource"><path codeLine="78" d="M1297.96,604 C1335.31,604 1363.58,604 1401.79,604 " fill="none" id="UWSEKeyboard-to-KeystrokeSource" style="stroke:#181818;stroke-width:1.0;"/><polygon fill="none" points="1419.79,604,1401.79,598,1401.79,610,1419.79,604" style="stroke:#181818;stroke-width:1.0;"/></g><!--reverse link Main to TerminalArgs--><g id="link_Main_TerminalArgs"><path codeLine="79" d="M952.8253,528.9402 C994.9953,506.2302 1049.2,477.03 1106.37,446.24 " fill="none" id="Main-backto-TerminalArgs" style="stroke:#181818;stroke-width:1.0;"/><polygon fill="none" points="942.26,534.63,949.4393,535.3069,952.8253,528.9402,945.6461,528.2633,942.26,534.63" style="stroke:#181818;stroke-width:1.0;"/></g><!--reverse link Main to NcursesClosure--><g id="link_Main_NcursesClosure"><path codeLine="80" d="M954.1451,551.0537 C999.4951,544.7337 1059.11,536.44 1119.18,528.08 " fill="none" id="Main-backto-NcursesClosure" style="stroke:#181818;stroke-width:1.0;"/><polygon fill="none" points="942.26,552.71,948.7547,555.8436,954.1451,551.0537,947.6505,547.9201,942.26,552.71" style="stroke:#181818;stroke-width:1.0;"/></g><!--reverse link Main to TabsClosure--><g id="link_Main_TabsClosure"><path codeLine="81" d="M953.4669,537.089 C984.0869,523.489 1012.27,506.51 1037,476 C1089.31,411.48 1037.81,357.28 1097,299 C1116.16,280.13 1143.84,269.74 1168.77,264.02 " fill="none" id="Main-backto-TabsClosure" style="stroke:#181818;stroke-width:1.0;"/><polygon fill="none" points="942.5,541.96,949.6071,543.1801,953.4669,537.089,946.3598,535.8689,942.5,541.96" style="stroke:#181818;stroke-width:1.0;"/></g><!--reverse link TabsClosure to TabManager--><g id="link_TabsClosure_TabManager"><path codeLine="82" d="M1300.0517,268.2105 C1344.0417,275.1905 1392.08,282.82 1435.92,289.78 " fill="none" id="TabsClosure-backto-TabManager" style="stroke:#181818;stroke-width:1.0;"/><polygon fill="none" points="1288.2,266.33,1293.499,271.2208,1300.0517,268.2105,1294.7527,263.3197,1288.2,266.33" style="stroke:#181818;stroke-width:1.0;"/><text fill="#000000" font-family="sans-serif" font-size="13" lengthAdjust="spacing" textLength="8" x="1295.9634" y="280.4561">1</text></g><!--reverse link TabsClosure to FileManager--><g id="link_TabsClosure_FileManager"><path codeLine="83" d="M1300.0583,246.0715 C1344.4983,239.1815 1393.33,231.61 1437.28,224.8 " fill="none" id="TabsClosure-backto-FileManager" style="stroke:#181818;stroke-width:1.0;"/><polygon fill="none" points="1288.2,247.91,1294.742,250.9435,1300.0583,246.0715,1293.5163,243.038,1288.2,247.91" style="stroke:#181818;stroke-width:1.0;"/><text fill="#000000" font-family="sans-serif" font-size="13" lengthAdjust="spacing" textLength="8" x="1295.9634" y="259.7912">1</text></g><!--reverse link TabsClosure to TerminalArgs--><g id="link_TabsClosure_TerminalArgs"><path codeLine="84" d="M1228.5,293.47 C1228.5,305.01 1228.5,304.56 1228.5,316.1 " fill="none" id="TabsClosure-backto-TerminalArgs" style="stroke:#181818;stroke-width:1.0;"/><polygon fill="none" points="1228.5,281.47,1224.5,287.47,1228.5,293.47,1232.5,287.47,1228.5,281.47" style="stroke:#181818;stroke-width:1.0;"/><text fill="#000000" font-family="sans-serif" font-size="13" lengthAdjust="spacing" textLength="58" x="1163.7938" y="300.9453">read files</text></g><!--link WindowsClosure to Main--><g id="link_WindowsClosure_Main"><path codeLine="85" d="M680.4,559 C744.51,559 796.39,559 837.57,559 " fill="none" id="WindowsClosure-to-Main" style="stroke:#181818;stroke-width:1.0;"/><polygon fill="none" points="849.57,559,843.57,555,837.57,559,843.57,563,849.57,559" style="stroke:#181818;stroke-width:1.0;"/></g><!--link RootStatus to WindowsClosure--><g id="link_RootStatus_WindowsClosure"><path codeLine="86" d="M141.69,551.3 C169.16,551.97 192.6035,552.5399 229.8235,553.4399 " fill="none" id="RootStatus-to-WindowsClosure" style="stroke:#181818;stroke-width:1.0;"/><polygon fill="none" points="241.82,553.73,235.9184,549.5861,229.8235,553.4399,235.7251,557.5838,241.82,553.73" style="stroke:#181818;stroke-width:1.0;"/><text fill="#000000" font-family="sans-serif" font-size="13" lengthAdjust="spacing" textLength="8" x="225.7995" y="565.8792">1</text></g><!--link RootStatusRender to WindowsClosure--><g id="link_RootStatusRender_WindowsClosure"><path codeLine="87" d="M167.35,617.22 C193.49,612.02 212.1009,608.3225 243.2009,602.1325 " fill="none" id="RootStatusRender-to-WindowsClosure" style="stroke:#181818;stroke-width:1.0;"/><polygon fill="none" points="254.97,599.79,248.3046,597.0382,243.2009,602.1325,249.8663,604.8843,254.97,599.79" style="stroke:#181818;stroke-width:1.0;"/><text fill="#000000" font-family="sans-serif" font-size="13" lengthAdjust="spacing" textLength="8" x="226.2952" y="616.6163">1</text></g><!--link NCWindow to WindowsClosure--><g id="link_NCWindow_WindowsClosure"><path codeLine="88" d="M140.12,479.89 C180.61,489.91 227.4609,501.4995 283.3909,515.3295 " fill="none" id="NCWindow-to-WindowsClosure" style="stroke:#181818;stroke-width:1.0;"/><polygon fill="none" points="295.04,518.21,290.1756,512.8867,283.3909,515.3295,288.2553,520.6528,295.04,518.21" style="stroke:#181818;stroke-width:1.0;"/><text fill="#000000" font-family="sans-serif" font-size="13" lengthAdjust="spacing" textLength="8" x="259.9526" y="507.5902">1</text></g><!--link HistoryClosure to Main--><g id="link_HistoryClosure_Main"><path codeLine="89" d="M676.6,633.66 C742.1,611.27 796.4751,592.6814 838.4551,578.3314 " fill="none" id="HistoryClosure-to-Main" style="stroke:#181818;stroke-width:1.0;"/><polygon fill="none" points="849.81,574.45,842.8387,572.6057,838.4551,578.3314,845.4264,580.1757,849.81,574.45" style="stroke:#181818;stroke-width:1.0;"/><text fill="#000000" font-family="sans-serif" font-size="13" lengthAdjust="spacing" textLength="8" x="834.1247" y="590.04">1</text></g><!--link WindowsClosure to HistoryClosure--><g id="link_WindowsClosure_HistoryClosure"><path codeLine="90" d="M461,599.66 C461,611.06 461,610.47 461,621.87 " fill="none" id="WindowsClosure-to-HistoryClosure" style="stroke:#181818;stroke-width:1.0;"/><polygon fill="none" points="461,633.87,465,627.87,461,621.87,457,627.87,461,633.87" style="stroke:#181818;stroke-width:1.0;"/><text fill="#000000" font-family="sans-serif" font-size="13" lengthAdjust="spacing" textLength="8" x="452.6063" y="623.0064">1</text></g><!--link HistoryManager to HistoryClosure--><g id="link_HistoryManager_HistoryClosure"><path codeLine="91" d="M156.66,714.34 C177.45,713.84 189.5436,713.5536 214.8736,712.9336 " fill="none" id="HistoryManager-to-HistoryClosure" style="stroke:#181818;stroke-width:1.0;"/><polygon fill="none" points="226.87,712.64,220.7739,708.788,214.8736,712.9336,220.9697,716.7856,226.87,712.64" style="stroke:#181818;stroke-width:1.0;"/><text fill="#000000" font-family="sans-serif" font-size="13" lengthAdjust="spacing" textLength="8" x="211.0564" y="725.1402">1</text></g><!--link ModesClosure to Main--><g id="link_ModesClosure_Main"><path codeLine="92" d="M896,458.54 C896,481.29 896,492.04 896,514.8 " fill="none" id="ModesClosure-to-Main" style="stroke:#181818;stroke-width:1.0;"/><polygon fill="none" points="896,526.8,900,520.8,896,514.8,892,520.8,896,526.8" style="stroke:#181818;stroke-width:1.0;"/><text fill="#000000" font-family="sans-serif" font-size="13" lengthAdjust="spacing" textLength="8" x="887.175" y="515.6907">1</text></g><!--link InsertModeClosure to ModesClosure--><g id="link_InsertModeClosure_ModesClosure"><path codeLine="93" d="M596.33,297.24 C646.62,301.07 691.8847,304.5286 742.6947,308.3986 " fill="none" id="InsertModeClosure-to-ModesClosure" style="stroke:#181818;stroke-width:1.0;"/><polygon fill="none" points="754.66,309.31,748.9811,304.8659,742.6947,308.3986,748.3735,312.8428,754.66,309.31" style="stroke:#181818;stroke-width:1.0;"/><text fill="#000000" font-family="sans-serif" font-size="13" lengthAdjust="spacing" textLength="8" x="739.1659" y="321.2154">1</text></g><!--link SearchModeClosure to ModesClosure--><g id="link_SearchModeClosure_ModesClosure"><path codeLine="94" d="M589.28,401.2 C641.18,387.42 689.7619,374.5095 742.9419,360.3895 " fill="none" id="SearchModeClosure-to-ModesClosure" style="stroke:#181818;stroke-width:1.0;"/><polygon fill="none" points="754.54,357.31,747.7144,354.9837,742.9419,360.3895,749.7674,362.7158,754.54,357.31" style="stroke:#181818;stroke-width:1.0;"/><text fill="#000000" font-family="sans-serif" font-size="13" lengthAdjust="spacing" textLength="8" x="739.0397" y="371.6904">1</text></g><!--link NormalModeClosure to ModesClosure--><g id="link_NormalModeClosure_ModesClosure"><path codeLine="95" d="M614.75,169.88 C641.79,180.84 669.45,192.75 695,205 C714.59,214.4 724.3344,219.217 744.1144,230.047 " fill="none" id="NormalModeClosure-to-ModesClosure" style="stroke:#181818;stroke-width:1.0;"/><polygon fill="none" points="754.64,235.81,751.2982,229.42,744.1144,230.047,747.4562,236.437,754.64,235.81" style="stroke:#181818;stroke-width:1.0;"/><text fill="#000000" font-family="sans-serif" font-size="13" lengthAdjust="spacing" textLength="8" x="739.1449" y="243.9256">1</text></g><!--link NormalParser to NormalModeClosure--><g id="link_NormalParser_NormalModeClosure"><path codeLine="96" d="M149.43,114 C192.46,114 239.94,114 295.35,114 " fill="none" id="NormalParser-to-NormalModeClosure" style="stroke:#181818;stroke-width:1.0;"/><polygon fill="none" points="307.35,114,301.35,110,295.35,114,301.35,118,307.35,114" style="stroke:#181818;stroke-width:1.0;"/></g><!--link MovementParser to NormalModeClosure--><g id="link_MovementParser_NormalModeClosure"><path codeLine="97" d="M161.94,180.51 C203.58,171.22 245.4477,161.8721 295.6677,150.6721 " fill="none" id="MovementParser-to-NormalModeClosure" style="stroke:#181818;stroke-width:1.0;"/><polygon fill="none" points="307.38,148.06,300.6532,145.4619,295.6677,150.6721,302.3946,153.2701,307.38,148.06" style="stroke:#181818;stroke-width:1.0;"/></g><!--link ComboNMParser to NormalModeClosure--><g id="link_ComboNMParser_NormalModeClosure"><path codeLine="98" d="M161.5,47.4 C203.1,56.69 245.0282,66.0357 295.3382,77.2657 " fill="none" id="ComboNMParser-to-NormalModeClosure" style="stroke:#181818;stroke-width:1.0;"/><polygon fill="none" points="307.05,79.88,302.0655,74.6689,295.3382,77.2657,300.3227,82.4768,307.05,79.88" style="stroke:#181818;stroke-width:1.0;"/></g><!--reverse link Main to CursorClosure--><g id="link_Main_CursorClosure"><path codeLine="99" d="M896,603.62 C896,615.19 896,614.76 896,626.33 " fill="none" id="Main-backto-CursorClosure" style="stroke:#181818;stroke-width:1.0;"/><polygon fill="none" points="896,591.62,892,597.62,896,603.62,900,597.62,896,591.62" style="stroke:#181818;stroke-width:1.0;"/></g><!--reverse link Main to StatusBarClosure--><g id="link_Main_StatusBarClosure"><path codeLine="100" d="M954.1775,568.8035 C984.0075,575.5135 1010.54,585.55 1037,609 C1081.63,648.55 1054.8,686.87 1097,729 C1102.82,734.82 1109.27,740.2 1116.09,745.17 " fill="none" id="Main-backto-StatusBarClosure" style="stroke:#181818;stroke-width:1.0;"/><polygon fill="none" points="942.47,566.17,947.4459,571.3892,954.1775,568.8035,949.2016,563.5843,942.47,566.17" style="stroke:#181818;stroke-width:1.0;"/></g><!--reverse link Main to StyleManager--><g id="link_Main_StyleManager"><path codeLine="101" d="M953.8433,576.2253 C981.7233,585.1953 1006.41,594.31 1037,609 C1065.24,622.57 1068.5,632.99 1097,646 C1118.71,655.92 1143.49,664.37 1165.58,670.98 " fill="none" id="Main-backto-StyleManager" style="stroke:#181818;stroke-width:1.0;"/><polygon fill="none" points="942.42,572.55,946.9066,578.1954,953.8433,576.2253,949.3568,570.5799,942.42,572.55" style="stroke:#181818;stroke-width:1.0;"/></g><!--SRC=[bLOxRzim4DxrAmXFYLCPxQgXGEEcZL7O3Qm66OeEj4JRH2MUGL99WxJ_lNo88Yd9Th88v7tVyOx7UwWYMuaa84vtUubAoaaXAJ2K51KM0YqnPIyeGQXMYulB33q2BPD_2Tu8oN4XqJVoh5Rmc-JGy8AqQZy8hod3rIU-4qRz2crfHKI6Siafs_ryFvjDVrbvXNTZSZXeFnJotImyiiV2YYuinJ6KSnk0Ib4Ec0kYJGSEMxzMHQCWCQz0D9oW5qLEPU1h5da-xVJk7_8RTTCDO5wY5oVDvND5bfZX7U5U-a1P2K-HZIiLAVf8B9ArZEbK8p7xGgh0AYVKjvLCto6XpV0iCZUzx7oxfK82VuxiINz0V9e6TGo0hqa1lDJdpgEzUQszFTDpRcE18TMuuF0AYZr_r4xi- -Zjdso0ibvSWm0ieOoVzEefeWvKpqPe7xcLzK9iABKoshv5PZnmUM0YND63oHLrQRSS2rbNF55Go9zrmvZ6RzgLbTxfj3PIkx9IRTjweFU2IBrqr3pS1hWpa8TRZPSWr-H0iDJePx_HMAE2w1JlkxMv5X52NNvDrF56SnaB4bynM3RY6lCtF9UBjiV31zSe9qp5hZjxKFKvmRpOQwrMILizdoF7dbXZmXpfm-ntljS0ht7rPgldS- -yNu7HR7XxpPkO7ia5mgn4t3oacCrc4zSz-LSEpI53TtxJNMp1b4ZsBlQQcgD6qGLj4UmywX9i4Um2b6mhDQ304vp0SuA2S1xRplD6Ru_dd8PPuThQQcvNFXFjFaX3FKKHf6aqHv9egAJftu-3OThfXLF9I-Df5h1zEqk2DPfyc3YyJPbH-0ljnaoCSu9BEySrCNQgD_NI5Co_Gx86aBOoZKpRw9MtPwnDz8xnLdChE8Rtvg1Z6I_wtbaerd07k4QUZhEYQHFQ69I5To7iLuDo7ASDkiSfcYqYmnZeAOSVIKsOF4cQGxs1rVBqGJQ_uchoMTVlxI7YVrp-0m00]--></g></svg>